<svg xmlns="http://www.w3.org/2000/svg" width="77" height="85" viewBox="0 0 77 85" fill="none"><g clip-path="url(#clip0_61529_2126)"><path d="M51.7481 6.57827L74.9857 29.8158V78.9857H25.5556L2.57827 56V6.57827H51.7481ZM52.3778 5H1V56.6296L24.9259 80.5556H76.5556V29.1778L52.3778 5Z" fill="#999999"></path><path d="M13.2736 47.5633V50.3337H11.6953V42.7781H14.5916C15.28 42.7193 15.9096 42.9712 16.4805 43.4077C17.4207 44.4151 17.4207 45.9263 16.4805 46.9337C15.9768 47.3786 15.28 47.6221 14.5916 47.5633H13.2736ZM13.2736 46.3628H14.4069C14.7259 46.3628 15.0365 46.304 15.2212 46.0438C15.599 45.5401 15.599 44.7845 15.2212 44.2808C14.9694 44.0877 14.7175 43.9618 14.4069 43.9618H13.2736V46.3544V46.3628ZM23.7926 50.3337L23.2889 48.6379H20.7116L20.2079 50.3337H18.5121L21.1565 42.7781H22.9867L25.564 50.3337H23.801H23.7926ZM21.0222 47.4374H22.9111L21.9709 44.2892L21.0306 47.4374H21.0222ZM27.8222 50.3337V42.7781H30.7185C31.4153 42.7193 32.0449 42.9712 32.6074 43.4077C33.0524 43.8443 33.3042 44.4739 33.3042 45.1035C33.3042 45.5485 33.1783 45.9263 32.9264 46.304C32.6746 46.6818 32.2968 46.9337 31.919 47.1267L33.8079 50.4008H32.1121L30.4751 47.4458H29.4005V50.3421H27.8222V50.3337ZM29.3921 46.2369H30.5254C31.0963 46.2956 31.5916 45.9179 31.6588 45.3554V45.0364C31.7259 44.4655 31.3398 43.9702 30.8444 43.903H29.4593V46.2285H29.4005L29.3921 46.2369ZM37.6445 50.3337V44.0961H35.319V42.7781H41.5565V44.0961H39.2227V50.3337H37.6445ZM45.5106 45.1035V50.3337H44.0667V42.7781H45.8296L48.919 48.067V42.7781H50.3714V50.3337H48.6084L45.519 45.1035H45.5106ZM53.2593 50.3337V42.7781H58.2375V44.0374H54.8963V45.8003H57.6079V47.0596H54.8963V49.0744H58.2375V50.3337H53.2593ZM61.1254 50.3337V42.7781H64.0217C64.7101 42.7193 65.3398 42.9712 65.9106 43.4077C66.3556 43.8443 66.599 44.4739 66.599 45.1035C66.599 45.5485 66.4731 45.9263 66.2212 46.304C65.9694 46.6818 65.5916 46.9337 65.2138 47.1267L67.1027 50.4008H65.4069L63.7699 47.4458H62.7037V50.3421H61.1254V50.3337ZM62.7037 46.2369H63.837C64.3995 46.2956 64.9032 45.9179 64.9704 45.3554V45.0364C65.0291 44.4655 64.6514 43.9702 64.1561 43.903H62.7037V46.2285V46.2369Z" fill="#999999"></path><path d="M17.8067 22.3109C17.8067 22.5628 17.8067 22.8146 17.9326 23.0665C17.9914 23.2596 18.1173 23.5114 18.1845 23.6961C18.2432 23.7633 18.2432 23.822 18.2432 23.8892C18.2432 24.0151 18.1845 24.0823 18.0502 24.141L17.4793 24.5188H17.2946C17.1687 24.5188 17.1015 24.4601 17.0427 24.3929C16.9168 24.267 16.7909 24.141 16.7237 24.0151C16.665 23.8892 16.5306 23.6961 16.4719 23.5114C15.8423 24.267 14.9608 24.7119 13.9534 24.7119C13.3237 24.7707 12.6941 24.5188 12.2576 24.0823C11.8126 23.6373 11.6279 23.0749 11.6279 22.4452C11.6279 21.7569 11.8798 21.1272 12.3835 20.6823C12.9543 20.2373 13.7015 19.9939 14.4655 19.9939C14.7845 19.9939 15.0951 19.9939 15.3469 20.0527L16.2872 20.2373V19.6077C16.346 19.104 16.22 18.6003 15.9094 18.2225C15.5316 17.9035 15.0279 17.786 14.5242 17.8448C14.2052 17.8448 13.8946 17.9035 13.584 17.9707C13.2734 18.0378 12.9543 18.1638 12.6437 18.2897C12.5178 18.3485 12.4506 18.3485 12.3247 18.4156H12.1988C12.0729 18.4156 12.0057 18.3485 12.0057 18.1638V17.7188C12.0057 17.5929 12.0057 17.5341 12.0645 17.3998C12.1232 17.3411 12.1904 17.2739 12.3163 17.2151C12.6353 17.022 13.0047 16.8961 13.3825 16.8373C13.8274 16.7114 14.264 16.6443 14.7089 16.6443C15.5232 16.5855 16.2872 16.8373 16.9084 17.3327C17.4121 17.9035 17.664 18.6507 17.5968 19.4146L17.7815 22.3109H17.8067ZM14.3479 23.5702C14.6669 23.5702 14.9188 23.5114 15.2294 23.4443C15.5484 23.3183 15.8003 23.1252 16.0521 22.8734C16.1781 22.7475 16.304 22.5544 16.3711 22.3025C16.4383 22.0507 16.4299 21.7988 16.4299 21.547V21.1692C16.1781 21.1104 15.9262 21.0433 15.6743 21.0433C15.4225 20.9845 15.1706 20.9845 14.8516 20.9845C14.4151 20.9257 13.9702 21.0433 13.5924 21.3035C13.0887 21.8072 13.0215 22.6215 13.4664 23.1924C13.7183 23.5114 14.0289 23.629 14.3479 23.5702ZM21.2067 24.5188C21.0808 24.5188 20.9548 24.5188 20.8877 24.4601C20.8289 24.4013 20.7618 24.267 20.703 24.141L18.6882 17.5257C18.6294 17.3998 18.6294 17.2739 18.6294 17.2067C18.6294 17.0808 18.6882 17.0136 18.7553 17.0136H19.6368C19.7627 17.0136 19.8887 17.0136 19.9558 17.0724C20.0146 17.1396 20.0818 17.2655 20.1489 17.3914L21.5929 22.9993L22.9193 17.3914C22.9193 17.2655 22.9781 17.1396 23.104 17.0724C23.2299 17.0136 23.3558 17.0136 23.423 17.0136H24.1114C24.2373 17.0136 24.3632 17.0136 24.4304 17.0724C24.4976 17.1396 24.5563 17.2655 24.6235 17.3914L25.9415 23.1252L27.3939 17.3914C27.3939 17.2655 27.4526 17.1396 27.5785 17.0724C27.7045 17.0136 27.7716 17.0136 27.8976 17.0136H28.7203C28.8462 17.0136 28.9134 17.0724 28.9134 17.1396V17.3243C28.9134 17.383 28.8462 17.4502 28.8462 17.5173L26.8314 24.0655C26.8314 24.1914 26.7726 24.3173 26.6383 24.3845C26.5795 24.5104 26.4536 24.5104 26.3193 24.5104H25.5637C25.4378 24.5104 25.3119 24.5104 25.2447 24.4517C25.186 24.3257 25.1188 24.2586 25.0516 24.1327L23.7336 18.6507L22.4156 24.1327C22.4156 24.2586 22.3568 24.3845 22.2225 24.4517C22.1637 24.5104 22.0378 24.5104 21.9706 24.5104H21.2151L21.2067 24.5188ZM32.1622 24.7707C31.7257 24.7707 31.2808 24.7119 30.8442 24.6448C30.5252 24.586 30.1558 24.4601 29.8368 24.3257C29.6437 24.267 29.5178 24.0739 29.5178 23.822V23.3771C29.5178 23.1924 29.5766 23.1252 29.7025 23.1252H29.8284C29.8872 23.1252 29.9543 23.184 30.0131 23.184C30.3321 23.3099 30.6427 23.4359 30.9534 23.503C31.2724 23.5618 31.6418 23.629 31.9608 23.629C32.4057 23.629 32.8423 23.5702 33.22 23.3099C33.4719 23.1252 33.665 22.8062 33.665 22.4956C33.665 22.2438 33.6062 22.0507 33.4131 21.9248C33.1613 21.7317 32.8423 21.547 32.5316 21.4798L31.2724 21.102C30.7687 20.9761 30.265 20.6655 29.8872 20.2206C29.6353 19.8428 29.4423 19.4062 29.4423 18.9613C29.4423 18.6423 29.5094 18.3317 29.6941 18.0211C29.82 17.7692 30.0719 17.5173 30.3237 17.3327C30.5756 17.148 30.8946 16.9549 31.2052 16.8961C31.583 16.7702 31.8936 16.7702 32.2714 16.7702C32.4645 16.7702 32.6492 16.7702 32.8423 16.8373C33.0353 16.8373 33.22 16.8961 33.4131 16.9633C33.6062 17.0304 33.7321 17.022 33.9168 17.0892C34.0427 17.1564 34.1687 17.1564 34.2946 17.2151C34.4205 17.2739 34.4793 17.3411 34.5464 17.3998C34.6052 17.467 34.6052 17.5929 34.6052 17.7188V18.0966C34.6052 18.2813 34.5464 18.3485 34.4121 18.3485C34.2778 18.3485 34.1603 18.2897 34.0931 18.2225C33.5894 17.9707 33.0269 17.9035 32.4561 17.9035C32.0783 17.9035 31.7005 17.9623 31.3227 18.1554C31.0709 18.2813 30.8862 18.5919 30.945 18.9109C30.945 19.1628 31.0037 19.3559 31.1968 19.5406C31.4487 19.7924 31.7677 19.9183 32.1371 19.9855L33.3376 20.3633C33.8413 20.4892 34.2778 20.7998 34.6556 21.1776C34.9074 21.4966 35.0334 21.9331 35.0334 22.3781C35.0334 22.6971 34.9746 23.0665 34.7815 23.3855C34.6556 23.7045 34.4037 23.9564 34.1519 24.141C33.9 24.3257 33.5222 24.5188 33.2116 24.6448C32.9598 24.7119 32.5232 24.7707 32.1455 24.7707H32.1622Z" fill="#999999"></path><path d="M33.7414 28.8674C30.9039 30.941 26.8742 32.0155 23.3483 32.0155C18.689 32.0155 14.1557 30.3113 10.6969 27.1632C10.4451 26.9113 10.6969 26.6007 11.0159 26.7854C14.8525 29.0521 19.2599 30.1854 23.6673 30.1854C27.0085 30.1854 30.2826 29.497 33.3636 28.2378C33.8001 28.0447 34.2451 28.5568 33.7414 28.8674ZM34.1779 30.7563C34.052 31.0081 34.3039 31.134 34.5557 30.941C36.0668 29.6817 36.4446 27.0373 36.134 26.6595C35.815 26.2817 33.1705 25.9711 31.6006 27.096C31.3488 27.2891 31.4159 27.541 31.6594 27.4738C32.5409 27.3479 34.5557 27.096 34.9335 27.5997C35.3113 28.1034 34.4885 29.9252 34.1779 30.7479V30.7563Z" fill="#999999"></path><path d="M29.3248 57.2592L28.9638 56.1679H27.2932L26.9406 57.2592H26.1431L27.7297 52.8938H28.5692L30.1559 57.2592H29.3416H29.3248ZM27.4695 55.6054H28.7875L28.1243 53.5906L27.4695 55.6054Z" fill="#999999"></path><path d="M32.8765 57.2594L32.8009 56.9571C32.5155 57.209 32.1797 57.3349 31.8103 57.3349C31.4073 57.3349 31.0883 57.1838 30.8449 56.89C30.6014 56.5878 30.4839 56.1848 30.4839 55.6727C30.4839 55.3369 30.5343 55.0431 30.6518 54.7828C30.7609 54.531 30.9204 54.3295 31.1219 54.1868C31.3234 54.044 31.5669 53.9685 31.8523 53.9685C32.1881 53.9685 32.4987 54.0776 32.7757 54.2959V52.6001H33.5145V57.2594H32.8849H32.8765ZM32.037 56.7473C32.2888 56.7473 32.5323 56.6633 32.7673 56.5038V54.7744C32.5491 54.6233 32.314 54.5478 32.0454 54.5478C31.7767 54.5478 31.5669 54.6401 31.4241 54.8248C31.2898 55.0011 31.231 55.2781 31.231 55.6391C31.231 56.3779 31.4997 56.7557 32.037 56.7557V56.7473Z" fill="#999999"></path><path d="M35.2523 57.259L34.0015 54.0521H34.799L35.6133 56.5874L36.4444 54.0521H37.2L35.9743 57.259H35.2523Z" fill="#999999"></path><path d="M39.5666 57.2594L39.5079 56.9572C39.3568 57.0831 39.1889 57.1754 39.0126 57.251C38.8363 57.3266 38.66 57.3601 38.4837 57.3601C38.1899 57.3601 37.9464 57.2678 37.7701 57.0915C37.5938 56.9152 37.5015 56.6885 37.5015 56.4031C37.5015 56.0925 37.6106 55.849 37.8373 55.6643C38.0555 55.4712 38.3578 55.3789 38.7439 55.3789C38.9622 55.3789 39.2057 55.4125 39.4743 55.4796V55.1103C39.4743 54.892 39.4323 54.7493 39.34 54.6653C39.2476 54.5814 39.0881 54.5394 38.8615 54.5394C38.5341 54.5394 38.1563 54.6066 37.7281 54.7493V54.2288C37.8876 54.1532 38.0723 54.0861 38.299 54.0441C38.5173 54.0021 38.7439 53.9769 38.979 53.9769C39.382 53.9769 39.6842 54.0609 39.8857 54.2288C40.0787 54.3967 40.1795 54.6485 40.1795 55.0095V57.2678H39.5834L39.5666 57.2594ZM38.6852 56.8229C38.8111 56.8229 38.937 56.7977 39.0713 56.7473C39.2057 56.6969 39.34 56.6214 39.4659 56.5206V55.9162C39.2476 55.8742 39.0462 55.849 38.8783 55.849C38.4417 55.849 38.215 56.0169 38.215 56.3527C38.215 56.5038 38.257 56.6214 38.341 56.7053C38.4249 56.7809 38.5425 56.8229 38.6852 56.8229Z" fill="#999999"></path><path d="M43.1772 57.2595V55.1355C43.1772 54.9341 43.1352 54.7829 43.0512 54.6906C42.9673 54.5899 42.8246 54.5479 42.6483 54.5479C42.3712 54.5479 42.0942 54.6402 41.8004 54.8249V57.2679H41.0532V54.061H41.6745L41.7416 54.4136C42.1362 54.1197 42.5559 53.9686 42.9841 53.9686C43.2947 53.9686 43.5214 54.0526 43.6809 54.2121C43.8404 54.3716 43.9159 54.5983 43.9159 54.9089V57.2595H43.1772Z" fill="#999999"></path><path d="M47.055 57.133C46.8031 57.2673 46.5093 57.3261 46.1735 57.3261C45.6782 57.3261 45.3004 57.1834 45.0318 56.9063C44.7715 56.6209 44.6372 56.218 44.6372 55.6891C44.6372 55.1602 44.7715 54.732 45.0486 54.4382C45.3256 54.136 45.7034 53.9849 46.1987 53.9849C46.4925 53.9849 46.7779 54.052 47.0382 54.1696V54.6984C46.7528 54.6145 46.5177 54.5725 46.3162 54.5725C45.9972 54.5725 45.7705 54.6565 45.6194 54.8244C45.4683 54.9923 45.3928 55.2609 45.3928 55.6219V55.6975C45.3928 56.05 45.4683 56.3187 45.6194 56.4866C45.7705 56.6545 46.0056 56.73 46.3162 56.73C46.5345 56.73 46.7863 56.6881 47.055 56.6041V57.1246V57.133Z" fill="#999999"></path><path d="M48.2475 55.8324C48.2643 56.1514 48.3482 56.3865 48.5161 56.5376C48.684 56.6803 48.9443 56.7559 49.2801 56.7559C49.5991 56.7559 49.9349 56.7055 50.2959 56.588V57.1085C50.1532 57.184 49.9769 57.2428 49.7838 57.2848C49.5907 57.3351 49.3808 57.3519 49.1709 57.3519C48.6504 57.3519 48.2475 57.2092 47.9704 56.9322C47.6934 56.6467 47.5591 56.227 47.5591 55.6729C47.5591 55.1188 47.6934 54.7159 47.962 54.4137C48.2307 54.1114 48.6001 53.9603 49.087 53.9603C49.4983 53.9603 49.809 54.0695 50.0272 54.2961C50.2455 54.5144 50.363 54.8334 50.363 55.2532C50.363 55.4714 50.3462 55.6645 50.3043 55.8324H48.2475ZM49.045 54.506C48.8183 54.506 48.6337 54.5816 48.4909 54.7327C48.3482 54.8838 48.2643 55.0853 48.2475 55.3455H49.6998V55.2951C49.6998 55.0433 49.6411 54.8418 49.5319 54.7159C49.4144 54.5816 49.2549 54.506 49.045 54.506Z" fill="#999999"></path><path d="M53.3184 57.2594L53.2428 56.9571C52.9574 57.209 52.6216 57.3349 52.2522 57.3349C51.8492 57.3349 51.5302 57.1838 51.2868 56.89C51.0433 56.5878 50.9258 56.1848 50.9258 55.6727C50.9258 55.3369 50.9761 55.0431 51.0937 54.7828C51.2028 54.531 51.3623 54.3295 51.5638 54.1868C51.7653 54.044 52.0087 53.9685 52.2942 53.9685C52.63 53.9685 52.9406 54.0776 53.2176 54.2959V52.6001H53.9564V57.2594H53.3268H53.3184ZM52.4789 56.7473C52.7307 56.7473 52.9742 56.6633 53.2092 56.5038V54.7744C52.991 54.6233 52.7559 54.5478 52.4873 54.5478C52.2186 54.5478 52.0087 54.6401 51.866 54.8248C51.7317 55.0011 51.6729 55.2781 51.6729 55.6391C51.6729 56.3779 51.9416 56.7557 52.4789 56.7557V56.7473Z" fill="#999999"></path><path d="M57.5071 57.2591V53.5233H56.1387V52.8937H59.6394V53.5233H58.271V57.2591H57.5071Z" fill="#999999"></path><path d="M60.2104 57.2589V54.052H60.9492V57.2589H60.2104ZM60.5714 53.5231C60.4371 53.5231 60.3279 53.4896 60.244 53.414C60.1684 53.3384 60.1265 53.2293 60.1265 53.095C60.1265 52.9607 60.1684 52.8515 60.244 52.776C60.3196 52.7004 60.4287 52.6584 60.5714 52.6584C60.7141 52.6584 60.8317 52.7004 60.9072 52.776C60.9828 52.8515 61.0247 52.9523 61.0247 53.095C61.0247 53.2377 60.9828 53.3301 60.9072 53.414C60.8317 53.4896 60.7141 53.5231 60.5714 53.5231Z" fill="#999999"></path><path d="M62.4013 55.8324C62.4097 56.1514 62.502 56.3865 62.6699 56.5376C62.8378 56.6803 63.0981 56.7559 63.4339 56.7559C63.7529 56.7559 64.0887 56.7055 64.4497 56.588V57.1085C64.307 57.184 64.1307 57.2428 63.9376 57.2848C63.7361 57.3351 63.5346 57.3519 63.3247 57.3519C62.8042 57.3519 62.4013 57.2092 62.1242 56.9322C61.8472 56.6467 61.7129 56.227 61.7129 55.6729C61.7129 55.1188 61.8472 54.7159 62.1159 54.4137C62.3845 54.1114 62.7539 53.9603 63.2408 53.9603C63.6438 53.9603 63.9628 54.0695 64.181 54.2961C64.3993 54.5144 64.5168 54.8334 64.5168 55.2532C64.5168 55.4714 64.5 55.6645 64.4581 55.8324H62.4013ZM63.1988 54.506C62.9721 54.506 62.7875 54.5816 62.6447 54.7327C62.502 54.8838 62.4181 55.0853 62.4013 55.3455H63.8536V55.2951C63.8536 55.0433 63.7949 54.8418 63.6857 54.7159C63.5682 54.5816 63.4087 54.506 63.1904 54.506H63.1988Z" fill="#999999"></path><path d="M65.2393 57.2597V54.0528H65.8605L65.9612 54.5313C66.1291 54.3466 66.2886 54.2207 66.4314 54.1451C66.5741 54.0696 66.7336 54.0276 66.9099 54.0276C66.9854 54.0276 67.0694 54.0276 67.1617 54.0444V54.7244C67.0442 54.7076 66.9183 54.6992 66.8007 54.6992C66.4901 54.6992 66.2215 54.7747 65.9864 54.9343V57.2597H65.2393Z" fill="#999999"></path><path d="M45.5529 61.5495C45.2003 61.4152 44.9401 61.2557 44.7722 61.071C44.6127 60.8779 44.5371 60.6512 44.5371 60.3742C44.5371 59.9796 44.6714 59.669 44.9485 59.4423C45.2255 59.2157 45.5949 59.0981 46.0566 59.0981C46.4428 59.0981 46.8374 59.1737 47.2403 59.3248V59.9377C46.829 59.8117 46.4596 59.753 46.1154 59.753C45.5613 59.753 45.2759 59.9376 45.2759 60.3154C45.2759 60.4581 45.3262 60.5757 45.427 60.668C45.5277 60.7604 45.7124 60.8527 45.9643 60.9451L46.5016 61.1381C46.8458 61.2725 47.0976 61.4236 47.2571 61.6083C47.4166 61.793 47.4922 62.028 47.4922 62.3134C47.4922 62.7332 47.3411 63.069 47.0388 63.3041C46.745 63.5475 46.3337 63.6651 45.8216 63.6651C45.5949 63.6651 45.3766 63.6399 45.1499 63.5979C44.9317 63.5559 44.7302 63.4888 44.5707 63.4132V62.8004C44.7722 62.8675 44.9904 62.9179 45.2087 62.9599C45.4354 63.0018 45.6453 63.0186 45.8216 63.0186C46.1154 63.0186 46.342 62.9683 46.5016 62.8591C46.6611 62.75 46.745 62.5905 46.745 62.3974C46.745 62.2547 46.6946 62.1372 46.5939 62.0448C46.5016 61.9525 46.3337 61.8685 46.0902 61.7678L45.5277 61.5495H45.5529Z" fill="#999999"></path><path d="M48.8022 62.1287C48.8106 62.4477 48.9029 62.6828 49.0708 62.8339C49.2387 62.9766 49.499 63.0521 49.8348 63.0521C50.1538 63.0521 50.4896 63.0018 50.8506 62.8842V63.4047C50.7078 63.4803 50.5315 63.5391 50.3385 63.581C50.1454 63.623 49.9355 63.6482 49.7256 63.6482C49.2051 63.6482 48.8022 63.5055 48.5251 63.2284C48.2481 62.943 48.1138 62.5233 48.1138 61.9692C48.1138 61.4151 48.2481 61.0121 48.5167 60.7099C48.7854 60.4077 49.1548 60.2566 49.6417 60.2566C50.0446 60.2566 50.3636 60.3657 50.5819 60.5924C50.8002 60.8107 50.9177 61.1297 50.9177 61.5494C50.9177 61.7677 50.9009 61.9608 50.859 62.1287H48.8022ZM49.5997 60.8023C49.373 60.8023 49.1883 60.8778 49.0456 61.0289C48.9029 61.18 48.819 61.3815 48.8022 61.6418H50.2545V61.5914C50.2545 61.3396 50.1957 61.1381 50.0866 61.0121C49.9691 60.8778 49.8096 60.8023 49.5913 60.8023H49.5997Z" fill="#999999"></path><path d="M51.6396 63.556V60.349H52.2609L52.3616 60.8276C52.5295 60.6429 52.689 60.5169 52.8317 60.4414C52.9745 60.3658 53.134 60.3239 53.3187 60.3239C53.3942 60.3239 53.4782 60.3238 53.5705 60.3406V61.0206C53.453 61.0039 53.3271 60.9955 53.2095 60.9955C52.8989 60.9955 52.6303 61.071 52.3952 61.2305V63.556H51.648H51.6396Z" fill="#999999"></path><path d="M54.9047 63.5553L53.6538 60.3484H54.4513L55.2657 62.8837L56.0884 60.3484H56.8439L55.6183 63.5553H54.8963H54.9047Z" fill="#999999"></path><path d="M57.3734 63.5552V60.3483H58.1122V63.5552H57.3734ZM57.7428 59.8194C57.6085 59.8194 57.4993 59.7858 57.4154 59.7103C57.3398 59.6347 57.2979 59.5256 57.2979 59.3913C57.2979 59.2569 57.3398 59.1478 57.4154 59.0722C57.4909 58.9967 57.6001 58.9547 57.7428 58.9547C57.8855 58.9547 58.003 58.9967 58.0786 59.0722C58.1541 59.1478 58.1961 59.2485 58.1961 59.3913C58.1961 59.534 58.1541 59.6263 58.0786 59.7103C58.003 59.7858 57.8855 59.8194 57.7428 59.8194Z" fill="#999999"></path><path d="M61.3021 63.4293C61.0502 63.5636 60.7564 63.6224 60.4206 63.6224C59.9253 63.6224 59.5475 63.4796 59.2788 63.2026C59.0186 62.9172 58.8843 62.5142 58.8843 61.9853C58.8843 61.4564 59.0186 61.0283 59.2956 60.7345C59.5727 60.4322 59.9588 60.2811 60.4458 60.2811C60.7396 60.2811 61.025 60.3483 61.2853 60.4658V60.9947C60.9998 60.9108 60.7648 60.8688 60.5633 60.8688C60.2443 60.8688 60.0176 60.9527 59.8665 61.1206C59.7154 61.2885 59.6398 61.5572 59.6398 61.9182V61.9937C59.6398 62.3463 59.7154 62.615 59.8665 62.7829C60.0176 62.9508 60.2527 63.0263 60.5633 63.0263C60.7816 63.0263 61.0334 62.9843 61.3021 62.9004V63.4209V63.4293Z" fill="#999999"></path><path d="M62.4853 62.1287C62.5021 62.4477 62.586 62.6828 62.7539 62.8339C62.9218 62.9766 63.1821 63.0521 63.5179 63.0521C63.8369 63.0521 64.1727 63.0018 64.5337 62.8842V63.4047C64.391 63.4803 64.2147 63.5391 64.0216 63.581C63.8285 63.623 63.6186 63.6482 63.4087 63.6482C62.8798 63.6482 62.4853 63.5055 62.2082 63.2284C61.9312 62.943 61.7969 62.5233 61.7969 61.9692C61.7969 61.4151 61.9312 61.0121 62.1998 60.7099C62.4685 60.4077 62.8463 60.2566 63.3248 60.2566C63.7361 60.2566 64.0468 60.3657 64.265 60.5924C64.4833 60.8107 64.6008 61.1297 64.6008 61.5494C64.6008 61.7677 64.584 61.9608 64.5421 62.1287H62.4853ZM63.2828 60.8023C63.0645 60.8023 62.8714 60.8778 62.7287 61.0289C62.586 61.18 62.5021 61.3815 62.4853 61.6418H63.946V61.5914C63.946 61.3396 63.8872 61.1381 63.7781 61.0121C63.6606 60.8778 63.5011 60.8023 63.2828 60.8023Z" fill="#999999"></path><path d="M66.7668 62.6909C66.7668 62.5985 66.7332 62.5229 66.6745 62.4642C66.6157 62.4054 66.5066 62.3467 66.3471 62.2879L65.8266 62.0948C65.3564 61.9101 65.1214 61.6163 65.1214 61.2133C65.1214 60.9195 65.2305 60.6928 65.4488 60.5249C65.6754 60.357 65.9609 60.2731 66.3219 60.2731C66.6829 60.2731 66.9935 60.3402 67.2621 60.4746V60.995C66.9431 60.8943 66.6409 60.8355 66.3638 60.8355C66.1708 60.8355 66.0364 60.8607 65.9441 60.9279C65.8517 60.9867 65.8098 61.0706 65.8098 61.1965C65.8098 61.2889 65.8434 61.3644 65.9105 61.4232C65.9693 61.4736 66.0868 61.5407 66.2547 61.6079L66.75 61.7926C67.0019 61.8933 67.1782 62.0109 67.2873 62.1452C67.3964 62.2795 67.4552 62.4474 67.4552 62.6489C67.4552 62.9679 67.3377 63.2197 67.111 63.396C66.8843 63.5807 66.5737 63.6731 66.1708 63.6731C65.9777 63.6731 65.7846 63.6479 65.5915 63.6059C65.4068 63.5639 65.2473 63.5052 65.0962 63.4296V62.9091C65.4992 63.0434 65.8517 63.1022 66.1708 63.1022C66.3806 63.1022 66.5317 63.0686 66.6241 63.0015C66.7248 62.9427 66.7752 62.842 66.7752 62.7076L66.7668 62.6909Z" fill="#999999"></path></g><defs><clipPath id="clip0_61529_2126"><rect width="76" height="85" fill="white" transform="translate(0.913086)"></rect></clipPath></defs></svg>