<svg xmlns="http://www.w3.org/2000/svg" width="95" height="85" viewBox="0 0 95 85" fill="none"><g clip-path="url(#clip0_61529_2371)"><path d="M0.913086 66.5308L1.72408 65.862C2.36502 66.698 3.12369 67.1482 4.18322 67.1482C5.49127 67.1482 6.19762 66.4794 6.19762 65.4504C6.19762 64.6016 5.71364 64.1771 4.51023 63.907L3.76464 63.7398C2.10341 63.3668 1.18778 62.6466 1.18778 61.2704C1.18778 59.6756 2.41735 58.8138 4.20938 58.8138C5.58283 58.8138 6.55079 59.3283 7.23098 60.2801L6.4069 60.8717C5.90984 60.19 5.21658 59.7656 4.15705 59.7656C2.99289 59.7656 2.27346 60.2672 2.27346 61.2318C2.27346 62.0807 2.83592 62.4665 3.98701 62.7238L4.7326 62.891C6.51155 63.2897 7.2833 64.0614 7.2833 65.399C7.2833 67.0453 6.10605 68.0999 4.14397 68.0999C2.67896 68.0999 1.6456 67.5083 0.913086 66.5308ZM8.95761 59.174V59.0068C8.95761 58.6595 9.15381 58.428 9.59855 58.428C10.0433 58.428 10.2395 58.6595 10.2395 59.0068V59.174C10.2395 59.5212 10.0433 59.7527 9.59855 59.7527C9.15381 59.7527 8.95761 59.5212 8.95761 59.174ZM9.07533 61.309H10.1218V67.9456H9.07533V61.309ZM13.4573 67.9456C12.7379 67.9456 12.3455 67.4954 12.3455 66.8781V58.428H13.3919V67.0453H14.386V67.9456H13.4573ZM17.2637 67.9456L14.8962 61.309H15.9426L17.1198 64.6016L17.8524 66.8652H17.9178L18.6503 64.6016L19.8537 61.309H20.8609L18.4802 67.9456H17.2637ZM21.6065 64.6273C21.6065 62.518 22.8099 61.1546 24.6411 61.1546C26.4724 61.1546 27.5581 62.518 27.5581 64.3958V64.8845H22.7052V65.1932C22.7052 66.3379 23.4508 67.1996 24.7066 67.1996C25.5568 67.1996 26.2108 66.788 26.564 66.0549L27.3096 66.5823C26.8779 67.4826 25.91 68.0999 24.6411 68.0999C22.8099 68.0999 21.6065 66.7366 21.6065 64.6273ZM22.7052 64.0228V64.1128H26.4332V63.9713C26.4332 62.8009 25.7137 62.0164 24.6411 62.0164C23.5031 62.0164 22.7052 62.8652 22.7052 64.0228ZM29.2847 67.9456V61.309H30.3312V62.5308H30.3966C30.632 61.9006 31.2468 61.309 32.3456 61.309H32.7511V62.3379H32.1363C31.0114 62.3379 30.3312 62.8138 30.3312 63.444V67.9456H29.2847ZM36.7537 67.9456V58.9682H40.3901C42.0252 58.9682 42.9408 59.9585 42.9408 61.5405C42.9408 63.1225 42.0252 64.1128 40.3901 64.1128H37.8525V67.9456H36.7537ZM37.8525 63.1611H40.3901C41.2534 63.1611 41.7635 62.698 41.7635 61.8749V61.2061C41.7635 60.3829 41.2534 59.9199 40.3901 59.9199H37.8525V63.1611ZM49.3502 67.9456C48.5785 67.9456 48.2646 67.4826 48.1861 66.8652H48.1207C47.8329 67.6755 47.1135 68.0999 46.1717 68.0999C44.7459 68.0999 43.9088 67.3282 43.9088 66.0935C43.9088 64.8588 44.8244 64.1514 46.7865 64.1514H48.1207V63.4955C48.1207 62.5566 47.5975 62.0421 46.5249 62.0421C45.7139 62.0421 45.1776 62.4279 44.8113 63.0324L44.1834 62.4537C44.5497 61.7463 45.3607 61.1546 46.5772 61.1546C48.1992 61.1546 49.1671 61.9907 49.1671 63.3926V67.0453H49.9389V67.9456H49.3502ZM48.1207 66.0163V64.9231H46.7341C45.5438 64.9231 45.0075 65.2832 45.0075 65.9263V66.1964C45.0075 66.8523 45.5307 67.2253 46.3417 67.2253C47.3751 67.2253 48.1207 66.698 48.1207 66.0163ZM51.43 67.9456V61.309H52.4765V62.5308H52.5419C52.7773 61.9006 53.3921 61.309 54.4909 61.309H54.8964V62.3379H54.2816C53.1567 62.3379 52.4765 62.8138 52.4765 63.444V67.9456H51.43ZM57.7741 67.9456C57.0547 67.9456 56.6623 67.4954 56.6623 66.8523V62.2093H55.5504V61.309H56.1783C56.623 61.309 56.7669 61.1546 56.7669 60.7045V59.4698H57.7087V61.309H59.1868V62.2093H57.7087V67.0453H59.0822V67.9456H57.7741ZM60.8742 67.9456V61.309H61.9206V62.3894H61.9729C62.3 61.6434 62.8755 61.1546 63.8827 61.1546C65.2692 61.1546 66.1456 62.0807 66.1456 63.6884V67.9456H65.0992V63.8684C65.0992 62.6852 64.576 62.0807 63.5688 62.0807C62.7316 62.0807 61.9206 62.4923 61.9206 63.3411V67.9456H60.8742ZM67.8069 64.6273C67.8069 62.518 69.0103 61.1546 70.8415 61.1546C72.6728 61.1546 73.7585 62.518 73.7585 64.3958V64.8845H68.9056V65.1932C68.9056 66.3379 69.6512 67.1996 70.9069 67.1996C71.7572 67.1996 72.4112 66.788 72.7644 66.0549L73.51 66.5823C73.0783 67.4826 72.1104 68.0999 70.8415 68.0999C69.0103 68.0999 67.8069 66.7366 67.8069 64.6273ZM68.9056 64.0228V64.1128H72.6336V63.9713C72.6336 62.8009 71.9141 62.0164 70.8415 62.0164C69.7035 62.0164 68.9056 62.8652 68.9056 64.0228ZM75.4851 67.9456V61.309H76.5316V62.5308H76.597C76.8324 61.9006 77.4472 61.309 78.546 61.309H78.9515V62.3379H78.3367C77.2118 62.3379 76.5316 62.8138 76.5316 63.444V67.9456H75.4851Z" fill="#999999"></path><path d="M89.8279 48.7947C89.8279 47.7422 90.6433 46.9405 91.6592 46.9405C92.6751 46.9405 93.4904 47.7422 93.4904 48.7947C93.4904 49.8472 92.6751 50.6489 91.6592 50.6489C90.6433 50.6489 89.8279 49.8472 89.8279 48.7947ZM93.061 48.9126V48.679C93.061 47.9223 92.4571 47.3285 91.6592 47.3285C90.8613 47.3285 90.2574 47.9223 90.2574 48.679V48.9126C90.2574 49.6693 90.8613 50.2631 91.6592 50.2631C92.4571 50.2631 93.061 49.6693 93.061 48.9126ZM91.3845 49.7508H90.9179V47.8687H91.7878C92.2173 47.8687 92.4375 48.1216 92.4375 48.4625C92.4375 48.7604 92.3001 48.9491 92.0887 49.0305L92.5181 49.7508H92.0058L91.6483 49.1034H91.3823V49.7508H91.3845ZM91.7333 48.7604C91.8794 48.7604 91.9622 48.6983 91.9622 48.5632V48.4282C91.9622 48.2931 91.8794 48.231 91.7333 48.231H91.3845V48.7626H91.7333V48.7604ZM0.913086 48.411H17.6997V50.5546H0.913086V48.411ZM0.913086 46.053H17.6997V43.9094H0.913086V46.053ZM5.70928 41.5515H12.9036V39.4079H5.70928V41.5515ZM5.70928 37.0499H12.9036V34.9063H5.70928V37.0499ZM5.70928 32.5483H12.9036V30.4047H5.70928V32.5483ZM12.9036 25.9032H5.70928V28.0468H12.9036V25.9032ZM0.913086 23.5452H17.6997V21.4016H0.913086V23.5452ZM0.913086 19.0436H17.6997V16.9H0.913086V19.0436ZM20.0978 50.5546H37.7565C40.0173 50.5546 42.0862 49.7465 43.6842 48.411H20.0978V50.5546ZM20.0978 46.053H45.6855C46.0779 45.3885 46.3853 44.6683 46.5946 43.9094H20.0978V46.053ZM24.894 41.5515H32.0883V39.4079H24.894V41.5515ZM24.894 30.4047V32.5483H43.924C44.6151 31.9267 45.2103 31.2064 45.6833 30.4047H24.894ZM46.5946 23.5452C46.3853 22.7864 46.0779 22.0661 45.6855 21.4016H20.0978V23.5452H46.5946ZM24.894 28.0468H32.0883V25.9032H24.894V28.0468ZM38.8466 28.0468H46.6469C46.817 27.3587 46.9129 26.6427 46.9129 25.9032H38.8466V28.0468ZM38.8466 39.4079V41.5515H46.9129C46.9129 40.8119 46.817 40.096 46.6469 39.4079H38.8466ZM43.924 34.9063H24.894V37.0499H45.6833C45.2103 36.2482 44.6151 35.528 43.924 34.9063ZM43.6842 19.0436C42.0862 17.7082 40.0173 16.9 37.7565 16.9H20.0978V19.0436H43.6842ZM48.875 50.5546H60.8655V48.411H48.875V50.5546ZM48.875 46.053H60.8655V43.9094H48.875V46.053ZM53.6712 41.5515H60.8655V39.4079H53.6712V41.5515ZM53.6712 37.0499H60.8655V34.9063H53.6712V37.0499ZM75.254 50.5546H87.2445V48.411H75.254V50.5546ZM75.254 46.053H87.2445V43.9094H75.254V46.053ZM75.254 41.5515H82.4483V39.4079H75.254V41.5515ZM82.4483 34.9063H75.254V37.0499H82.4483V34.9063ZM75.254 32.5483H82.4483V30.4047H68.9623L68.2058 32.5483H74.5193L75.2518 30.5076V32.5483H75.254ZM82.4483 25.9032H70.5516L69.7951 28.0468H82.4483V25.9032ZM73.728 16.9L72.9715 19.0436H87.2445V16.9H73.728ZM68.0597 50.5546L68.825 48.411H67.2945L68.0597 50.5546ZM66.4487 46.053H69.673L70.4426 43.9094H65.6791L66.4487 46.053ZM64.8332 41.5515H71.2906L72.0602 39.4079H64.0636L64.8332 41.5515ZM63.2178 37.0499H72.9082L73.6778 34.9063H62.4482L63.2178 37.0499ZM53.6734 28.0468H66.3266L65.5701 25.9032H53.6734V28.0468ZM71.3866 23.5452H87.2467V21.4016H72.1409L71.3844 23.5452H71.3866ZM63.983 21.4016H48.8772V23.5452H64.7373L63.9808 21.4016H63.983ZM62.3937 16.9H48.8772V19.0436H63.1502L62.3937 16.9ZM67.9159 32.5483L67.1594 30.4047H53.6734V32.5483H60.8676V30.5141L61.6001 32.5483H67.9137H67.9159Z" fill="#999999"></path></g><defs><clipPath id="clip0_61529_2371"><rect width="94" height="85" fill="white" transform="translate(0.413086)"></rect></clipPath></defs></svg>