<svg width="96" height="96" viewBox="0 0 96 96" fill="none" xmlns="http://www.w3.org/2000/svg">
<g clip-path="url(#clip0_60827_214190)">
<mask id="mask0_60827_214190" style="mask-type:luminance" maskUnits="userSpaceOnUse" x="0" y="0" width="96" height="96">
<path d="M96 0H0V96H96V0Z" fill="white"/>
</mask>
<g mask="url(#mask0_60827_214190)">
<path d="M47.9994 93.4862C73.1208 93.4862 93.4857 73.1214 93.4857 48C93.4857 22.8787 73.1208 2.51379 47.9994 2.51379C22.8781 2.51379 2.51321 22.8787 2.51321 48C2.51321 73.1214 22.8781 93.4862 47.9994 93.4862Z" stroke="#999999" stroke-width="0.161921" stroke-miterlimit="22.93"/>
<path d="M47.9994 94.8676C73.884 94.8676 94.8677 73.884 94.8677 47.9994C94.8677 22.1147 73.884 1.1311 47.9994 1.1311C22.1148 1.1311 1.13116 22.1147 1.13116 47.9994C1.13116 73.884 22.1148 94.8676 47.9994 94.8676Z" stroke="#999999" stroke-width="0.228058" stroke-miterlimit="22.93"/>
<path d="M48.4683 84.9945C69.2544 84.9945 86.1048 68.1441 86.1048 47.358C86.1048 26.572 69.2544 9.72156 48.4683 9.72156C27.6823 9.72156 10.8318 26.572 10.8318 47.358C10.8318 68.1441 27.6823 84.9945 48.4683 84.9945Z" stroke="#999999" stroke-width="0.161921" stroke-miterlimit="22.93"/>
<path d="M26.5144 27.2699V19.2878H28.088V27.2699H26.5144Z" fill="#999999"/>
<path d="M32.2957 27.4301C31.5123 27.4301 30.851 27.2556 30.3116 26.9056C29.7723 26.5555 29.388 26.0732 29.1599 25.4574L30.5055 24.6706C30.8168 25.4836 31.4291 25.8907 32.3413 25.8907C32.7667 25.8907 33.0859 25.8143 33.2992 25.6627C33.5124 25.511 33.6185 25.3057 33.6185 25.0469C33.6185 24.7652 33.493 24.5486 33.2422 24.3969C32.9913 24.2373 32.5432 24.0662 31.8966 23.8838C31.1976 23.6706 30.6457 23.4243 30.2432 23.1426C29.7415 22.7697 29.4906 22.2224 29.4906 21.5006C29.4906 20.7788 29.7449 20.1972 30.2546 19.7787C30.7643 19.3454 31.3835 19.1288 32.1133 19.1288C32.7518 19.1288 33.3186 19.285 33.8123 19.5963C34.3061 19.9076 34.6903 20.3489 34.964 20.919L33.6413 21.683C33.322 20.9989 32.8123 20.6568 32.1133 20.6568C31.794 20.6568 31.5397 20.7309 31.3493 20.8791C31.1589 21.0274 31.0642 21.2189 31.0642 21.455C31.0642 21.7058 31.1668 21.9111 31.3721 22.0707C31.6002 22.2304 32.0027 22.398 32.5808 22.5725L33.1281 22.7549C33.2273 22.7857 33.3984 22.8496 33.6413 22.9488C33.8693 23.032 34.037 23.1118 34.143 23.1882C34.5159 23.4163 34.7667 23.6523 34.8956 23.8952C35.0929 24.2145 35.1921 24.5908 35.1921 25.0241C35.1921 25.7619 34.9218 26.3468 34.3825 26.7801C33.8431 27.2135 33.1475 27.4301 32.2957 27.4301Z" fill="#999999"/>
<path d="M42.9344 26.2328C42.1282 27.031 41.1476 27.4301 39.9925 27.4301C38.8374 27.4301 37.8567 27.031 37.0505 26.2328C36.2523 25.4198 35.8532 24.4346 35.8532 23.2794C35.8532 22.1243 36.2523 21.1357 37.0505 20.3375C37.8487 19.5393 38.8374 19.1288 39.9925 19.1288C41.1476 19.1288 42.1282 19.5313 42.9344 20.3375C43.7406 21.1357 44.1431 22.1163 44.1431 23.2794C44.1431 24.4425 43.7406 25.4266 42.9344 26.2328ZM38.1566 25.1609C38.6435 25.6478 39.2547 25.8907 39.9925 25.8907C40.7302 25.8907 41.3414 25.6478 41.8283 25.1609C42.3221 24.6672 42.5695 24.04 42.5695 23.2794C42.5695 22.5189 42.3221 21.8917 41.8283 21.398C41.3346 20.9042 40.7223 20.6568 39.9925 20.6568C39.2627 20.6568 38.6503 20.9042 38.1566 21.398C37.6629 21.8917 37.4154 22.5189 37.4154 23.2794C37.4154 24.04 37.6629 24.6672 38.1566 25.1609Z" fill="#999999"/>
<path d="M53.4014 21.8997C53.4014 22.5155 53.2417 23.0548 52.9224 23.5189H52.9338L50.448 27.2705H48.6463L50.4252 24.6706C49.5962 24.6626 48.92 24.4004 48.3955 23.8838C47.8789 23.3672 47.6201 22.7059 47.6201 21.8997C47.6201 21.0935 47.8858 20.4139 48.4183 19.9042C48.9576 19.3876 49.6532 19.1288 50.505 19.1288C51.3568 19.1288 52.0524 19.3876 52.5918 19.9042C53.1311 20.4207 53.4014 21.0867 53.4014 21.8997ZM49.1823 21.8997C49.1823 22.2874 49.3077 22.601 49.5586 22.8404C49.8094 23.0799 50.1253 23.1996 50.505 23.1996C50.8847 23.1996 51.2211 23.0799 51.4686 22.8404C51.716 22.601 51.8392 22.2874 51.8392 21.8997C51.8392 21.512 51.716 21.2007 51.4686 20.9647C51.2211 20.7286 50.9007 20.6112 50.505 20.6112C50.1093 20.6112 49.8094 20.7309 49.5586 20.9704C49.3077 21.2098 49.1823 21.52 49.1823 21.8997Z" fill="#999999"/>
<path d="M57.2553 27.43C56.2598 27.43 55.4765 27.0537 54.9063 26.3011C54.3442 25.5337 54.0625 24.5257 54.0625 23.2793C54.0625 22.033 54.3442 21.0295 54.9063 20.269C55.4765 19.5084 56.2598 19.1287 57.2553 19.1287C58.2508 19.1287 59.049 19.5084 59.6043 20.269C60.1665 21.0295 60.4481 22.033 60.4481 23.2793C60.4481 24.5257 60.1665 25.5337 59.6043 26.3011C59.049 27.0537 58.2668 27.43 57.2553 27.43ZM58.8859 23.2793C58.8859 22.4275 58.7468 21.7776 58.4697 21.3294C58.1926 20.8813 57.7878 20.6567 57.2553 20.6567C56.7228 20.6567 56.3203 20.8813 56.0466 21.3294C55.7729 21.7776 55.6361 22.4275 55.6361 23.2793C55.6361 24.1311 55.7729 24.7788 56.0466 25.2235C56.3203 25.6682 56.7228 25.8906 57.2553 25.8906C57.7878 25.8906 58.1926 25.666 58.4697 25.2178C58.7468 24.7697 58.8859 24.1231 58.8859 23.2793Z" fill="#999999"/>
<path d="M64.4404 27.43C63.4449 27.43 62.6616 27.0537 62.0914 26.3011C61.5293 25.5337 61.2476 24.5257 61.2476 23.2793C61.2476 22.033 61.5293 21.0295 62.0914 20.269C62.6616 19.5084 63.4449 19.1287 64.4404 19.1287C65.4359 19.1287 66.2341 19.5084 66.7894 20.269C67.3516 21.0295 67.6332 22.033 67.6332 23.2793C67.6332 24.5257 67.3516 25.5337 66.7894 26.3011C66.2341 27.0537 65.4519 27.43 64.4404 27.43ZM66.071 23.2793C66.071 22.4275 65.9319 21.7776 65.6548 21.3294C65.3777 20.8813 64.9729 20.6567 64.4404 20.6567C63.9079 20.6567 63.5054 20.8813 63.2317 21.3294C62.958 21.7776 62.8212 22.4275 62.8212 23.2793C62.8212 24.1311 62.958 24.7788 63.2317 25.2235C63.5054 25.6682 63.9079 25.8906 64.4404 25.8906C64.9729 25.8906 65.3777 25.666 65.6548 25.2178C65.9319 24.7697 66.071 24.1231 66.071 23.2793Z" fill="#999999"/>
<path d="M68.1575 20.029L70.2556 19.2878H71.624V27.2699H70.0504V20.9527L68.5452 21.3746L68.1575 20.029Z" fill="#999999"/>
<path d="M24.9365 70.4873C23.6777 70.4873 22.632 70.0665 21.7985 69.225C20.9729 68.3914 20.5601 67.3537 20.5601 66.1108C20.5601 64.8679 20.9729 63.8222 21.7985 62.9967C22.632 62.1551 23.6788 61.7344 24.9365 61.7344C25.6982 61.7344 26.4018 61.9134 27.0472 62.2692C27.6926 62.6261 28.1955 63.1096 28.5558 63.7185L27.1248 64.5486C26.9161 64.1723 26.6196 63.877 26.2353 63.6649C25.851 63.4528 25.4177 63.3467 24.9365 63.3467C24.1189 63.3467 23.4576 63.6033 22.9524 64.1164C22.4553 64.6376 22.2067 65.3035 22.2067 66.112C22.2067 66.9204 22.4553 67.5749 22.9524 68.0961C23.4576 68.6092 24.1189 68.8658 24.9365 68.8658C25.4177 68.8658 25.8522 68.7597 26.241 68.5476C26.6299 68.3355 26.9241 68.0447 27.1248 67.6753L28.5558 68.5054C28.1955 69.1143 27.6915 69.5978 27.0472 69.9547C26.4018 70.3116 25.6982 70.4895 24.9365 70.4895V70.4873Z" fill="#999999"/>
<path d="M31.3335 66.8441V68.7324H34.8809V70.3197H29.6744V61.9021H34.8205V63.4894H31.3335V65.2808H34.5206V66.8441H31.3335Z" fill="#999999"/>
<path d="M42.4565 70.3197H40.6652L38.9695 67.3983H37.7072V70.3197H36.0481V61.9021H39.4154C40.1931 61.9021 40.8544 62.1746 41.3995 62.7197C41.9446 63.2648 42.2171 63.9216 42.2171 64.6913C42.2171 65.2124 42.0688 65.6959 41.7724 66.1406C41.4759 66.5853 41.0825 66.9205 40.5945 67.1452L42.4588 70.3197H42.4565ZM39.4143 63.454H37.7072V65.9433H39.4143C39.7267 65.9433 39.9958 65.8213 40.2204 65.5761C40.4451 65.3321 40.5568 65.0368 40.5568 64.6924C40.5568 64.348 40.4439 64.055 40.2204 63.8144C39.9958 63.5738 39.7278 63.454 39.4143 63.454Z" fill="#999999"/>
<path d="M42.8043 61.9021H48.9972V63.4894H46.7246V70.3197H45.0655V63.4894H42.8043V61.9021Z" fill="#999999"/>
<path d="M49.9231 70.3197V61.9021H51.5822V70.3197H49.9231Z" fill="#999999"/>
<path d="M58.1715 61.902V63.4893H54.8043V65.4848H58.0746V67.0721H54.8043V70.3185H53.1451V61.9009H58.1715V61.902Z" fill="#999999"/>
<path d="M59.3857 70.3197V61.9021H61.0448V70.3197H59.3857Z" fill="#999999"/>
<path d="M64.2697 66.8441V68.7324H67.8171V70.3197H62.6106V61.9021H67.7567V63.4894H64.2697V65.2808H67.4568V66.8441H64.2697Z" fill="#999999"/>
<path d="M68.982 61.9021H72.3253C73.4793 61.9021 74.4417 62.3069 75.2114 63.1165C75.9891 63.9181 76.3779 64.9159 76.3779 66.1109C76.3779 67.3059 75.9891 68.3037 75.2114 69.1053C74.4417 69.9149 73.4793 70.3197 72.3253 70.3197H68.982V61.9021ZM70.6411 68.7324H72.3242C73.054 68.7324 73.6469 68.4918 74.1042 68.0106C74.5614 67.5135 74.7895 66.8806 74.7895 66.1109C74.7895 65.3412 74.5614 64.7038 74.1042 64.2226C73.6469 63.7334 73.054 63.4894 72.3242 63.4894H70.6411V68.7324Z" fill="#999999"/>
<path d="M36.8968 75.0774C36.8968 75.529 36.7532 75.9224 36.4658 76.2599L36.8261 76.635L36.3347 77.0706L35.9538 76.6749C35.6836 76.8255 35.3894 76.9007 35.0724 76.9007C34.5718 76.9007 34.1419 76.7251 33.785 76.375C33.4315 76.0216 33.2536 75.5882 33.2536 75.0774C33.2536 74.5665 33.4303 74.1355 33.785 73.7843C34.1385 73.4308 34.5684 73.2529 35.0724 73.2529C35.5764 73.2529 36.0063 73.4297 36.3598 73.7843C36.7167 74.1355 36.8957 74.5654 36.8957 75.0774H36.8968ZM35.0735 76.2245C35.2069 76.2245 35.3369 76.2029 35.4646 76.1595L34.8888 75.5586L35.3802 75.123L35.996 75.7638C36.1363 75.5632 36.207 75.3351 36.207 75.0774C36.207 74.7433 36.0986 74.4685 35.8808 74.2507C35.6642 74.034 35.3951 73.9246 35.0746 73.9246C34.7542 73.9246 34.4851 74.0329 34.2685 74.2507C34.0518 74.4685 33.9423 74.7433 33.9423 75.0774C33.9423 75.4115 34.0507 75.6817 34.2685 75.8995C34.4851 76.1162 34.7542 76.2257 35.0746 76.2257L35.0735 76.2245Z" fill="#999999"/>
<path d="M40.1295 73.3237H40.841V76.8312H40.1546V74.5563L39.1671 76.1846H39.0872L38.0997 74.5609V76.83H37.4087V73.3225H38.1203L39.1271 74.9805L40.1295 73.3225V73.3237Z" fill="#999999"/>
<path d="M42.6899 76.8996C42.3455 76.8996 42.0548 76.8232 41.8176 76.6692C41.5804 76.5153 41.4116 76.3032 41.3113 76.033L41.902 75.6875C42.0388 76.0444 42.3079 76.2234 42.7082 76.2234C42.8952 76.2234 43.0354 76.1903 43.1289 76.123C43.2224 76.0558 43.2692 75.9657 43.2692 75.8528C43.2692 75.7296 43.2144 75.6339 43.1038 75.5677C42.9932 75.497 42.796 75.4229 42.5132 75.3419C42.2053 75.2484 41.9635 75.1401 41.7868 75.0158C41.5667 74.8528 41.4561 74.6122 41.4561 74.294C41.4561 73.9759 41.5679 73.7216 41.7914 73.538C42.0149 73.3476 42.2874 73.2529 42.6078 73.2529C42.8883 73.2529 43.1369 73.3214 43.3547 73.4582C43.5714 73.595 43.7401 73.7889 43.861 74.0397L43.2794 74.375C43.1392 74.0739 42.9157 73.9246 42.6078 73.9246C42.4675 73.9246 42.3558 73.9576 42.2726 74.0226C42.1893 74.0876 42.1471 74.172 42.1471 74.2758C42.1471 74.3864 42.1927 74.4765 42.2828 74.546C42.3832 74.6167 42.5599 74.6897 42.8142 74.7661L43.0548 74.8459C43.0981 74.8596 43.1734 74.8881 43.2806 74.9314C43.3809 74.9679 43.4539 75.0033 43.5007 75.0363C43.6649 75.1367 43.7743 75.2405 43.8313 75.3465C43.918 75.4868 43.9613 75.6521 43.9613 75.8425C43.9613 76.1664 43.8427 76.4241 43.6056 76.6145C43.3684 76.8049 43.0628 76.8996 42.6888 76.8996H42.6899Z" fill="#999999"/>
<path d="M46.2903 75.6276H44.4111V75.0061H46.2903V75.6276Z" fill="#999999"/>
<path d="M48.1958 76.8996C47.758 76.8996 47.4147 76.7342 47.1639 76.4036C46.9164 76.066 46.7933 75.6236 46.7933 75.0763C46.7933 74.5289 46.9164 74.0876 47.1639 73.7535C47.4147 73.4194 47.758 73.2529 48.1958 73.2529C48.6337 73.2529 48.9838 73.4194 49.2278 73.7535C49.4752 74.0876 49.5984 74.5289 49.5984 75.0763C49.5984 75.6236 49.4752 76.0672 49.2278 76.4036C48.9838 76.7342 48.6394 76.8996 48.1958 76.8996ZM48.9119 75.0763C48.9119 74.7022 48.8504 74.4172 48.7295 74.2199C48.6075 74.0226 48.4296 73.9246 48.1958 73.9246C47.9621 73.9246 47.7853 74.0226 47.6645 74.2199C47.5447 74.4172 47.4843 74.7022 47.4843 75.0763C47.4843 75.4503 47.5447 75.7353 47.6645 75.9303C47.7842 76.1253 47.9621 76.2234 48.1958 76.2234C48.4296 76.2234 48.6075 76.1253 48.7295 75.9281C48.8515 75.7308 48.9119 75.4469 48.9119 75.0763Z" fill="#999999"/>
<path d="M49.838 73.9851V73.3237H52.1026V73.9098L50.9156 76.8313H50.1835L51.3363 73.9851H49.838Z" fill="#999999"/>
<path d="M54.6539 73.8942L53.9971 74.746C54.2411 74.8167 54.435 74.9399 54.5809 75.1166C54.7258 75.2933 54.7987 75.5043 54.7987 75.7483C54.7987 76.1086 54.6767 76.3914 54.4327 76.5956C54.1955 76.7997 53.9002 76.9012 53.5456 76.9012C53.2685 76.9012 53.0233 76.8373 52.8089 76.7084C52.5945 76.5796 52.4395 76.3971 52.3425 76.16L52.9332 75.819C53.0165 76.0893 53.2206 76.225 53.5444 76.225C53.7212 76.225 53.8591 76.1828 53.9572 76.0972C54.0553 76.0117 54.1054 75.8966 54.1054 75.7495C54.1054 75.6024 54.0564 75.4906 53.9572 75.404C53.858 75.3173 53.7212 75.274 53.5444 75.274H53.3939L53.1282 74.8737L53.8192 73.9717H52.4463V73.3252H54.6505V73.8965L54.6539 73.8942Z" fill="#999999"/>
<path d="M57.6137 74.4712C57.6137 74.7415 57.543 74.9787 57.4027 75.1828H57.4073L56.3149 76.8317H55.5235L56.3046 75.6891C55.9409 75.6857 55.6432 75.5705 55.4129 75.3436C55.186 75.1166 55.072 74.8259 55.072 74.4712C55.072 74.1166 55.1883 73.8179 55.4232 73.5944C55.6603 73.3674 55.9659 73.2534 56.34 73.2534C56.714 73.2534 57.0196 73.3674 57.2568 73.5944C57.4939 73.8213 57.6125 74.1143 57.6125 74.4712H57.6137ZM55.7596 74.4712C55.7596 74.6412 55.8143 74.7791 55.9249 74.884C56.0355 74.9889 56.1735 75.0414 56.3411 75.0414C56.5087 75.0414 56.6558 74.9889 56.7642 74.884C56.8725 74.7791 56.9272 74.6412 56.9272 74.4712C56.9272 74.3013 56.8725 74.1645 56.7642 74.0607C56.6558 73.957 56.5144 73.9057 56.3411 73.9057C56.1678 73.9057 56.0355 73.9581 55.9249 74.063C55.8143 74.1679 55.7596 74.3048 55.7596 74.4712Z" fill="#999999"/>
<path d="M60.1852 72.8228L58.1806 77.3315H57.8955L59.9002 72.8228H60.1852Z" fill="#999999"/>
<path d="M63.6812 76.8308H62.9298L62.7188 76.1991H61.3208L61.1099 76.8308H60.363L61.5899 73.3232H62.4463L63.6789 76.8308H63.6812ZM62.0232 74.1203L61.542 75.5537H62.5044L62.0232 74.1203Z" fill="#999999"/>
<path d="M53.0121 6.59562L53.239 3.60919L54.2037 3.68217L53.8308 8.57858L53.0965 8.52271L51.2264 5.3698L50.9983 8.36307L50.0337 8.29009L50.4065 3.39368L51.1409 3.44955L53.0121 6.59562Z" fill="#999999"/>
<path d="M49.4662 8.24164L48.4217 8.27014L47.3864 6.59278L46.6497 6.6133L46.6965 8.3169L45.7284 8.34312L45.595 3.43531L47.5585 3.38172C48.0124 3.36917 48.4024 3.51741 48.7285 3.82757C49.0546 4.13659 49.2245 4.51631 49.2359 4.96444C49.2439 5.2689 49.1652 5.55283 48.9987 5.81624C48.8322 6.08079 48.6087 6.28148 48.3282 6.42059L49.4651 8.24278L49.4662 8.24164ZM47.5836 4.28597L46.5881 4.31333L46.6281 5.76492L47.6235 5.73756C47.806 5.733 47.9599 5.6566 48.0876 5.51064C48.2142 5.36468 48.2758 5.19136 48.2701 4.98953C48.2644 4.78883 48.1948 4.62007 48.0603 4.48324C47.9257 4.3464 47.7672 4.28027 47.5848 4.28597H47.5836Z" fill="#999999"/>
<path d="M58.8454 9.64647L57.8203 9.40929L57.7325 8.48223L55.8259 8.04094L55.339 8.83572L54.3207 8.59968L57.1019 4.20386L58.2707 4.47411L58.8443 9.64647H58.8454ZM57.4394 5.42625L56.3311 7.22905L57.6435 7.53237L57.4394 5.42625Z" fill="#999999"/>
<path d="M42.7446 6.64827L42.8814 7.74067L44.9351 7.48411L45.0502 8.40318L42.0364 8.78062L41.4264 3.90815L44.4048 3.53528L44.52 4.45435L42.5017 4.7075L42.6317 5.74402L44.4767 5.51368L44.5896 6.41908L42.7446 6.64941V6.64827Z" fill="#999999"/>
<path d="M60.5172 5.00061L63.9438 6.14546L63.6507 7.02349L62.393 6.60386L61.1307 10.3828L60.2127 10.076L61.475 6.29712L60.2241 5.87978L60.5172 5.00175V5.00061Z" fill="#999999"/>
<path d="M36.8774 4.88525L40.3975 4.07336L40.6062 4.97533L39.3142 5.27295L40.2105 9.15564L39.2675 9.37344L38.3712 5.49075L37.0861 5.78722L36.8774 4.88525Z" fill="#999999"/>
<path d="M62.8798 11.0261L64.6894 6.46155L65.5891 6.81846L63.7795 11.383L62.8798 11.0261Z" fill="#999999"/>
<path d="M35.9155 8.32189L34.9451 5.48826L35.8607 5.17468L37.4514 9.82023L36.7547 10.0586L33.7911 7.89998L34.7638 10.7404L33.8481 11.054L32.2574 6.40848L32.9541 6.17016L35.9155 8.32189Z" fill="#999999"/>
<path d="M68.5977 13.033C67.9329 13.2451 67.2841 13.1893 66.6513 12.8666C66.0184 12.5439 65.5919 12.0512 65.3741 11.3887C65.1643 10.7194 65.2202 10.0694 65.544 9.43542C65.869 8.798 66.3616 8.37267 67.023 8.1583C67.6901 7.94164 68.34 7.99523 68.9729 8.31794C69.6057 8.64064 70.0311 9.13552 70.2466 9.8026C70.4655 10.4651 70.4119 11.1151 70.087 11.7525C69.762 12.3899 69.2659 12.8164 68.5989 13.033H68.5977ZM66.2795 11.1105C66.4095 11.513 66.6775 11.8175 67.0811 12.0239C67.4848 12.2303 67.8885 12.2679 68.291 12.1368C68.6992 12.0045 69.0105 11.7297 69.2226 11.3135C69.4347 10.8973 69.4746 10.4845 69.3423 10.0751C69.2101 9.66576 68.9432 9.36016 68.543 9.15605C68.1428 8.95194 67.7391 8.91659 67.3297 9.04886C66.9204 9.18114 66.6102 9.45595 66.3981 9.87215C66.186 10.2884 66.1461 10.7011 66.2784 11.1105H66.2795Z" fill="#999999"/>
<path d="M32.1419 11.8471L30.119 7.37261L31.0016 6.97351L33.0244 11.448L32.143 11.8471H32.1419Z" fill="#999999"/>
<path d="M72.9374 14.4584L74.674 12.0182L75.4631 12.5792L72.6158 16.5794L72.016 16.1518L72.0423 12.4857L70.301 14.9316L69.5119 14.3706L72.3593 10.3705L72.9591 10.7981L72.9362 14.4584H72.9374Z" fill="#999999"/>
<path d="M24.4915 10.4006L27.6193 8.59436L28.0823 9.39599L26.934 10.0585L28.9261 13.509L28.088 13.9925L26.0959 10.542L24.9533 11.2011L24.4904 10.3994L24.4915 10.4006Z" fill="#999999"/>
<path d="M76.4926 19.9266L75.6967 19.239L76.0513 18.3769L74.5701 17.0987L73.7696 17.5753L72.9782 16.8923L77.4869 14.2981L78.3946 15.0815L76.4926 19.9254V19.9266ZM77.2144 15.5365L75.3945 16.6152L76.4139 17.4955L77.2144 15.5365Z" fill="#999999"/>
<path d="M26.8041 14.8079L25.9534 15.4146L24.1586 14.6015L23.5588 15.0292L24.5486 16.4169L23.7607 16.979L20.9099 12.9823L22.5086 11.842C22.8781 11.5786 23.284 11.484 23.7276 11.5581C24.1712 11.6322 24.5235 11.8523 24.7835 12.2172C24.9602 12.4646 25.0537 12.744 25.0629 13.0564C25.0731 13.3677 25.0002 13.6608 24.8439 13.9322L26.8041 14.8079ZM23.0332 12.5775L22.2224 13.1557L23.0651 14.3381L23.8758 13.76C24.0241 13.654 24.1107 13.5046 24.1347 13.313C24.1586 13.1203 24.1119 12.9424 23.9956 12.7794C23.8792 12.6152 23.7264 12.5148 23.5383 12.476C23.3502 12.4384 23.1825 12.4715 23.0332 12.5775Z" fill="#999999"/>
<path d="M19.8733 17.7701L20.6087 18.5033L21.9851 17.1213L22.6031 17.737L20.5825 19.7656L17.303 16.4987L19.3008 14.4929L19.9189 15.1087L18.5653 16.4679L19.2632 17.1635L20.5004 15.9217L21.1093 16.5283L19.8721 17.7701H19.8733Z" fill="#999999"/>
<path d="M81.117 17.8624L78.101 20.4669L79.3245 21.8842L78.6232 22.4897L76.7668 20.3392L80.483 17.1304L81.1159 17.8624H81.117Z" fill="#999999"/>
<path d="M18.9182 21.7661C18.4803 22.3021 17.9375 22.602 17.2887 22.6635C16.6467 22.7251 16.0606 22.5404 15.5315 22.1071C14.999 21.6715 14.7003 21.1344 14.6364 20.4958C14.568 19.8482 14.7527 19.2563 15.1906 18.7193C15.4551 18.3954 15.7767 18.1571 16.153 18.0066C16.5293 17.8561 16.9101 17.8093 17.2956 17.8675L17.1507 18.766C16.9181 18.7238 16.6889 18.7478 16.4643 18.8379C16.2396 18.9279 16.0435 19.075 15.877 19.2803C15.592 19.6281 15.4722 19.9998 15.5144 20.3932C15.5635 20.7866 15.7607 21.1241 16.1051 21.4058C16.4472 21.6852 16.8144 21.8095 17.21 21.7787C17.6046 21.7422 17.9432 21.5495 18.2283 21.2017C18.3959 20.9964 18.502 20.7741 18.5465 20.5346C18.5909 20.2951 18.5704 20.0682 18.4826 19.855L19.3333 19.5346C19.4678 19.9006 19.4975 20.2826 19.4256 20.6817C19.3526 21.0808 19.1839 21.4423 18.9193 21.7673L18.9182 21.7661Z" fill="#999999"/>
<path fill-rule="evenodd" clip-rule="evenodd" d="M30.9151 34.7314C34.1809 33.3573 38.2517 32.363 42.7775 31.9034L42.6863 31.9502L42.5654 32.0141L42.5244 32.0357L42.4183 32.0939C42.3647 32.1235 42.3111 32.1532 42.2587 32.1828L42.164 32.2375C42.1116 32.2683 42.0591 32.2991 42.0078 32.3299L41.9006 32.3949C41.8436 32.4303 41.7866 32.4656 41.7296 32.5021L41.6555 32.5488C41.5985 32.5853 41.5426 32.6218 41.4867 32.6595L41.3943 32.7222C41.343 32.7575 41.2917 32.7929 41.2404 32.8282L41.1617 32.8841L41.1241 32.9103L40.9987 33.0015L40.9759 33.0186L40.9736 33.0209L40.8972 33.0779L40.8915 33.0825L40.8858 33.0871L40.8801 33.0916L40.8744 33.0962L40.7877 33.1623L40.782 33.1669L40.7763 33.1714L40.7706 33.176L40.7649 33.1806L40.7592 33.1851L40.7535 33.1897L40.6623 33.2604L40.6566 33.265L40.6509 33.2695L40.6452 33.2741L40.6395 33.2786L40.6338 33.2832L40.6281 33.2878L40.6224 33.2923L40.5836 33.3242L40.5813 33.3265H40.579L40.5768 33.3299H40.5745L40.5722 33.3334H40.5699L40.5676 33.3368H40.5654L40.5631 33.3402H40.5608L40.5585 33.3436H40.5562L40.554 33.3471H40.5517L40.5494 33.3505L40.5471 33.3528H40.5448L40.5426 33.3562H40.5403L40.538 33.3596L40.5357 33.3619H40.5334L40.5312 33.3653H40.5289L40.5266 33.3687H40.5243L40.522 33.3721L40.5197 33.3744H40.5175L40.5152 33.3778C40.4741 33.4109 40.4331 33.4451 40.3932 33.4793H40.3909L40.3886 33.4827H40.3863L40.3841 33.4862H40.3818L40.3795 33.4896H40.3772L40.3749 33.493H40.3726L40.3704 33.4964H40.3681L40.3658 33.4999H40.3635L40.3612 33.5033H40.359L40.3567 33.5067H40.3544L40.3521 33.5101H40.3498L40.3476 33.5135H40.3453L40.343 33.517H40.3407L40.3373 33.5215H40.335L40.3327 33.5249H40.3305L40.3225 33.5329H40.3202L40.3179 33.5363H40.3156L40.3122 33.5409H40.3099L40.3077 33.5443H40.3054L40.3031 33.5477H40.3008L40.2974 33.5523H40.2951L40.2928 33.5557H40.2905L40.2883 33.5591H40.286L40.2837 33.5626H40.2814L40.2791 33.566H40.2769L40.2746 33.5694H40.2723L40.27 33.5728H40.2677L40.2655 33.5763H40.2632L40.2609 33.5797H40.2586L40.2084 33.6241L40.148 33.6766L40.1457 33.6789L40.1434 33.6812L40.1412 33.6834L40.1389 33.6857H40.1366L40.1343 33.6891L40.132 33.6914H40.1298L40.1275 33.6948L40.1252 33.6971L40.1229 33.6994H40.1206L40.1172 33.704L40.1149 33.7062L40.1115 33.7097L40.1092 33.7119L40.0876 33.7313L40.0853 33.7336L40.0819 33.737L40.0796 33.7393L40.0648 33.7519C40.018 33.794 39.9713 33.8362 39.9245 33.8784L39.8652 33.9343L39.855 33.9446C39.8036 33.9925 39.7535 34.0403 39.7022 34.0894L39.6087 34.1806C39.5608 34.2274 39.5129 34.2752 39.4661 34.3231L39.4513 34.338L39.3863 34.4041C39.3407 34.4509 39.2962 34.4987 39.2506 34.5466L39.2289 34.5694L39.2118 34.5888C39.1674 34.6367 39.1229 34.6846 39.0796 34.7325L39.0123 34.8078C38.9461 34.883 38.88 34.9583 38.8162 35.0347L38.7933 35.0621L38.7888 35.0666C38.7466 35.1168 38.7044 35.1681 38.6634 35.2194L38.6508 35.2342L38.6269 35.2639C38.5881 35.3118 38.5505 35.3597 38.5128 35.4076L38.4684 35.4657L38.457 35.4805L38.4456 35.4954L38.4342 35.5102C38.3874 35.5706 38.3418 35.6322 38.2962 35.6938L38.2848 35.7097L38.2734 35.7246L38.262 35.7405L38.2506 35.7565C38.2095 35.8135 38.1685 35.8705 38.1286 35.9275L38.1172 35.9435L38.1057 35.9595L38.0943 35.9754L38.0829 35.9914L38.0715 36.0073L38.0601 36.0233C38.0271 36.0712 37.9951 36.118 37.9632 36.1659L37.9529 36.1818L37.8891 36.2776L37.8788 36.2936L37.8686 36.3095L37.8173 36.3905L37.807 36.4065L37.7659 36.4714L37.7602 36.4794L37.7146 36.5536L37.7112 36.5593L37.7078 36.565L37.7044 36.5707L37.6656 36.6334L37.6622 36.6391L37.6588 36.6448L37.6553 36.6505L37.6519 36.6562C37.6257 36.7006 37.5983 36.7451 37.5721 36.7896C36.9677 36.6756 36.3839 36.5524 35.8229 36.4213C33.8479 35.9572 32.1671 35.3916 30.874 34.7542M22.8281 42.6028C23.0984 39.768 25.6743 37.2001 29.7372 35.2627C31.1956 36.0997 33.1991 36.8238 35.5971 37.3871C36.0772 37.5 36.5743 37.606 37.0852 37.7064L37.0692 37.7395L37.0111 37.8637C36.9894 37.9094 36.9689 37.955 36.9484 38.0006C36.9255 38.053 36.9016 38.1055 36.8788 38.1579L36.8229 38.2891L36.7568 38.4499L36.7169 38.5513C36.6918 38.6152 36.6678 38.6791 36.6439 38.744L36.6063 38.8455C36.5846 38.9037 36.5641 38.9618 36.5447 39.0211L36.5082 39.1283C36.4865 39.1933 36.466 39.2572 36.4455 39.3222L36.4147 39.4225C36.393 39.4921 36.3725 39.5628 36.352 39.6323L36.3326 39.7019C36.3109 39.7794 36.2893 39.8581 36.2687 39.9368L36.2539 39.9961C36.2334 40.0782 36.2129 40.1603 36.1935 40.2435L36.1809 40.2983C36.1616 40.3838 36.1422 40.4693 36.1251 40.556L36.1182 40.5879C36.1 40.6768 36.0829 40.7658 36.0669 40.8559L36.0578 40.9095C36.0418 40.9995 36.027 41.0908 36.0122 41.182V41.1923L36.0088 41.2025C35.9939 41.2983 35.9802 41.3941 35.9688 41.491L35.9654 41.5218C35.9529 41.6199 35.9415 41.7168 35.9324 41.8149V41.8194L35.9312 41.8263C35.9209 41.9266 35.9118 42.0258 35.9038 42.1273V42.1467C35.8947 42.2482 35.889 42.3497 35.8833 42.4511V42.4568V42.4603L35.8765 42.6051H22.8304L22.8281 42.6028ZM29.7372 50.9349C25.6732 48.9987 23.0984 46.4308 22.8281 43.5948H35.8742L35.881 43.7397V43.7431V43.7488C35.8867 43.8503 35.8924 43.9518 35.9004 44.0532V44.0726C35.9095 44.173 35.9187 44.2733 35.9289 44.3737V44.3805L35.9301 44.3851C35.9403 44.4831 35.9517 44.5812 35.9631 44.6781L35.9666 44.7089C35.9791 44.8058 35.9928 44.9016 36.0065 44.9974V45.0077L36.0099 45.0179C36.0236 45.1092 36.0395 45.2004 36.0555 45.2905L36.0646 45.3441C36.0806 45.4341 36.0977 45.5231 36.1159 45.612L36.1228 45.644C36.141 45.7295 36.1593 45.8161 36.1787 45.9017L36.1912 45.9564C36.2106 46.0385 36.2311 46.1217 36.2516 46.2038L36.2665 46.2631C36.287 46.3418 36.3086 46.4205 36.3303 46.498L36.3497 46.5676C36.3702 46.6383 36.3907 46.7078 36.4124 46.7774L36.4432 46.8777C36.4637 46.9427 36.4843 47.0077 36.5059 47.0716L36.5424 47.1788C36.5629 47.2369 36.5835 47.2951 36.604 47.3544L36.6416 47.4559C36.6656 47.5209 36.6895 47.5847 36.7146 47.6486L36.7545 47.7501C36.7762 47.8037 36.7978 47.8573 36.8206 47.9109L36.8765 48.042C36.8993 48.0944 36.9221 48.1469 36.9461 48.1993C36.9666 48.245 36.9871 48.2906 37.0088 48.3362L37.0669 48.4605L37.0829 48.4935C36.5709 48.5939 36.0749 48.6999 35.5948 48.8128C33.1979 49.3761 31.1933 50.1002 29.7349 50.936L29.7372 50.9349ZM42.7376 54.2714C38.2107 53.813 34.1398 52.8175 30.874 51.4435C32.166 50.8049 33.8479 50.2393 35.8229 49.7764C36.3839 49.6452 36.9677 49.5221 37.5721 49.4081L37.6439 49.5301L37.6474 49.5358L37.6508 49.5415L37.6542 49.5472L37.6576 49.5529L37.661 49.5586L37.7066 49.6327L37.7101 49.6384L37.7135 49.6441L37.7169 49.6498L37.7591 49.7182L37.7648 49.7262L37.8059 49.7912L37.8161 49.8072L37.8674 49.8881L37.8777 49.9041L37.888 49.92L37.9507 50.0158L37.9609 50.0318C37.9929 50.0797 38.0248 50.1276 38.0579 50.1743L38.0693 50.1903L38.0807 50.2063L38.0921 50.2222L38.1035 50.2382L38.1149 50.2542L38.1263 50.2701C38.1628 50.3226 38.1993 50.3739 38.238 50.4263L38.2494 50.4423L38.2608 50.4583L38.2722 50.4742L38.2836 50.4902L38.295 50.5062L38.3064 50.521C38.3486 50.578 38.3897 50.6339 38.433 50.6897L38.4444 50.7046L38.4558 50.7194L38.4672 50.7342L38.5117 50.7924C38.5493 50.8403 38.5881 50.8882 38.6257 50.936L38.6497 50.9657L38.6622 50.9805C38.7033 51.0318 38.7455 51.0831 38.7876 51.1333L38.7922 51.1379L38.815 51.1652C38.88 51.2416 38.945 51.3169 39.0111 51.3922L39.0784 51.4674C39.1217 51.5153 39.1662 51.5643 39.2107 51.6111L39.2278 51.6305L39.2495 51.6533C39.2939 51.7012 39.3395 51.7491 39.3852 51.7958L39.4502 51.862L39.465 51.8768C39.5117 51.9247 39.5596 51.9726 39.6075 52.0193L39.701 52.1105C39.7512 52.1596 39.8025 52.2075 39.8538 52.2554L39.8641 52.2656L39.9234 52.3215H39.9257C39.9713 52.3648 40.018 52.407 40.0648 52.4481L40.0796 52.4618H40.0819L40.0853 52.4663L40.0876 52.4686L40.1092 52.488H40.1115L40.1149 52.4937L40.1172 52.496L40.1206 52.4994L40.1229 52.5017L40.1263 52.5051H40.1286L40.1309 52.5085L40.1332 52.5108L40.1355 52.5131L40.1377 52.5154L40.14 52.5176H40.1423L40.1446 52.5211H40.1469L40.1492 52.5245L40.1514 52.5268L40.1537 52.529H40.156L40.2084 52.5769L40.2586 52.6203H40.2609L40.2632 52.6237H40.2655L40.2677 52.6271H40.27L40.2723 52.6305H40.2746L40.2769 52.6339H40.2791L40.2814 52.6374H40.2837L40.286 52.6408H40.2883L40.2905 52.6442H40.2928L40.2951 52.6476H40.2974L40.2997 52.651H40.302L40.3042 52.6545H40.3065L40.3088 52.6579H40.3111L40.3134 52.6613H40.3156L40.3179 52.6647H40.3202L40.3225 52.6681H40.3248L40.327 52.6716H40.3293L40.3316 52.675H40.3339L40.3362 52.6784H40.3384L40.3407 52.6818H40.343L40.3453 52.6853H40.3476L40.3498 52.6887H40.3521L40.3544 52.6921H40.3567L40.359 52.6955H40.3612L40.3635 52.6989H40.3658L40.3681 52.7024H40.3704L40.3726 52.7058H40.3749L40.3772 52.7092H40.3795L40.3852 52.7149H40.3875L40.3898 52.7183H40.392C40.4525 52.7696 40.5129 52.8198 40.5733 52.8688L40.5802 52.8745L40.619 52.9065L40.6247 52.911L40.6304 52.9156L40.6361 52.9202L40.6418 52.9247L40.6475 52.9293L40.6532 52.9338L40.6589 52.9384L40.7444 53.0057L40.7501 53.0102L40.7558 53.0148L40.7615 53.0194L40.7672 53.0239L40.7729 53.0285L40.7786 53.033L40.8698 53.1037L40.8755 53.1083L40.8812 53.1129L40.8869 53.1174L40.8926 53.122L40.969 53.179L40.9713 53.1813L40.9941 53.1984L41.1195 53.2896L41.1572 53.3158L41.2393 53.374C41.2872 53.4071 41.3351 53.4401 41.3829 53.4732L41.4993 53.5507L41.6407 53.6431L41.7547 53.7161C41.7992 53.7446 41.8448 53.7731 41.8904 53.8005L42.0055 53.87L42.1515 53.9555L42.269 54.0228C42.3168 54.0502 42.3647 54.0764 42.4138 54.1038L42.5483 54.1768L42.6681 54.2395L42.7752 54.2942L42.7376 54.2714ZM65.979 51.4435C62.7144 52.8164 58.6435 53.8119 54.1166 54.2714L54.1907 54.2338C54.2477 54.2041 54.3047 54.1745 54.3617 54.1437L54.4267 54.1095C54.502 54.0684 54.5761 54.0274 54.6491 53.9852L54.7312 53.9373L54.8772 53.8506L54.9718 53.7936C55.0402 53.7514 55.1086 53.7092 55.1759 53.6659L55.266 53.6077L55.3948 53.5234L55.4998 53.4527L55.6275 53.3649C55.6708 53.3341 55.7141 53.3044 55.7575 53.2725C55.8065 53.2372 55.8544 53.2018 55.9023 53.1665L56.0083 53.0866L56.1132 53.0068L56.2204 52.9236L56.3162 52.8472C56.3812 52.7947 56.4451 52.7423 56.5089 52.6887L56.5933 52.618L56.6982 52.5279L56.7963 52.4412C56.8544 52.3899 56.9114 52.3375 56.9685 52.285C56.9981 52.2576 57.0277 52.2303 57.0563 52.2029C57.0916 52.1698 57.127 52.1356 57.1612 52.1026L57.2455 52.0205L57.3425 51.9247C57.379 51.8882 57.4132 51.8528 57.4496 51.8152C57.5032 51.7605 57.5568 51.7046 57.6093 51.6476L57.6709 51.5815L57.7792 51.4629L57.8453 51.3887C57.9103 51.3146 57.9753 51.2405 58.0392 51.1641L58.0837 51.1117C58.1201 51.0683 58.1566 51.0238 58.192 50.9794L58.241 50.9178C58.2764 50.8733 58.3117 50.83 58.3459 50.7855L58.379 50.7433C58.4486 50.6533 58.517 50.562 58.5854 50.4685L58.6207 50.4206C58.6549 50.3739 58.6891 50.326 58.7222 50.2781L58.7633 50.2199C58.8271 50.1276 58.8898 50.0352 58.9503 49.9417L58.9811 49.895L59.0654 49.7627L59.1168 49.6794C59.1453 49.6327 59.1749 49.5859 59.2023 49.5392L59.2353 49.4845L59.2821 49.4058C59.8865 49.5198 60.4703 49.643 61.0313 49.7741C63.0063 50.2382 64.6871 50.8038 65.979 51.4412V51.4435ZM74.0249 43.5948C73.7547 46.4296 71.1788 48.9975 67.1159 50.9349C65.6575 50.0979 63.654 49.3738 61.2559 48.8105C60.7759 48.6977 60.2799 48.5905 59.7679 48.4913C60.4828 46.9986 60.9104 45.3429 60.9789 43.5948H74.0249ZM67.1159 35.2627C71.1799 37.199 73.7547 39.7669 74.0249 42.6028H60.9789C60.9104 40.8547 60.4828 39.199 59.7679 37.7064C60.2799 37.606 60.7759 37.5 61.2559 37.3871C63.6528 36.8238 65.6575 36.0997 67.1159 35.2627ZM54.1166 31.9262C58.6435 32.3846 62.7132 33.3801 65.979 34.7542C64.6871 35.3927 63.0051 35.9583 61.0313 36.4213C60.4703 36.5536 59.8865 36.6767 59.2821 36.7896L59.2353 36.7109L59.2023 36.6562C59.1738 36.6094 59.1453 36.5627 59.1168 36.5159L59.0654 36.4327C59.0381 36.3882 59.0096 36.3437 58.9811 36.3004L58.9503 36.2537C58.8887 36.1601 58.826 36.0678 58.7633 35.9754L58.7222 35.9173C58.6891 35.8694 58.6549 35.8215 58.6207 35.7747L58.5854 35.7268C58.5181 35.6345 58.4497 35.5433 58.379 35.452L58.3459 35.4098C58.3117 35.3654 58.2764 35.3209 58.241 35.2776L58.192 35.216C58.1555 35.1715 58.1201 35.127 58.0837 35.0837L58.0392 35.0313C57.9753 34.956 57.9103 34.8807 57.8453 34.8066L57.7792 34.7325C57.7438 34.6926 57.7074 34.6527 57.6709 34.6139L57.6093 34.5478C57.5568 34.4919 57.5032 34.436 57.4496 34.3802C57.4143 34.3437 57.379 34.3072 57.3425 34.2707L57.2455 34.1749L57.1612 34.0928C57.127 34.0586 57.0916 34.0255 57.0563 33.9925L56.9685 33.9104C56.9114 33.8579 56.8544 33.8054 56.7963 33.7541L56.6982 33.6675C56.664 33.6367 56.6286 33.607 56.5933 33.5774L56.5089 33.5067C56.4451 33.4531 56.3812 33.4006 56.3162 33.3482L56.2204 33.2718L56.1132 33.1885L56.0083 33.1087L55.9023 33.0289C55.8544 32.9936 55.8054 32.9582 55.7575 32.9229L55.6275 32.8305L55.4998 32.7427L55.3948 32.672C55.3527 32.6435 55.3093 32.6161 55.266 32.5876L55.1759 32.5295C55.1086 32.4861 55.0402 32.4439 54.9718 32.4017L54.8772 32.3447L54.7312 32.2581L54.6491 32.2102C54.575 32.168 54.5009 32.1269 54.4267 32.0859L54.3617 32.0517C54.3047 32.0209 54.2489 31.9912 54.1907 31.9616L54.1166 31.924V31.9262ZM59.9822 43.5948C59.9104 45.2836 59.4748 46.8789 58.7507 48.3043C55.8327 47.8014 52.486 47.5049 48.9237 47.4798V43.5948H59.9822ZM58.7507 37.8923C59.4748 39.3176 59.9104 40.9129 59.9822 42.6017H48.9237V38.7167C52.486 38.6916 55.8327 38.3951 58.7507 37.8923ZM48.9237 35.3927C50.7995 35.5113 52.4939 36.297 53.7722 37.5137C52.2214 37.6391 50.5976 37.7121 48.9237 37.7246V35.3927ZM43.0808 37.5137C44.358 36.297 46.0524 35.5113 47.9294 35.3927V37.7246C46.2565 37.7121 44.6328 37.6402 43.0808 37.5137ZM40.6999 42.6017C40.7991 41.0429 41.3624 39.6095 42.2541 38.4373C44.0558 38.6061 45.9589 38.703 47.9294 38.7167V42.6017H40.7011H40.6999ZM42.2541 47.7592C41.3636 46.587 40.7991 45.1536 40.6999 43.5948H47.9282V47.4798C45.9589 47.4935 44.0546 47.5904 42.253 47.7592H42.2541ZM47.9294 50.8038C46.0536 50.6852 44.3591 49.8995 43.0808 48.6828C44.6316 48.5563 46.2554 48.4844 47.9294 48.4719V50.8038ZM53.7722 48.6828C52.4951 49.8995 50.8006 50.6852 48.9237 50.8038V48.4719C50.5965 48.4844 52.2203 48.5563 53.7722 48.6828Z" fill="#999999"/>
<path d="M55.6438 86.6208C55.8489 82.9966 53.0773 79.8923 49.4531 79.6872C45.8289 79.482 42.7247 82.2536 42.5195 85.8778C42.3143 89.502 45.086 92.6063 48.7102 92.8114C52.3343 93.0166 55.4386 90.2449 55.6438 86.6208Z" fill="#999999"/>
<path d="M55.6438 86.6208C55.8489 82.9966 53.0773 79.8923 49.4531 79.6872C45.8289 79.482 42.7247 82.2536 42.5195 85.8778C42.3143 89.502 45.086 92.6063 48.7102 92.8114C52.3343 93.0166 55.4386 90.2449 55.6438 86.6208Z" stroke="#999999" stroke-width="0.0649966" stroke-miterlimit="22.93"/>
<path fill-rule="evenodd" clip-rule="evenodd" d="M44.4931 84.4233L48.4933 88.1863L56.6407 80.2932L58.1835 82.0219L48.4739 91.7178L42.8762 86.0129L44.4931 84.4233Z" fill="#191B1D"/>
<path d="M44.4931 84.4233L48.4933 88.1863L56.6407 80.2932L58.1835 82.0219L48.4739 91.7178L42.8762 86.0129L44.4931 84.4233Z" stroke="#999999" stroke-width="0.0649966" stroke-miterlimit="22.93"/>
</g>
</g>
<defs>
<clipPath id="clip0_60827_214190">
<rect width="96" height="96" fill="white"/>
</clipPath>
</defs>
</svg>
