<svg width="96" height="96" viewBox="0 0 96 96" fill="none" xmlns="http://www.w3.org/2000/svg">
<g clip-path="url(#clip0_60827_214016)">
<mask id="mask0_60827_214016" style="mask-type:luminance" maskUnits="userSpaceOnUse" x="0" y="0" width="96" height="96">
<path d="M96 0H0V96H96V0Z" fill="white"/>
</mask>
<g mask="url(#mask0_60827_214016)">
<path d="M47.9929 93.4804C73.1139 93.4804 93.4786 73.1158 93.4786 47.9947C93.4786 22.8737 73.1139 2.50903 47.9929 2.50903C22.8718 2.50903 2.5072 22.8737 2.5072 47.9947C2.5072 73.1158 22.8718 93.4804 47.9929 93.4804Z" stroke="#999999" stroke-width="0.161919" stroke-miterlimit="22.9256"/>
</g>
<mask id="mask1_60827_214016" style="mask-type:luminance" maskUnits="userSpaceOnUse" x="0" y="0" width="96" height="96">
<path d="M96 0H0V96H96V0Z" fill="white"/>
</mask>
<g mask="url(#mask1_60827_214016)">
<path d="M47.9941 94.8596C73.8772 94.8596 94.8595 73.8773 94.8595 47.9942C94.8595 22.1111 73.8772 1.12878 47.9941 1.12878C22.1111 1.12878 1.12869 22.1111 1.12869 47.9942C1.12869 73.8773 22.1111 94.8596 47.9941 94.8596Z" stroke="#999999" stroke-width="0.228056" stroke-miterlimit="22.9256"/>
</g>
<mask id="mask2_60827_214016" style="mask-type:luminance" maskUnits="userSpaceOnUse" x="0" y="0" width="96" height="96">
<path d="M96 0H0V96H96V0Z" fill="white"/>
</mask>
<g mask="url(#mask2_60827_214016)">
<path d="M48.4736 84.9954C69.262 84.9954 86.1142 68.1431 86.1142 47.3548C86.1142 26.5665 69.262 9.71423 48.4736 9.71423C27.6853 9.71423 10.8331 26.5665 10.8331 47.3548C10.8331 68.1431 27.6853 84.9954 48.4736 84.9954Z" stroke="#999999" stroke-width="0.161612" stroke-miterlimit="22.9256"/>
</g>
<mask id="mask3_60827_214016" style="mask-type:luminance" maskUnits="userSpaceOnUse" x="0" y="0" width="96" height="96">
<path d="M96 0H0V96H96V0Z" fill="white"/>
</mask>
<g mask="url(#mask3_60827_214016)">
<path d="M23.25 27.4362V21.8489H24.3561V27.4362H23.25Z" fill="#999999"/>
<path d="M27.2969 27.5391C26.7496 27.5391 26.282 27.4137 25.9058 27.1742C25.5295 26.9348 25.2558 26.5927 25.0962 26.1594L26.0426 25.6121C26.2592 26.1822 26.6925 26.4673 27.3311 26.4673C27.6276 26.4673 27.8556 26.4102 28.0039 26.3076C28.1521 26.205 28.2319 26.0568 28.2319 25.8743C28.2319 25.6805 28.1407 25.5208 27.9697 25.4182C27.7986 25.3042 27.4793 25.1901 27.0232 25.0647C26.5329 24.9165 26.1452 24.7454 25.8715 24.5516C25.5181 24.2893 25.347 23.913 25.347 23.3999C25.347 22.8868 25.5295 22.4877 25.883 22.1912C26.2364 21.8833 26.6697 21.7351 27.1829 21.7351C27.6276 21.7351 28.0267 21.8491 28.3688 22.0658C28.7108 22.2824 28.9845 22.5903 29.1784 22.9894L28.2547 23.5253C28.0267 23.0464 27.6732 22.807 27.1829 22.807C26.9548 22.807 26.7838 22.864 26.6469 22.9666C26.5101 23.0692 26.4417 23.2061 26.4417 23.3657C26.4417 23.5367 26.5101 23.685 26.6583 23.799C26.818 23.913 27.103 24.0271 27.5021 24.1525L27.8898 24.2779C27.9583 24.3007 28.0837 24.3463 28.2433 24.4148C28.403 24.4718 28.517 24.5288 28.5968 24.5858C28.8591 24.7454 29.0301 24.9051 29.1213 25.0761C29.2582 25.3042 29.3266 25.5664 29.3266 25.8629C29.3266 26.376 29.1327 26.7865 28.7565 27.0944C28.3802 27.3909 27.9012 27.5391 27.2969 27.5391Z" fill="#999999"/>
<path d="M34.7446 26.7068C34.1859 27.2656 33.4903 27.5506 32.6807 27.5506C31.8711 27.5506 31.187 27.2656 30.6168 26.7068C30.0581 26.1367 29.773 25.4525 29.773 24.6429C29.773 23.8333 30.0467 23.1378 30.6168 22.579C31.1756 22.0203 31.8711 21.7352 32.6807 21.7352C33.4903 21.7352 34.1745 22.0203 34.7446 22.579C35.3034 23.1378 35.5884 23.8219 35.5884 24.6429C35.5884 25.4639 35.3148 26.1367 34.7446 26.7068ZM31.4036 25.9543C31.7457 26.2963 32.1676 26.4674 32.6921 26.4674C33.2052 26.4674 33.6386 26.2963 33.9806 25.9543C34.3227 25.6122 34.4938 25.1675 34.4938 24.6429C34.4938 24.107 34.3227 23.6737 33.9806 23.3316C33.6386 22.9895 33.2052 22.8071 32.6921 22.8071C32.179 22.8071 31.7571 22.9781 31.4036 23.3316C31.0615 23.6737 30.8791 24.1184 30.8791 24.6429C30.8905 25.1675 31.0615 25.6122 31.4036 25.9543Z" fill="#999999"/>
<path d="M39.7607 21.0507L36.5679 28.2344H36.1118L39.3046 21.0507H39.7607Z" fill="#999999"/>
<path d="M40.5481 27.4362V21.8489H41.6542V27.4362H40.5481Z" fill="#999999"/>
<path d="M43.7876 25.1219V26.3762H46.1365V27.4253H42.6815V21.8379H46.1023V22.8869H43.7876V24.0728H45.8971V25.1105H43.7876V25.1219Z" fill="#999999"/>
<path d="M49.5664 27.5386C48.734 27.5386 48.0384 27.2535 47.4797 26.6948C46.9323 26.136 46.6587 25.4519 46.6587 24.6309C46.6587 23.7985 46.9323 23.1143 47.4797 22.5669C48.0384 22.0082 48.7226 21.7231 49.5664 21.7231C50.0681 21.7231 50.5356 21.8372 50.9689 22.0766C51.4022 22.3161 51.7329 22.6354 51.9724 23.0345L51.0259 23.5818C50.8891 23.3309 50.6952 23.1371 50.433 23.0003C50.1821 22.8634 49.8856 22.7836 49.5664 22.7836C49.019 22.7836 48.5857 22.9546 48.255 23.2967C47.9244 23.6388 47.7647 24.0835 47.7647 24.6194C47.7647 25.1554 47.9244 25.5887 48.255 25.9308C48.5857 26.2729 49.0304 26.4439 49.5664 26.4439C49.8856 26.4439 50.1707 26.3755 50.433 26.2272C50.6952 26.0904 50.8891 25.8966 51.0145 25.6457L51.961 26.193C51.7215 26.5921 51.3908 26.9228 50.9575 27.1509C50.5356 27.4245 50.0681 27.5386 49.5664 27.5386Z" fill="#999999"/>
<path d="M58.1295 27.4359H54.3894V26.6149L56.2936 24.6537C56.7155 24.1975 56.9322 23.8327 56.9322 23.5362C56.9322 23.3195 56.8638 23.1371 56.7269 23.0117C56.5901 22.8748 56.4191 22.8064 56.2024 22.8064C55.7805 22.8064 55.4612 23.0231 55.2674 23.4564L54.3438 22.909C54.5148 22.5327 54.7657 22.2363 55.0849 22.031C55.4156 21.8258 55.7805 21.7231 56.1796 21.7231C56.6813 21.7231 57.1146 21.8828 57.4795 22.2021C57.8444 22.5213 58.0268 22.9432 58.0268 23.4792C58.0268 24.0607 57.719 24.6537 57.1146 25.2694L56.02 26.3641H58.1181V27.4359H58.1295Z" fill="#999999"/>
<path d="M58.5312 22.8978V21.8488H62.1345V22.7838L60.2417 27.4361H59.0786L60.9144 22.8978H58.5312Z" fill="#999999"/>
<path d="M64.8479 27.5391C64.1524 27.5391 63.605 27.2769 63.2059 26.7523C62.8068 26.2164 62.613 25.5094 62.613 24.6428C62.613 23.7648 62.8068 23.0692 63.2059 22.5333C63.605 21.9974 64.1524 21.7351 64.8479 21.7351C65.5549 21.7351 66.1022 21.9974 66.4899 22.5333C66.889 23.0692 67.0829 23.7648 67.0829 24.6428C67.0829 25.5208 66.889 26.2164 66.4899 26.7523C66.1022 27.2769 65.5549 27.5391 64.8479 27.5391ZM65.9882 24.6428C65.9882 24.0499 65.8856 23.5938 65.6917 23.2745C65.4979 22.9552 65.2128 22.807 64.8365 22.807C64.4602 22.807 64.1866 22.9666 63.9927 23.2745C63.7989 23.5938 63.7076 24.0385 63.7076 24.6428C63.7076 25.2358 63.7989 25.6919 63.9927 25.9997C64.1866 26.3076 64.4716 26.4673 64.8365 26.4673C65.2014 26.4673 65.4979 26.3076 65.6917 25.9997C65.897 25.6805 65.9882 25.2244 65.9882 24.6428Z" fill="#999999"/>
<path d="M69.8756 27.5392C69.18 27.5392 68.6327 27.277 68.2336 26.7525C67.8345 26.2165 67.6406 25.5095 67.6406 24.6429C67.6406 23.7649 67.8345 23.0694 68.2336 22.5334C68.6327 21.9975 69.18 21.7352 69.8756 21.7352C70.5825 21.7352 71.1299 21.9975 71.5176 22.5334C71.9167 23.0694 72.1105 23.7649 72.1105 24.6429C72.1105 25.521 71.9167 26.2165 71.5176 26.7525C71.1299 27.277 70.5825 27.5392 69.8756 27.5392ZM71.0158 24.6429C71.0158 24.05 70.9132 23.5939 70.7194 23.2746C70.5255 22.9553 70.2405 22.8071 69.8642 22.8071C69.4879 22.8071 69.2142 22.9667 69.0204 23.2746C68.8265 23.5939 68.7353 24.0386 68.7353 24.6429C68.7353 25.2359 68.8265 25.692 69.0204 25.9999C69.2142 26.3077 69.4993 26.4674 69.8642 26.4674C70.2291 26.4674 70.5255 26.3077 70.7194 25.9999C70.9246 25.6806 71.0158 25.2245 71.0158 24.6429Z" fill="#999999"/>
<path d="M72.4762 22.362L73.9471 21.8489H74.9049V27.4362H73.7989V23.012L72.7498 23.3084L72.4762 22.362Z" fill="#999999"/>
</g>
<mask id="mask4_60827_214016" style="mask-type:luminance" maskUnits="userSpaceOnUse" x="0" y="0" width="96" height="96">
<path d="M96 0H0V96H96V0Z" fill="white"/>
</mask>
<g mask="url(#mask4_60827_214016)">
<path d="M24.9378 70.4917C23.6835 70.4917 22.6344 70.0698 21.802 69.226C20.981 68.3936 20.5591 67.3559 20.5591 66.113C20.5591 64.8587 20.9696 63.8211 21.802 63.0001C22.6344 62.1563 23.6835 61.7344 24.9378 61.7344C25.7018 61.7344 26.3974 61.9168 27.0473 62.2703C27.6973 62.6238 28.199 63.1141 28.5525 63.7185L27.1271 64.5509C26.9219 64.1746 26.6254 63.8781 26.2377 63.6614C25.85 63.4448 25.4167 63.3422 24.9378 63.3422C24.1168 63.3422 23.4554 63.6044 22.9537 64.1062C22.452 64.6307 22.2125 65.292 22.2125 66.1016C22.2125 66.8998 22.4634 67.5612 22.9537 68.0857C23.4554 68.5988 24.1168 68.8497 24.9378 68.8497C25.4167 68.8497 25.85 68.7471 26.2377 68.5304C26.6254 68.3138 26.9219 68.0287 27.1271 67.6638L28.5525 68.4962C28.1876 69.1006 27.6859 69.5909 27.0473 69.9444C26.3974 70.3093 25.7018 70.4917 24.9378 70.4917Z" fill="#999999"/>
<path d="M31.3333 66.8432V68.736H34.8796V70.321H29.6685V61.9058H34.8112V63.4907H31.3219V65.281H34.5033V66.8432H31.3333Z" fill="#999999"/>
<path d="M42.4526 70.321H40.6624L38.9633 67.4019H37.6976V70.321H36.0328V61.9058H39.3966C40.172 61.9058 40.8334 62.1794 41.3807 62.7268C41.9281 63.2741 42.2017 63.9241 42.2017 64.6994C42.2017 65.224 42.0535 65.7029 41.757 66.1476C41.4605 66.5923 41.0728 66.923 40.5825 67.151L42.4526 70.321ZM39.408 63.4565H37.6976V65.9423H39.408C39.7159 65.9423 39.9896 65.8169 40.2176 65.5775C40.4457 65.338 40.5597 65.0415 40.5597 64.688C40.5597 64.346 40.4457 64.0495 40.2176 63.81C39.9896 63.5706 39.7273 63.4565 39.408 63.4565Z" fill="#999999"/>
<path d="M42.8067 61.9058H48.9985V63.4907H46.7293V70.321H45.0645V63.4907H42.8067V61.9058Z" fill="#999999"/>
<path d="M49.9209 70.321V61.9058H51.5857V70.321H49.9209Z" fill="#999999"/>
<path d="M58.177 61.9058V63.4907H54.8132V65.4862H58.0858V67.0712H54.8132V70.321H53.1484V61.9058H58.177Z" fill="#999999"/>
<path d="M59.3849 70.321V61.9058H61.0497V70.321H59.3849Z" fill="#999999"/>
<path d="M64.2671 66.8432V68.736H67.8134V70.321H62.6023V61.9058H67.745V63.4907H64.2557V65.281H67.4371V66.8432H64.2671Z" fill="#999999"/>
<path d="M68.9872 61.9058H72.3282C73.4799 61.9058 74.4491 62.3163 75.2131 63.1259C75.9885 63.924 76.3762 64.9275 76.3762 66.1248C76.3762 67.3221 75.9885 68.3141 75.2131 69.1237C74.4491 69.9333 73.4799 70.3438 72.3282 70.3438H68.9872V61.9058ZM70.6406 68.736H72.3282C73.058 68.736 73.6509 68.4966 74.107 68.0176C74.5631 67.5159 74.7912 66.8888 74.7912 66.1134C74.7912 65.338 74.5631 64.7108 74.107 64.2205C73.6509 63.7302 73.058 63.4907 72.3282 63.4907H70.6406V68.736Z" fill="#999999"/>
</g>
<mask id="mask5_60827_214016" style="mask-type:luminance" maskUnits="userSpaceOnUse" x="0" y="0" width="96" height="96">
<path d="M96 0H0V96H96V0Z" fill="white"/>
</mask>
<g mask="url(#mask5_60827_214016)">
<path d="M33.2838 76.8321V73.3201H33.9794V76.8321H33.2838Z" fill="#999999"/>
<path d="M35.8141 76.8999C35.4721 76.8999 35.1756 76.82 34.9475 76.6718C34.7081 76.5236 34.537 76.3069 34.4458 76.0333L35.0387 75.6912C35.1756 76.0447 35.4492 76.2271 35.8483 76.2271C36.0308 76.2271 36.179 76.1929 36.2702 76.1245C36.3615 76.0561 36.4071 75.9648 36.4071 75.8508C36.4071 75.7254 36.3501 75.6342 36.236 75.5657C36.122 75.4973 35.9282 75.4175 35.6431 75.3377C35.3352 75.2465 35.0958 75.1324 34.9133 75.007C34.6967 74.8474 34.5826 74.6079 34.5826 74.2886C34.5826 73.9693 34.6967 73.7185 34.9133 73.536C35.1414 73.3422 35.415 73.251 35.7343 73.251C36.0194 73.251 36.2588 73.3194 36.4755 73.4562C36.6921 73.5931 36.8632 73.7869 36.9772 74.0378L36.3957 74.3684C36.2588 74.072 36.0308 73.9123 35.7229 73.9123C35.5861 73.9123 35.472 73.9465 35.3922 74.015C35.3124 74.0834 35.2668 74.1632 35.2668 74.2658C35.2668 74.3798 35.3124 74.4711 35.4036 74.5395C35.5063 74.6079 35.6773 74.6877 35.9396 74.7561L36.179 74.836C36.2246 74.8474 36.293 74.8816 36.4071 74.9158C36.5097 74.95 36.5781 74.9842 36.6237 75.0184C36.7834 75.121 36.8974 75.2237 36.9544 75.3263C37.0456 75.4631 37.0798 75.6342 37.0798 75.8166C37.0798 76.1359 36.9658 76.3981 36.7264 76.592C36.4983 76.8086 36.1904 76.8999 35.8141 76.8999Z" fill="#999999"/>
</g>
<mask id="mask6_60827_214016" style="mask-type:luminance" maskUnits="userSpaceOnUse" x="0" y="0" width="96" height="96">
<path d="M96 0H0V96H96V0Z" fill="white"/>
</mask>
<g mask="url(#mask6_60827_214016)">
<path d="M40.262 73.3201H40.969V76.8321H40.2848V74.563L39.2928 76.1936H39.2244L38.2323 74.5744V76.8435H37.5368V73.3201H38.2437L39.2472 74.9735L40.262 73.3201Z" fill="#999999"/>
<path d="M42.8272 76.8996C42.4851 76.8996 42.1887 76.8198 41.9606 76.6716C41.7212 76.5233 41.5501 76.3067 41.4589 76.033L42.0518 75.6909C42.1887 76.0444 42.4623 76.2269 42.8614 76.2269C43.0439 76.2269 43.1921 76.1926 43.2833 76.1242C43.3746 76.0558 43.4202 75.9646 43.4202 75.8506C43.4202 75.7251 43.3632 75.6339 43.2491 75.5655C43.1351 75.4971 42.9413 75.4173 42.6562 75.3374C42.3483 75.2462 42.1089 75.1322 41.9264 75.0068C41.7098 74.8471 41.5957 74.6077 41.5957 74.2884C41.5957 73.9691 41.7098 73.7182 41.9264 73.5358C42.1545 73.342 42.4281 73.2507 42.7474 73.2507C43.0325 73.2507 43.2719 73.3191 43.4886 73.456C43.7052 73.5928 43.8763 73.7867 43.9903 74.0375L43.4088 74.3682C43.2719 74.0717 43.0439 73.9121 42.736 73.9121C42.5992 73.9121 42.4851 73.9463 42.4053 74.0147C42.3255 74.0831 42.2799 74.163 42.2799 74.2656C42.2799 74.3796 42.3255 74.4708 42.4167 74.5392C42.5194 74.6077 42.6904 74.6875 42.9527 74.7559L43.1921 74.8357C43.2377 74.8471 43.3061 74.8813 43.4202 74.9155C43.5228 74.9497 43.5912 74.984 43.6368 75.0182C43.7965 75.1208 43.9105 75.2234 43.9675 75.326C44.0587 75.4629 44.0929 75.6339 44.0929 75.8164C44.0929 76.1356 43.9789 76.3979 43.7394 76.5917C43.5 76.8084 43.1921 76.8996 42.8272 76.8996Z" fill="#999999"/>
<path d="M46.4186 75.6233H44.5372V75.0076H46.4186V75.6233Z" fill="#999999"/>
</g>
<mask id="mask7_60827_214016" style="mask-type:luminance" maskUnits="userSpaceOnUse" x="0" y="0" width="96" height="96">
<path d="M96 0H0V96H96V0Z" fill="white"/>
</mask>
<g mask="url(#mask7_60827_214016)">
<path d="M48.3247 76.9007C47.8914 76.9007 47.5379 76.7296 47.2871 76.4103C47.0362 76.0683 46.9108 75.635 46.9108 75.0876C46.9108 74.5403 47.0362 74.0956 47.2871 73.7649C47.5379 73.4342 47.88 73.2632 48.3247 73.2632C48.7694 73.2632 49.1115 73.4342 49.3624 73.7649C49.6132 74.0956 49.7387 74.5403 49.7387 75.0876C49.7387 75.635 49.6132 76.0797 49.3624 76.4103C49.1229 76.7296 48.7694 76.9007 48.3247 76.9007ZM49.0431 75.0762C49.0431 74.6999 48.9861 74.4149 48.8606 74.221C48.7352 74.0272 48.5642 73.9245 48.3247 73.9245C48.0853 73.9245 47.9142 74.0272 47.7888 74.221C47.6634 74.4149 47.6063 74.6999 47.6063 75.0762C47.6063 75.4525 47.6634 75.7376 47.7888 75.9314C47.9142 76.1253 48.0853 76.2279 48.3247 76.2279C48.5528 76.2279 48.7352 76.1253 48.8606 75.9314C48.9861 75.7262 49.0431 75.4525 49.0431 75.0762Z" fill="#999999"/>
<path d="M49.9783 73.9824V73.321H52.2475V73.9026L51.0616 76.8217H50.3318L51.4835 73.971H49.9783V73.9824Z" fill="#999999"/>
<path d="M54.7901 73.8912L54.1287 74.7464C54.3682 74.8148 54.5621 74.9402 54.7103 75.1227C54.8585 75.3051 54.9269 75.5104 54.9269 75.7498C54.9269 76.1147 54.8015 76.3884 54.5621 76.5936C54.3226 76.7989 54.0261 76.9015 53.6726 76.9015C53.399 76.9015 53.1481 76.8331 52.9315 76.7077C52.7148 76.5822 52.5666 76.3998 52.4639 76.1603L53.0569 75.8183C53.1367 76.0919 53.342 76.2288 53.6726 76.2288C53.8551 76.2288 53.9919 76.1831 54.0831 76.1033C54.1858 76.0235 54.2314 75.8981 54.2314 75.7498C54.2314 75.6016 54.1858 75.4876 54.0831 75.4078C53.9805 75.3279 53.8437 75.2823 53.6726 75.2823H53.5244L53.2621 74.8832L53.9577 73.9824H52.5894V73.321H54.7901V73.8912Z" fill="#999999"/>
<path d="M57.7437 74.4719C57.7437 74.7455 57.6753 74.985 57.5385 75.1788L56.4438 76.8323H55.657L56.4438 75.692C56.0789 75.692 55.7824 75.5779 55.5544 75.3499C55.3263 75.1218 55.2123 74.8368 55.2123 74.4833C55.2123 74.1184 55.3263 73.8333 55.5658 73.6053C55.8052 73.3772 56.1131 73.2632 56.478 73.2632C56.8543 73.2632 57.1622 73.3772 57.3902 73.6053C57.6297 73.8219 57.7437 74.1184 57.7437 74.4719ZM55.8965 74.4719C55.8965 74.6429 55.9535 74.7798 56.0675 74.8824C56.1815 74.985 56.3184 75.042 56.478 75.042C56.649 75.042 56.7973 74.985 56.8999 74.8824C57.0025 74.7798 57.0595 74.6429 57.0595 74.4719C57.0595 74.3008 57.0025 74.164 56.8999 74.0614C56.7973 73.9588 56.649 73.9017 56.478 73.9017C56.307 73.9017 56.1701 73.9588 56.0675 74.0614C55.9649 74.164 55.8965 74.3008 55.8965 74.4719Z" fill="#999999"/>
</g>
<mask id="mask8_60827_214016" style="mask-type:luminance" maskUnits="userSpaceOnUse" x="0" y="0" width="96" height="96">
<path d="M96 0H0V96H96V0Z" fill="white"/>
</mask>
<g mask="url(#mask8_60827_214016)">
<path d="M60.3195 72.8179L58.3126 77.322H58.0276L60.0344 72.8179H60.3195Z" fill="#999999"/>
<path d="M63.8199 76.8319H63.0673L62.862 76.2047H61.4595L61.2542 76.8319H60.5131L61.7446 73.3198H62.5998L63.8199 76.8319ZM62.1551 74.118L61.6761 75.5548H62.634L62.1551 74.118Z" fill="#999999"/>
</g>
<mask id="mask9_60827_214016" style="mask-type:luminance" maskUnits="userSpaceOnUse" x="0" y="0" width="96" height="96">
<path d="M96 0H0V96H96V0Z" fill="white"/>
</mask>
<g mask="url(#mask9_60827_214016)">
<path d="M53.012 6.59114L53.2401 3.60362L54.2093 3.67203L53.833 8.56383L53.1032 8.50681L51.2332 5.34824L51.0051 8.34717L50.0359 8.27876L50.4122 3.38696L51.1419 3.44398L53.012 6.59114Z" fill="#999999"/>
</g>
<mask id="mask10_60827_214016" style="mask-type:luminance" maskUnits="userSpaceOnUse" x="0" y="0" width="96" height="96">
<path d="M96 0H0V96H96V0Z" fill="white"/>
</mask>
<g mask="url(#mask10_60827_214016)">
<path d="M49.4641 8.2446L48.415 8.2674L47.3774 6.59119L46.6362 6.614L46.6818 8.31301L45.7125 8.33582L45.5757 3.43262L47.537 3.37561C47.9931 3.36421 48.3808 3.51244 48.7115 3.82032C49.0422 4.12819 49.2018 4.50449 49.2246 4.9606C49.236 5.26847 49.1562 5.55354 48.9851 5.81581C48.8141 6.07807 48.5975 6.28332 48.3124 6.42015L49.4641 8.2446ZM47.5826 4.28783L46.5906 4.31064L46.6248 5.75879L47.6168 5.73599C47.7993 5.73599 47.9589 5.65617 48.0843 5.50793C48.2098 5.35969 48.2668 5.18865 48.2668 4.9834C48.2668 4.77815 48.1869 4.61851 48.0615 4.48168C47.9247 4.34485 47.765 4.27643 47.5826 4.28783Z" fill="#999999"/>
</g>
<mask id="mask11_60827_214016" style="mask-type:luminance" maskUnits="userSpaceOnUse" x="0" y="0" width="96" height="96">
<path d="M96 0H0V96H96V0Z" fill="white"/>
</mask>
<g mask="url(#mask11_60827_214016)">
<path d="M58.8489 9.64706L57.8226 9.4076L57.7314 8.48398L55.8271 8.03927L55.3368 8.83746L54.322 8.59801L57.1042 4.19653L58.2673 4.4702L58.8489 9.64706ZM57.4349 5.42803L56.3289 7.22967L57.6402 7.53755L57.4349 5.42803Z" fill="#999999"/>
</g>
<mask id="mask12_60827_214016" style="mask-type:luminance" maskUnits="userSpaceOnUse" x="0" y="0" width="96" height="96">
<path d="M96 0H0V96H96V0Z" fill="white"/>
</mask>
<g mask="url(#mask12_60827_214016)">
<path d="M42.7458 6.64726L42.8826 7.74193L44.9351 7.47966L45.0492 8.40329L42.0274 8.77958L41.4231 3.91059L44.3992 3.5343L44.5132 4.45793L42.4949 4.70879L42.6204 5.74644L44.4676 5.51839L44.5817 6.4192L42.7458 6.64726Z" fill="#999999"/>
</g>
<mask id="mask13_60827_214016" style="mask-type:luminance" maskUnits="userSpaceOnUse" x="0" y="0" width="96" height="96">
<path d="M96 0H0V96H96V0Z" fill="white"/>
</mask>
<g mask="url(#mask13_60827_214016)">
<path d="M60.5144 4.99475L63.9352 6.13503L63.6387 7.01304L62.3844 6.59114L61.1301 10.3769L60.2065 10.069L61.4722 6.29467L60.2179 5.87277L60.5144 4.99475Z" fill="#999999"/>
</g>
<mask id="mask14_60827_214016" style="mask-type:luminance" maskUnits="userSpaceOnUse" x="0" y="0" width="96" height="96">
<path d="M96 0H0V96H96V0Z" fill="white"/>
</mask>
<g mask="url(#mask14_60827_214016)">
<path d="M36.875 4.88113L40.3985 4.07153L40.6037 4.97235L39.3152 5.26882L40.216 9.14577L39.2696 9.36242L38.3688 5.48548L37.0803 5.78195L36.875 4.88113Z" fill="#999999"/>
</g>
<mask id="mask15_60827_214016" style="mask-type:luminance" maskUnits="userSpaceOnUse" x="0" y="0" width="96" height="96">
<path d="M96 0H0V96H96V0Z" fill="white"/>
</mask>
<g mask="url(#mask15_60827_214016)">
<path d="M62.875 11.0262L64.688 6.46509L65.5889 6.81857L63.7758 11.3797L62.875 11.0262Z" fill="#999999"/>
</g>
<mask id="mask16_60827_214016" style="mask-type:luminance" maskUnits="userSpaceOnUse" x="0" y="0" width="96" height="96">
<path d="M96 0H0V96H96V0Z" fill="white"/>
</mask>
<g mask="url(#mask16_60827_214016)">
<path d="M35.9162 8.27761L34.8443 5.48393L35.7452 5.14185L37.5126 9.72576L36.8284 9.98803L33.7839 7.94693L34.8558 10.752L33.9549 11.0941L32.1875 6.51018L32.8717 6.24792L35.9162 8.27761Z" fill="#999999"/>
</g>
<mask id="mask17_60827_214016" style="mask-type:luminance" maskUnits="userSpaceOnUse" x="0" y="0" width="96" height="96">
<path d="M96 0H0V96H96V0Z" fill="white"/>
</mask>
<g mask="url(#mask17_60827_214016)">
<path d="M68.5975 13.0327C67.9361 13.2493 67.2861 13.1923 66.6476 12.8617C66.009 12.5424 65.5871 12.0407 65.3705 11.3793C65.1652 10.7065 65.2222 10.0566 65.5415 9.42941C65.8722 8.79086 66.3625 8.36896 67.0239 8.1523C67.6852 7.93565 68.3352 7.99266 68.9738 8.31194C69.6123 8.63122 70.0342 9.13294 70.2509 9.7943C70.4675 10.4557 70.4105 11.1056 70.0912 11.7442C69.7605 12.3941 69.2588 12.816 68.5975 13.0327ZM66.2827 11.1056C66.4081 11.5047 66.6818 11.8126 67.0809 12.0178C67.48 12.2231 67.8905 12.2573 68.2896 12.1319C68.7001 11.995 69.008 11.7214 69.2246 11.3109C69.4413 10.9004 69.4755 10.4785 69.35 10.068C69.2132 9.65747 68.9509 9.34959 68.5519 9.14434C68.1528 8.93909 67.7422 8.90489 67.3432 9.04172C66.9327 9.17855 66.6248 9.45222 66.4081 9.86272C66.1801 10.2846 66.1459 10.6951 66.2827 11.1056Z" fill="#999999"/>
</g>
<mask id="mask18_60827_214016" style="mask-type:luminance" maskUnits="userSpaceOnUse" x="0" y="0" width="96" height="96">
<path d="M96 0H0V96H96V0Z" fill="white"/>
</mask>
<g mask="url(#mask18_60827_214016)">
<path d="M32.1433 11.8468L30.125 7.37688L31.003 6.97778L33.0213 11.4477L32.1433 11.8468Z" fill="#999999"/>
</g>
<mask id="mask19_60827_214016" style="mask-type:luminance" maskUnits="userSpaceOnUse" x="0" y="0" width="96" height="96">
<path d="M96 0H0V96H96V0Z" fill="white"/>
</mask>
<g mask="url(#mask19_60827_214016)">
<path d="M72.9326 14.4593L74.6659 12.0191L75.4527 12.5779L72.602 16.5802L71.9976 16.1583L72.0204 12.4866L70.2758 14.9268L69.489 14.3681L72.3397 10.3657L72.944 10.7876L72.9326 14.4593Z" fill="#999999"/>
</g>
<mask id="mask20_60827_214016" style="mask-type:luminance" maskUnits="userSpaceOnUse" x="0" y="0" width="96" height="96">
<path d="M96 0H0V96H96V0Z" fill="white"/>
</mask>
<g mask="url(#mask20_60827_214016)">
<path d="M24.4915 10.3994L27.6159 8.59778L28.0834 9.39597L26.9317 10.0573L28.9272 13.5124L28.0834 13.9913L26.0879 10.5363L24.9476 11.1976L24.4915 10.3994Z" fill="#999999"/>
</g>
<mask id="mask21_60827_214016" style="mask-type:luminance" maskUnits="userSpaceOnUse" x="0" y="0" width="96" height="96">
<path d="M96 0H0V96H96V0Z" fill="white"/>
</mask>
<g mask="url(#mask21_60827_214016)">
<path d="M76.489 19.9323L75.6908 19.2481L76.0443 18.3815L74.562 17.1044L73.7638 17.5833L72.977 16.8991L77.4811 14.2993L78.3933 15.0861L76.489 19.9323ZM77.2074 15.5422L75.383 16.6255L76.3978 17.5035L77.2074 15.5422Z" fill="#999999"/>
</g>
<mask id="mask22_60827_214016" style="mask-type:luminance" maskUnits="userSpaceOnUse" x="0" y="0" width="96" height="96">
<path d="M96 0H0V96H96V0Z" fill="white"/>
</mask>
<g mask="url(#mask22_60827_214016)">
<path d="M26.9096 14.7318L26.0544 15.3475L24.2413 14.5265L23.637 14.9598L24.629 16.3624L23.8308 16.9325L20.9688 12.8845L22.5765 11.7442C22.9528 11.482 23.3633 11.3794 23.808 11.4592C24.2528 11.539 24.6062 11.7556 24.8685 12.1205C25.0509 12.3714 25.1422 12.6565 25.1536 12.9643C25.165 13.2836 25.0852 13.5687 24.9369 13.8424L26.9096 14.7318ZM23.1125 12.4854L22.2915 13.067L23.1467 14.2529L23.9677 13.6713C24.1159 13.5687 24.2071 13.409 24.2299 13.2152C24.2528 13.0214 24.2071 12.8389 24.0931 12.6793C23.9791 12.5196 23.8194 12.417 23.637 12.3714C23.4318 12.3372 23.2607 12.3714 23.1125 12.4854Z" fill="#999999"/>
</g>
<mask id="mask23_60827_214016" style="mask-type:luminance" maskUnits="userSpaceOnUse" x="0" y="0" width="96" height="96">
<path d="M96 0H0V96H96V0Z" fill="white"/>
</mask>
<g mask="url(#mask23_60827_214016)">
<path d="M20.3989 17.3204L21.1629 18.13L22.6795 16.6933L23.3181 17.366L21.0945 19.4755L17.6851 15.8951L19.8744 13.8083L20.513 14.4811L19.0306 15.8951L19.7604 16.659L21.1173 15.3705L21.7559 16.0319L20.3989 17.3204Z" fill="#999999"/>
</g>
<mask id="mask24_60827_214016" style="mask-type:luminance" maskUnits="userSpaceOnUse" x="0" y="0" width="96" height="96">
<path d="M96 0H0V96H96V0Z" fill="white"/>
</mask>
<g mask="url(#mask24_60827_214016)">
<path d="M81.1183 17.8567L78.108 20.4565L79.3281 21.8704L78.6325 22.4748L76.7738 20.3197L80.4912 17.1155L81.1183 17.8567Z" fill="#999999"/>
</g>
<mask id="mask25_60827_214016" style="mask-type:luminance" maskUnits="userSpaceOnUse" x="0" y="0" width="96" height="96">
<path d="M96 0H0V96H96V0Z" fill="white"/>
</mask>
<g mask="url(#mask25_60827_214016)">
<path d="M19.2684 21.5618C18.7895 22.1205 18.1966 22.4284 17.501 22.474C16.8169 22.5196 16.1897 22.303 15.6424 21.8241C15.0836 21.3451 14.7872 20.7636 14.7301 20.0794C14.6731 19.3839 14.8898 18.7567 15.3687 18.198C15.6652 17.8559 16.0073 17.6164 16.4178 17.4682C16.8283 17.32 17.2274 17.2744 17.6379 17.3542L17.4554 18.312C17.2045 18.255 16.9651 18.2778 16.7256 18.369C16.4862 18.4602 16.2695 18.6085 16.0871 18.8251C15.7678 19.19 15.631 19.5777 15.6652 19.9996C15.7108 20.4215 15.9046 20.7864 16.2695 21.0943C16.623 21.4022 17.0107 21.5504 17.444 21.5276C17.8659 21.5048 18.2308 21.2995 18.5501 20.9346C18.7325 20.718 18.8579 20.4899 18.915 20.2277C18.972 19.9768 18.9492 19.726 18.8694 19.4979L19.793 19.1786C19.9298 19.5777 19.9526 19.9882 19.8614 20.4101C19.7474 20.8434 19.5535 21.2311 19.2684 21.5618Z" fill="#999999"/>
</g>
<mask id="mask26_60827_214016" style="mask-type:luminance" maskUnits="userSpaceOnUse" x="0" y="0" width="96" height="96">
<path d="M96 0H0V96H96V0Z" fill="white"/>
</mask>
<g mask="url(#mask26_60827_214016)">
<path fill-rule="evenodd" clip-rule="evenodd" d="M30.9127 34.7337C34.1739 33.3653 38.2447 32.3619 42.7716 31.9058L42.6804 31.9514L42.555 32.0198L42.5094 32.0426L42.4067 32.0996C42.3497 32.1338 42.3041 32.1566 42.2471 32.1908L42.1559 32.2478C42.0989 32.2821 42.0533 32.3049 41.9962 32.3391L41.8936 32.4075C41.8366 32.4417 41.7796 32.4759 41.7226 32.5101L41.6542 32.5557C41.5971 32.5899 41.5401 32.6241 41.4831 32.6697L41.3919 32.7268C41.3349 32.761 41.2893 32.7952 41.2323 32.8294L41.1524 32.8864L41.1182 32.9092L40.9928 33.0004L40.97 33.0118L40.8902 33.0688L40.7989 33.1373L40.7077 33.2057L40.6735 33.2399C40.6279 33.2741 40.5937 33.3083 40.5481 33.3425L40.5367 33.3539L40.4911 33.3995L40.4341 33.4565L40.4113 33.4793L40.3998 33.4908C40.3542 33.5364 40.3086 33.5706 40.263 33.6162L40.206 33.6732L40.1946 33.6846C40.149 33.7302 40.092 33.7758 40.0464 33.8328L39.9551 33.9241C39.9095 33.9697 39.8639 34.0153 39.8069 34.0723L39.7955 34.0837L39.7271 34.1521C39.6815 34.1977 39.6359 34.2433 39.5903 34.2889L39.5674 34.3117L39.5446 34.3346C39.499 34.3802 39.4534 34.4258 39.4078 34.4828L39.3394 34.5626C39.271 34.6424 39.2026 34.7108 39.1455 34.7907L39.1227 34.8135C39.0771 34.8591 39.0429 34.9161 38.9973 34.9617L38.9859 34.9731L38.9631 35.0073C38.9289 35.0529 38.8833 35.0985 38.8491 35.1556L38.8035 35.2126L38.7921 35.224L38.7807 35.2354L38.7693 35.2468C38.7236 35.3038 38.678 35.3722 38.6324 35.4292L38.621 35.4406L38.6096 35.452L38.5982 35.4634L38.5868 35.4748C38.5412 35.5318 38.507 35.5889 38.4614 35.6459L38.45 35.6573L38.4386 35.6687L38.4272 35.6801L38.4158 35.6915L38.4044 35.7029L38.393 35.7143C38.3588 35.7599 38.3245 35.8055 38.3017 35.8625L38.2903 35.8739L38.2219 35.9652L38.2105 35.9766L38.1991 35.988L38.1421 36.0678L38.1307 36.0792L38.0851 36.1476V36.159L38.0395 36.2388V36.2502L38.0053 36.3186V36.33V36.3414C37.9825 36.3871 37.9483 36.4327 37.9254 36.4783C37.3211 36.3642 36.7396 36.2388 36.1808 36.1134C33.8889 35.9309 32.2127 35.3722 30.9127 34.7337ZM22.8738 42.5788C23.1474 39.7395 25.7245 37.1738 29.7839 35.2354C31.2434 36.0678 33.2503 36.7976 35.6449 37.3563C36.1238 37.4703 36.6255 37.5729 37.1387 37.6756L37.1273 37.7098L37.0702 37.8352C37.0474 37.8808 37.0246 37.9264 37.0132 37.972C36.9904 38.0291 36.9676 38.0747 36.9448 38.1317L36.8878 38.2571L36.8194 38.4167L36.7738 38.5194C36.751 38.5878 36.7282 38.6448 36.7053 38.7132L36.6711 38.8158C36.6483 38.8729 36.6255 38.9299 36.6141 38.9869L36.5799 39.0895C36.5571 39.1579 36.5343 39.2149 36.5115 39.2834L36.4773 39.386C36.4545 39.4544 36.4317 39.5228 36.4203 39.5912L36.3747 39.6825C36.3519 39.7623 36.3291 39.8421 36.3063 39.9219L36.2948 39.9789C36.272 40.0588 36.2492 40.1386 36.2378 40.2298L36.2264 40.2868C36.2036 40.3666 36.1922 40.4578 36.1694 40.5491L36.158 40.5833C36.1352 40.6745 36.1238 40.7657 36.101 40.8455L36.0896 40.9026C36.0782 40.9938 36.0554 41.085 36.044 41.1762V41.1876V41.199C36.0326 41.2902 36.0212 41.3929 35.9984 41.4841V41.5183C35.987 41.6209 35.9756 41.7122 35.9642 41.8148V41.8262C35.9528 41.9288 35.9414 42.0314 35.9414 42.1227V42.1455C35.93 42.2481 35.93 42.3507 35.9186 42.4533L35.9072 42.6016H22.8738V42.5788ZM29.7839 50.9142C25.7245 48.9757 23.1474 46.4101 22.8738 43.5708H35.9186L35.93 43.719C35.93 43.8217 35.9414 43.9243 35.9528 44.0269V44.0497C35.9642 44.1523 35.9642 44.255 35.9756 44.3462V44.3576C35.987 44.4602 35.9984 44.5514 36.0098 44.6541V44.6883C36.0212 44.7795 36.0326 44.8821 36.0554 44.9733V44.9848V44.9962C36.0668 45.0874 36.0896 45.1786 36.101 45.2698L36.1124 45.3268C36.1238 45.4181 36.1466 45.5093 36.1694 45.5891L36.1808 45.6233C36.2036 45.7145 36.215 45.7943 36.2378 45.8856L36.2492 45.9426C36.272 46.0224 36.2834 46.1022 36.3063 46.1934L36.3177 46.2505C36.3405 46.3303 36.3633 46.4101 36.3861 46.4899L36.4089 46.5583C36.4317 46.6267 36.4545 46.6952 36.4659 46.7636L36.5001 46.8662C36.5229 46.9346 36.5457 46.9916 36.5685 47.0601L36.6027 47.1627C36.6255 47.2197 36.6483 47.2767 36.6597 47.3337L36.6939 47.4363C36.7168 47.5048 36.7396 47.5618 36.7624 47.6302L36.808 47.7328C36.8308 47.7898 36.8536 47.8354 36.8764 47.8925L36.9334 48.0179C36.9562 48.0749 36.979 48.1205 37.0018 48.1775C37.0246 48.2231 37.0474 48.2688 37.0588 48.3144L37.1159 48.4398L37.1273 48.474C36.6141 48.5766 36.1238 48.6793 35.6335 48.7933C33.2389 49.352 31.232 50.0704 29.7839 50.9142ZM42.783 54.2438C38.2561 53.7877 34.1853 52.7843 30.9241 51.4159C32.2127 50.7774 33.9003 50.2072 35.8729 49.7511C36.4317 49.6143 37.0132 49.5003 37.6176 49.3862L37.686 49.5117V49.5231V49.5345V49.5459L37.7316 49.6257V49.6371L37.7772 49.7055V49.7169L37.8228 49.7853L37.8342 49.7967L37.8912 49.8765L37.9026 49.8879L37.914 49.8993L37.9825 49.9906L37.9939 50.002C38.0281 50.0476 38.0623 50.0932 38.0851 50.1502L38.0965 50.1616L38.1079 50.173L38.1193 50.1844L38.1307 50.1958L38.1421 50.2072L38.1535 50.2186C38.1877 50.2756 38.2219 50.3212 38.2675 50.3783L38.2789 50.3897L38.2903 50.4011L38.3017 50.4125L38.3131 50.4239L38.3245 50.4353L38.3359 50.4467C38.3816 50.5037 38.4158 50.5607 38.4614 50.6177L38.4728 50.6291L38.4842 50.6405L38.4956 50.6519L38.5412 50.7089C38.5754 50.7546 38.621 50.8002 38.6552 50.8572L38.678 50.8914L38.6894 50.9028C38.735 50.9484 38.7693 51.0054 38.8149 51.051L38.8377 51.0738C38.9061 51.1537 38.9631 51.2221 39.0315 51.3019L39.0999 51.3817C39.1455 51.4273 39.1912 51.4729 39.2368 51.5299L39.2596 51.5528L39.2824 51.5756C39.328 51.6212 39.3736 51.6668 39.4192 51.7124L39.4876 51.7808L39.499 51.7922C39.5446 51.8378 39.5903 51.8834 39.6473 51.9404L39.7385 52.0317C39.7841 52.0773 39.8411 52.1229 39.8867 52.1799L39.8981 52.1913L39.9551 52.2483C40.0008 52.2939 40.0464 52.3281 40.092 52.3738L40.1034 52.3852L40.1262 52.408L40.1832 52.4536L40.2288 52.4992C40.2858 52.5448 40.3542 52.6018 40.4113 52.6474H40.4227L40.4569 52.6816L40.5367 52.75L40.6279 52.8185L40.7077 52.8755L40.7305 52.8869L40.856 52.9781L40.8902 53.0009L40.97 53.0579C41.0156 53.0921 41.0612 53.1263 41.1182 53.1605L41.2323 53.2404L41.3691 53.3316L41.4831 53.4C41.5287 53.4228 41.5743 53.457 41.6199 53.4798L41.734 53.5482L41.8822 53.6395L41.9962 53.7079C42.0418 53.7307 42.0875 53.7649 42.1445 53.7877L42.2813 53.8561L42.3953 53.9245L42.783 54.2438ZM66.0219 51.4159C62.7607 52.7843 58.6899 53.7877 54.163 54.2438L54.2428 54.2096C54.2998 54.1754 54.3569 54.1526 54.4139 54.1184L54.4823 54.0842C54.5621 54.0386 54.6305 54.0044 54.7103 53.9587L54.7902 53.9131L54.9384 53.8219L55.0296 53.7649C55.098 53.7193 55.1665 53.6851 55.2349 53.6395L55.3261 53.5824L55.4515 53.5026L55.5541 53.4342L55.6796 53.343C55.7252 53.3088 55.7708 53.286 55.805 53.2518C55.8506 53.2176 55.9076 53.1833 55.9532 53.1491L56.0559 53.0693L56.1585 52.9895L56.2611 52.9097L56.3523 52.8299C56.4208 52.7728 56.4778 52.7272 56.5462 52.6702L56.626 52.6018L56.7286 52.5106L56.8313 52.4194C56.8883 52.3624 56.9453 52.3167 57.0023 52.2597C57.0365 52.2369 57.0593 52.2027 57.0935 52.1799C57.1277 52.1457 57.1619 52.1115 57.1961 52.0773L57.276 51.9975L57.3672 51.9062C57.4014 51.872 57.4356 51.8378 57.4698 51.7922C57.5268 51.7352 57.5724 51.6782 57.6295 51.6212L57.6865 51.5528L57.8005 51.4387L57.8689 51.3589C57.9373 51.2905 57.9943 51.2107 58.0628 51.1308L58.1084 51.0738C58.1426 51.0282 58.1768 50.9826 58.2224 50.937L58.268 50.88C58.3022 50.8344 58.3364 50.7888 58.3706 50.7432L58.4048 50.6975C58.4733 50.6063 58.5417 50.5151 58.6101 50.4239L58.6443 50.3783C58.6785 50.3327 58.7127 50.287 58.7469 50.2414L58.7925 50.1844C58.861 50.0932 58.918 50.002 58.975 49.9108L59.0092 49.8651L59.089 49.7283L59.146 49.6485C59.1802 49.6029 59.203 49.5573 59.2372 49.5117L59.2715 49.4546L59.3171 49.3748C59.9214 49.4888 60.503 49.6143 61.0617 49.7397C63.0458 50.2186 64.722 50.7774 66.0219 51.4159ZM74.0609 43.5708C73.7872 46.4101 71.2102 48.9757 67.1508 50.9142C65.6912 50.0818 63.6843 49.352 61.2897 48.7933C60.8108 48.6793 60.3091 48.5766 59.796 48.474C60.5144 46.9802 60.9363 45.3268 61.0047 43.5822H74.0609V43.5708ZM67.1508 35.2354C71.2102 37.1738 73.7872 39.7395 74.0609 42.5788H61.0161C60.9477 40.8341 60.5144 39.1807 59.8074 37.687C60.3205 37.5843 60.8108 37.4817 61.3011 37.3677C63.6957 36.7976 65.7026 36.0792 67.1508 35.2354ZM54.1516 31.9058C58.6785 32.3619 62.7493 33.3653 66.0105 34.7337C64.722 35.3722 63.0344 35.9423 61.0617 36.3985C60.503 36.5353 59.9214 36.6493 59.3171 36.7633L59.2715 36.6835L59.2372 36.6265C59.2144 36.5809 59.1802 36.5353 59.146 36.4897L59.089 36.4099C59.0662 36.3642 59.032 36.3186 59.0092 36.273L58.975 36.2274C58.918 36.1362 58.8495 36.045 58.7925 35.9537L58.7469 35.8967C58.7127 35.8511 58.6785 35.8055 58.6443 35.7599L58.6101 35.7143C58.5417 35.6231 58.4733 35.5318 58.4048 35.4406L58.3706 35.395C58.3364 35.3494 58.3022 35.3038 58.268 35.2582L58.2224 35.2012C58.1882 35.1556 58.154 35.1099 58.1084 35.0643L58.0628 35.0073C57.9943 34.9275 57.9373 34.8591 57.8689 34.7793L57.8005 34.6994C57.7663 34.6538 57.7321 34.6196 57.6865 34.5854L57.6295 34.517C57.5724 34.46 57.5268 34.403 57.4698 34.346C57.4356 34.3118 57.4014 34.2775 57.3672 34.2319L57.276 34.1407L57.1961 34.0609C57.1619 34.0267 57.1277 33.9925 57.0935 33.9583L57.0023 33.8784C56.9453 33.8214 56.8883 33.7758 56.8313 33.7188L56.7286 33.6276C56.6944 33.5934 56.6602 33.5706 56.626 33.5364L56.5462 33.4679C56.4778 33.4109 56.4208 33.3653 56.3523 33.3083L56.2611 33.2285L56.1585 33.1487L56.0559 33.0688L55.9532 32.989C55.9076 32.9548 55.862 32.9206 55.805 32.8864L55.6796 32.7952L55.5541 32.704L55.4515 32.6355C55.4059 32.6127 55.3717 32.5785 55.3261 32.5557L55.2349 32.4987C55.1665 32.4531 55.098 32.4189 55.0296 32.3733L54.9384 32.3163L54.7902 32.225L54.7103 32.1794C54.6419 32.1338 54.5621 32.0996 54.4823 32.054L54.4139 32.0198C54.3569 31.9856 54.2998 31.9628 54.2428 31.9286L54.1516 31.9058ZM60.024 43.5708C59.9556 45.2584 59.5109 46.8548 58.7925 48.2802C55.8734 47.7784 52.5324 47.482 48.9633 47.4592V43.5708H60.024ZM58.7925 37.8694C59.5109 39.2948 59.9556 40.8912 60.024 42.5788H48.9633V38.6904C52.5324 38.6676 55.8734 38.3711 58.7925 37.8694ZM48.9633 35.3722C50.8448 35.4862 52.5324 36.273 53.8095 37.4931C52.2587 37.6186 50.6395 37.687 48.9633 37.6984V35.3722ZM43.1251 37.4931C44.4022 36.273 46.1012 35.4862 47.9713 35.3722V37.6984C46.2951 37.687 44.6759 37.6186 43.1251 37.4931ZM40.7419 42.5788C40.8446 41.0166 41.4033 39.5912 42.2927 38.4167C44.0944 38.5878 45.9986 38.679 47.9713 38.7018V42.5902H40.7419V42.5788ZM42.2927 47.7328C41.4033 46.5583 40.8332 45.133 40.7419 43.5708H47.9713V47.4592C45.9986 47.4706 44.0944 47.5732 42.2927 47.7328ZM47.9713 50.7774C46.0898 50.6633 44.4022 49.8765 43.1251 48.6564C44.6759 48.531 46.2951 48.4626 47.9713 48.4512V50.7774ZM53.8095 48.6564C52.5324 49.8765 50.8334 50.6633 48.9633 50.7774V48.4512C50.6395 48.4626 52.2587 48.531 53.8095 48.6564Z" fill="#999999"/>
</g>
<path d="M55.6289 86.6144C55.8338 82.9928 53.0639 79.8909 49.4423 79.6861C45.8207 79.4812 42.7188 82.2511 42.5139 85.8727C42.3091 89.4943 45.079 92.5962 48.7006 92.801C52.3222 93.0059 55.4241 90.236 55.6289 86.6144Z" fill="#999999"/>
<mask id="mask27_60827_214016" style="mask-type:luminance" maskUnits="userSpaceOnUse" x="0" y="0" width="96" height="96">
<path d="M96 0H0V96H96V0Z" fill="white"/>
</mask>
<g mask="url(#mask27_60827_214016)">
<path fill-rule="evenodd" clip-rule="evenodd" d="M44.4942 84.4259L48.4966 88.1888L56.6382 80.2981L58.1775 82.0199L48.4738 91.7123L42.875 86.0109L44.4942 84.4259Z" fill="#999999"/>
</g>
<mask id="mask28_60827_214016" style="mask-type:luminance" maskUnits="userSpaceOnUse" x="0" y="0" width="96" height="96">
<path d="M96 0H0V96H96V0Z" fill="white"/>
</mask>
<g mask="url(#mask28_60827_214016)">
<path d="M44.4942 84.4259L48.4966 88.1888L56.6382 80.2981L58.1775 82.0199L48.4738 91.7123L42.875 86.0109L44.4942 84.4259Z" fill="#191B1D" stroke="#999999" stroke-width="0.078" stroke-miterlimit="22.9256"/>
</g>
</g>
<defs>
<clipPath id="clip0_60827_214016">
<rect width="96" height="96" fill="white"/>
</clipPath>
</defs>
</svg>
