<svg xmlns="http://www.w3.org/2000/svg" width="126" height="85" viewBox="0 0 126 85" fill="none"><g clip-path="url(#clip0_61529_2270)"><path d="M47.3939 22.0429V30.0345H45.9873V23.7691H45.9664L43.4548 30.0345H42.5231L39.9488 23.7691H39.9309V30.0345H38.6318V22.0429H40.6476L42.974 27.9679H43.0069L45.4617 22.0429H47.3939Z" fill="#999999"></path><path d="M50.0747 30.0348H48.7099V24.3069H50.0747V30.0348ZM48.5665 22.6495C48.5635 22.4345 48.6531 22.2314 48.8114 22.0881C48.9697 21.9387 49.1787 21.8581 49.3968 21.8611C49.6177 21.8551 49.8328 21.9387 49.994 22.091C50.1463 22.2344 50.2329 22.4345 50.23 22.6465C50.2329 22.8585 50.1433 23.0586 49.9881 23.199C49.8268 23.3483 49.6148 23.426 49.3938 23.423C49.1758 23.4289 48.9637 23.3483 48.8025 23.196C48.6472 23.0556 48.5606 22.8556 48.5636 22.6465" fill="#999999"></path><path d="M54.1925 29.052C54.4224 29.046 54.6494 28.9983 54.8644 28.9117C55.1063 28.8191 55.3333 28.6966 55.5423 28.5443V29.7986C55.3094 29.927 55.0585 30.0196 54.7987 30.0764C54.5001 30.1421 54.1925 30.1749 53.8879 30.1719C53.1144 30.2018 52.3588 29.9151 51.8063 29.3716C51.2688 28.831 50.9791 28.0904 51.006 27.3289C50.9761 26.4927 51.2688 25.6774 51.8243 25.0532C52.3708 24.456 53.1442 24.1573 54.1447 24.1573C54.4075 24.1573 54.6673 24.1902 54.9211 24.2559C55.1391 24.3037 55.3482 24.3813 55.5453 24.4828V25.776C55.3452 25.6296 55.1302 25.5102 54.9002 25.4236C54.6852 25.3399 54.4553 25.2981 54.2253 25.2981C53.7355 25.2772 53.2637 25.4654 52.9203 25.8178C52.5768 26.2 52.3976 26.7017 52.4245 27.2154C52.3947 27.7141 52.5679 28.2009 52.9023 28.5682C53.2488 28.9027 53.7176 29.0789 54.1984 29.052" fill="#999999"></path><path d="M59.4307 24.2114C59.5293 24.2114 59.6278 24.2174 59.7234 24.2323C59.7981 24.2443 59.8727 24.2622 59.9444 24.2891V25.6538C59.8488 25.5881 59.7413 25.5404 59.6308 25.5075C59.4695 25.4567 59.2993 25.4329 59.1321 25.4388C58.7976 25.4388 58.484 25.5911 58.284 25.8569C58.0241 26.2332 57.9017 26.6871 57.9375 27.1441V30.0349H56.5728V24.307H57.9375V25.2089H57.9584C58.0689 24.9132 58.266 24.6594 58.5229 24.4772C58.7916 24.295 59.1082 24.2025 59.4307 24.2114Z" fill="#999999"></path><path d="M61.446 27.2101C61.4132 27.7028 61.5595 28.1896 61.8581 28.5808C62.1598 28.9093 62.5928 29.0825 63.0378 29.0556C63.4708 29.0825 63.8889 28.9093 64.1726 28.5808C64.4593 28.1717 64.5967 27.6759 64.5608 27.1772C64.5967 26.6785 64.4533 26.1827 64.1577 25.7796C63.871 25.4571 63.4559 25.2838 63.0258 25.3077C62.5808 25.2838 62.1538 25.466 61.8611 25.8005C61.5595 26.2066 61.4132 26.7054 61.446 27.2071M60.0245 27.2549C59.9797 26.4246 60.2724 25.6123 60.8368 25.0031C61.44 24.4238 62.2583 24.1251 63.0945 24.1729C63.8829 24.1281 64.6564 24.4178 65.2208 24.9733C65.7524 25.5646 66.0271 26.341 65.9853 27.1324C66.0271 27.9507 65.7315 28.751 65.173 29.3513C64.5817 29.9217 63.7814 30.2203 62.9601 30.1755C62.1687 30.2174 61.3953 29.9336 60.8189 29.3931C60.2694 28.8197 59.9827 28.0462 60.0275 27.2549" fill="#999999"></path><path d="M68.0173 25.8094C68.0083 25.9796 68.077 26.1469 68.2025 26.2633C68.4563 26.4395 68.734 26.5799 69.0267 26.6784C69.4627 26.8218 69.8569 27.0726 70.1765 27.4041C70.4004 27.6819 70.5169 28.0283 70.508 28.3807C70.5229 28.8913 70.287 29.3751 69.8778 29.6797C69.3821 30.0292 68.7818 30.2024 68.1756 30.1695C67.9068 30.1695 67.641 30.1367 67.3782 30.0829C67.1244 30.0351 66.8735 29.9635 66.6346 29.8619V28.536C66.8825 28.7062 67.1513 28.8436 67.435 28.9421C67.6828 29.0347 67.9486 29.0855 68.2144 29.0914C68.4503 29.1064 68.6833 29.0616 68.8983 28.963C69.0476 28.8734 69.1342 28.7062 69.1193 28.533C69.1193 28.3478 69.0357 28.1746 68.8893 28.0611C68.6235 27.873 68.3309 27.7237 68.0233 27.6191C67.6141 27.4758 67.2468 27.2339 66.9512 26.9173C66.7332 26.6336 66.6197 26.2842 66.6346 25.9259C66.6256 25.4271 66.8586 24.9523 67.2588 24.6537C67.7246 24.3043 68.295 24.1281 68.8744 24.1549C69.1043 24.1549 69.3313 24.1788 69.5583 24.2206C69.7733 24.2565 69.9853 24.3132 70.1914 24.3938V25.678C69.9943 25.5496 69.7823 25.448 69.5583 25.3704C69.3283 25.2868 69.0864 25.245 68.8415 25.242C68.6295 25.23 68.4175 25.2808 68.2353 25.3913C68.095 25.4809 68.0143 25.6392 68.0173 25.8034" fill="#999999"></path><mask id="mask0_61529_2270" style="mask-type:luminance" maskUnits="userSpaceOnUse" x="17" y="21" width="78" height="18"><path d="M17.4263 21.4497V38.1495H94.475V21.4497" fill="white"></path></mask><g mask="url(#mask0_61529_2270)"><path d="M72.5285 27.2107C72.4957 27.7034 72.642 28.1902 72.9407 28.5814C73.2423 28.9099 73.6753 29.0831 74.1203 29.0562C74.5533 29.0831 74.9714 28.9099 75.2551 28.5814C75.5418 28.1723 75.6792 27.6765 75.6433 27.1778C75.6792 26.6791 75.5358 26.1833 75.2402 25.7802C74.9535 25.4576 74.5384 25.2844 74.1083 25.3083C73.6634 25.2844 73.2363 25.4666 72.9436 25.8011C72.642 26.2072 72.4957 26.706 72.5285 27.2077M71.107 27.2554C71.0622 26.4252 71.3549 25.6129 71.9193 25.0037C72.5226 24.4244 73.3408 24.1257 74.177 24.1735C74.9654 24.1287 75.7389 24.4184 76.3033 24.9738C76.8349 25.5652 77.1097 26.3416 77.0678 27.133C77.1097 27.9513 76.817 28.7516 76.2555 29.3519C75.6642 29.9223 74.8639 30.2209 74.0426 30.1761C73.2512 30.2179 72.4778 29.9342 71.9014 29.3937C71.3519 28.8203 71.0652 28.0468 71.107 27.2554Z" fill="#999999"></path><path d="M80.2702 21.4525C80.4166 21.4525 80.5629 21.4585 80.7092 21.4764C80.8227 21.4913 80.9362 21.5152 81.0467 21.5511V22.7157C80.972 22.6769 80.8914 22.6441 80.8108 22.6202C80.6853 22.5814 80.5539 22.5634 80.4225 22.5634C80.1747 22.5485 79.9328 22.6441 79.7625 22.8292C79.5923 23.0532 79.5117 23.3309 79.5296 23.6117V24.3045H80.8227V25.4065H79.5296V30.0324H78.1439V25.4065H77.1733V24.3045H78.1439V23.5071C78.126 22.9517 78.341 22.4141 78.7382 22.0259C79.1473 21.6347 79.6998 21.4286 80.2643 21.4495" fill="#999999"></path></g><path d="M83.7572 29.0527C83.8558 29.0497 83.9513 29.0318 84.0439 28.996C84.1455 28.9631 84.244 28.9183 84.3336 28.8616V29.9755C84.1962 30.0412 84.0499 30.086 83.9006 30.1099C83.7035 30.1517 83.5064 30.1696 83.3063 30.1726C82.8314 30.2084 82.3596 30.0442 82.0102 29.7187C81.6936 29.3364 81.5383 28.8436 81.5772 28.3509V25.4093H80.6245V24.3043H81.5772V23.0172L82.9479 22.6051V24.3043H84.3306V25.4093H82.9479V28.0881C82.921 28.3509 82.9927 28.6167 83.142 28.8347C83.3063 28.993 83.5273 29.0706 83.7542 29.0527" fill="#999999"></path><mask id="mask1_61529_2270" style="mask-type:luminance" maskUnits="userSpaceOnUse" x="17" y="21" width="78" height="18"><path d="M17.4263 21.4497V38.1495H94.475V21.4497" fill="white"></path></mask><g mask="url(#mask1_61529_2270)"><path d="M38.4163 37.8634V37.0063C38.4999 37.0809 38.5955 37.1436 38.694 37.1944C38.8045 37.2512 38.918 37.2989 39.0374 37.3348C39.1569 37.3736 39.2764 37.4035 39.3988 37.4244C39.5093 37.4453 39.6198 37.4542 39.7333 37.4542C40.008 37.4721 40.2828 37.4124 40.5247 37.278C40.6949 37.1675 40.7934 36.9734 40.7845 36.7703C40.7845 36.6598 40.7576 36.5523 40.6979 36.4598C40.6322 36.3642 40.5515 36.2836 40.456 36.2208C40.3395 36.1402 40.2171 36.0715 40.0887 36.0118C39.9483 35.9461 39.796 35.8744 39.6377 35.8028C39.4645 35.7102 39.3032 35.6206 39.1539 35.525C39.0136 35.4384 38.8822 35.3339 38.7657 35.2144C38.6582 35.1039 38.5686 34.9725 38.5059 34.8322C38.4402 34.6739 38.4073 34.5037 38.4133 34.3305C38.4073 34.1154 38.4641 33.9004 38.5746 33.7153C38.6821 33.5421 38.8284 33.3957 39.0016 33.2852C39.1868 33.1688 39.3898 33.0822 39.6019 33.0344C39.8258 32.9806 40.0588 32.9508 40.2887 32.9508C40.6859 32.9269 41.0801 32.9896 41.4504 33.1299V33.9542C41.1219 33.7362 40.7307 33.6287 40.3365 33.6466C40.2111 33.6466 40.0857 33.6585 39.9632 33.6824C39.8468 33.7033 39.7333 33.7421 39.6288 33.7989C39.5362 33.8497 39.4526 33.9183 39.3898 34.005C39.3271 34.0945 39.2943 34.2021 39.2973 34.3096C39.2973 34.4111 39.3182 34.5126 39.3689 34.5992C39.4227 34.6858 39.4914 34.7635 39.575 34.8232C39.6795 34.8979 39.79 34.9666 39.9095 35.0203C40.0409 35.083 40.1932 35.1547 40.3664 35.2294C40.5426 35.3219 40.7098 35.4175 40.8681 35.5161C41.0174 35.6116 41.1578 35.7221 41.2832 35.8476C41.3997 35.964 41.4952 36.1014 41.5669 36.2507C41.6386 36.409 41.6744 36.5822 41.6714 36.7554C41.6923 37.1914 41.4713 37.6035 41.0951 37.8275C40.9069 37.941 40.7009 38.0216 40.4858 38.0664C40.2469 38.1172 40.002 38.1411 39.7572 38.1411C39.6735 38.1411 39.569 38.1351 39.4436 38.1232C39.3182 38.1112 39.1927 38.0903 39.0613 38.0664C38.9359 38.0425 38.8135 38.0127 38.694 37.9768C38.5955 37.95 38.5029 37.9082 38.4133 37.8574" fill="#999999"></path><path d="M44.0187 35.0415C43.7261 35.0296 43.4453 35.152 43.2572 35.373C43.0571 35.6358 42.9585 35.9613 42.9765 36.2898C42.9585 36.6094 43.0601 36.9259 43.2602 37.1768C43.4513 37.3948 43.729 37.5112 44.0187 37.4993C44.3024 37.5172 44.5802 37.3978 44.7653 37.1798C44.9535 36.917 45.046 36.5974 45.0251 36.2719C45.046 35.9464 44.9535 35.6239 44.7653 35.3581C44.5802 35.1371 44.3054 35.0176 44.0187 35.0355M43.9799 38.1473C43.0272 38.213 42.203 37.4963 42.1373 36.5437C42.1313 36.466 42.1313 36.3884 42.1373 36.3137C42.1074 35.7911 42.2956 35.2804 42.6599 34.9011C43.0422 34.5488 43.5499 34.3666 44.0695 34.3935C44.5622 34.3636 45.043 34.5428 45.3954 34.8862C45.7299 35.2625 45.9001 35.7553 45.8703 36.257C45.939 37.2335 45.2043 38.0787 44.2278 38.1473C44.1441 38.1533 44.0635 38.1533 43.9799 38.1473Z" fill="#999999"></path><path d="M46.7056 32.754H47.5328V38.0608H46.7056V32.754Z" fill="#999999"></path><path d="M51.7705 38.0607H50.9463V37.4933H50.9313C50.7193 37.9114 50.2833 38.1652 49.8174 38.1443C48.9603 38.1443 48.5303 37.6366 48.5303 36.6183V34.4741H49.3545V36.5347C49.3545 37.1797 49.6054 37.5023 50.1101 37.5023C50.34 37.5082 50.561 37.4097 50.7103 37.2365C50.8746 37.0423 50.9582 36.7945 50.9463 36.5406V34.477H51.7705V38.0637" fill="#999999"></path><path d="M54.757 38.0216C54.5569 38.1082 54.3389 38.1501 54.1209 38.1411C53.4162 38.1411 53.0638 37.8066 53.0638 37.1407V35.1129H52.4575V34.4768H53.0638V33.6466L53.885 33.4166V34.4768H54.7541V35.1129H53.885V36.9047C53.8701 37.066 53.9119 37.2273 54.0015 37.3587C54.106 37.4602 54.2464 37.508 54.3927 37.496C54.5241 37.496 54.6525 37.4572 54.7541 37.3766V38.0216" fill="#999999"></path><path d="M56.2892 38.0611H55.4649V34.4744H56.2892V38.0611ZM55.88 33.7248C55.7516 33.7248 55.6292 33.68 55.5336 33.5964C55.438 33.5128 55.3873 33.3933 55.3903 33.2679C55.3873 33.1425 55.441 33.02 55.5336 32.9364C55.6262 32.8498 55.7516 32.802 55.88 32.802C56.0114 32.7991 56.1369 32.8468 56.2354 32.9364C56.331 33.02 56.3847 33.1425 56.3817 33.2679C56.3817 33.3933 56.331 33.5098 56.2354 33.5905C56.1398 33.68 56.0114 33.7278 55.88 33.7248Z" fill="#999999"></path><path d="M59.0138 35.0415C58.7212 35.0296 58.4404 35.152 58.2523 35.373C58.0522 35.6358 57.9537 35.9613 57.9716 36.2898C57.9537 36.6094 58.0552 36.9259 58.2553 37.1768C58.4464 37.3948 58.7271 37.5112 59.0138 37.4993C59.3005 37.5172 59.5753 37.3978 59.7604 37.1798C59.9486 36.917 60.0411 36.5974 60.0202 36.2719C60.0411 35.9464 59.9486 35.6239 59.7604 35.3581C59.5753 35.1371 59.3005 35.0176 59.0138 35.0355M58.975 38.1473C58.0224 38.213 57.1981 37.4963 57.1324 36.5437C57.1264 36.466 57.1264 36.3884 57.1324 36.3137C57.1025 35.7911 57.2907 35.2804 57.655 34.9011C58.0373 34.5488 58.545 34.3666 59.0646 34.3935C59.5574 34.3636 60.0382 34.5428 60.3906 34.8862C60.725 35.2625 60.8953 35.7553 60.8654 36.257C60.9341 37.2335 60.1994 38.0787 59.2229 38.1473C59.1393 38.1533 59.0586 38.1533 58.975 38.1473Z" fill="#999999"></path><path d="M64.934 38.0606H64.1098V36.0388C64.1098 35.3698 63.8709 35.0324 63.3901 35.0324C63.1511 35.0264 62.9242 35.1279 62.7689 35.3101C62.6017 35.5042 62.515 35.7551 62.524 36.0119V38.0576H61.6968V34.4709H62.521V35.0652H62.536C62.7689 34.6352 63.2258 34.3724 63.7126 34.3843C64.056 34.3634 64.3905 34.5038 64.6175 34.7636C64.8444 35.0831 64.9549 35.4714 64.928 35.8626V38.0546" fill="#999999"></path><path d="M65.7095 37.9499V37.1974C66.0022 37.4243 66.3576 37.5438 66.7279 37.5438C67.2236 37.5438 67.4715 37.4004 67.4715 37.1108C67.4715 37.0361 67.4506 36.9614 67.4088 36.9017C67.361 36.839 67.3043 36.7882 67.2356 36.7494C67.1549 36.7016 67.0683 36.6598 66.9817 36.6299C66.8832 36.5941 66.7727 36.5553 66.6532 36.5105C66.5159 36.4567 66.3815 36.394 66.2501 36.3253C66.1396 36.2686 66.038 36.191 65.9514 36.1043C65.8738 36.0237 65.8111 35.9281 65.7722 35.8236C65.7304 35.7072 65.7095 35.5817 65.7125 35.4563C65.7095 35.295 65.7513 35.1368 65.835 34.9994C65.9186 34.865 66.035 34.7515 66.1694 34.6679C66.3158 34.5753 66.477 34.5066 66.6443 34.4648C66.8235 34.42 67.0086 34.3961 67.1938 34.3961C67.5014 34.3902 67.806 34.4409 68.0957 34.5455V35.2562C67.8358 35.083 67.5282 34.9904 67.2147 34.9964C67.1191 34.9964 67.0265 35.0054 66.9339 35.0292C66.8593 35.0472 66.7846 35.077 66.7189 35.1159C66.6622 35.1487 66.6144 35.1965 66.5816 35.2502C66.5487 35.301 66.5308 35.3607 66.5308 35.4234C66.5308 35.4921 66.5457 35.5608 66.5816 35.6205C66.6174 35.6773 66.6682 35.7281 66.7279 35.7639C66.8026 35.8087 66.8802 35.8475 66.9608 35.8774C67.0534 35.9102 67.1549 35.9491 67.2744 35.9879C67.4177 36.0446 67.5581 36.1103 67.6955 36.182C67.8119 36.2417 67.9165 36.3164 68.012 36.403C68.0986 36.4836 68.1673 36.5822 68.2151 36.6897C68.2659 36.8121 68.2898 36.9435 68.2868 37.0779C68.2898 37.2451 68.245 37.4124 68.1584 37.5557C68.0718 37.6931 67.9553 37.8066 67.8179 37.8932C67.6656 37.9858 67.5014 38.0515 67.3252 38.0903C67.134 38.1351 66.9369 38.156 66.7398 38.156C66.3845 38.1649 66.035 38.0963 65.7065 37.9589" fill="#999999"></path><path d="M71.9984 33.7274V35.561H72.5449C72.8406 35.5819 73.1362 35.4923 73.3721 35.3132C73.5663 35.134 73.6708 34.8771 73.6559 34.6114C73.6559 34.0201 73.3094 33.7244 72.6136 33.7244H71.9984M71.9984 36.2419V38.0636H71.1562V33.0405H72.7002C73.187 33.0107 73.6678 33.154 74.059 33.4437C74.3875 33.7274 74.5637 34.1455 74.5428 34.5785C74.5577 35.0324 74.3726 35.4685 74.0381 35.776C73.6618 36.1016 73.1721 36.2688 72.6763 36.2419H71.9984Z" fill="#999999"></path><path d="M77.0946 36.2984L76.3331 36.403C76.145 36.4179 75.9628 36.4746 75.7985 36.5732C75.6701 36.6777 75.6014 36.842 75.6194 37.0092C75.6164 37.1526 75.6761 37.2899 75.7836 37.3825C75.909 37.484 76.0643 37.5348 76.2256 37.5288C76.4615 37.5348 76.6885 37.4392 76.8468 37.269C77.011 37.0898 77.1006 36.8539 77.0946 36.612V36.3014M77.889 38.0604H77.0917V37.499H77.0767C76.8617 37.9081 76.4346 38.159 75.9747 38.144C75.6671 38.162 75.3685 38.0574 75.1356 37.8573C74.9295 37.6602 74.819 37.3825 74.831 37.0988C74.831 36.4209 75.2252 36.0267 76.0166 35.9162L77.0946 35.7669C77.0946 35.2562 76.8498 34.9994 76.357 34.9994C75.927 34.9994 75.5089 35.1547 75.1863 35.4414V34.7276C75.5895 34.4977 76.0494 34.3812 76.5123 34.3901C77.4291 34.3901 77.889 34.8351 77.889 35.728V38.0604Z" fill="#999999"></path><path d="M80.9985 35.2506C80.8731 35.167 80.7208 35.1252 80.5685 35.1341C80.3236 35.1341 80.0936 35.2566 79.9593 35.4596C79.7831 35.7194 79.6965 36.03 79.7144 36.3466V38.0638H78.8901V34.4771H79.7144V35.2147H79.7293C79.795 34.9878 79.9234 34.7817 80.0996 34.6234C80.2549 34.4861 80.452 34.4114 80.6581 34.4114C80.7745 34.4054 80.891 34.4263 80.9985 34.4771V35.2476" fill="#999999"></path><path d="M83.7038 38.0216C83.5037 38.1082 83.2857 38.1501 83.0677 38.1411C82.3629 38.1411 82.0105 37.8066 82.0105 37.1407V35.1129H81.4043V34.4768H82.0105V33.6466L82.8318 33.4166V34.4768H83.7008V35.1129H82.8318V36.9047C82.8169 37.066 82.8587 37.2273 82.9483 37.3587C83.0528 37.4602 83.1931 37.508 83.3395 37.496C83.4709 37.496 83.5963 37.4572 83.7008 37.3766V38.0216" fill="#999999"></path><path d="M87.6484 38.0606H86.8241V36.0388C86.8241 35.3698 86.5852 35.0324 86.1044 35.0324C85.8655 35.0264 85.6385 35.1279 85.4832 35.3101C85.316 35.5042 85.2294 35.7551 85.2384 36.0119V38.0576H84.4111V34.4709H85.2354V35.0652H85.2503C85.4832 34.6352 85.9372 34.3724 86.4269 34.3843C86.7704 34.3634 87.1049 34.5038 87.3318 34.7636C87.5588 35.0831 87.6693 35.4714 87.6454 35.8626V38.0546" fill="#999999"></path><path d="M90.7894 35.9165C90.8014 35.6716 90.7267 35.4297 90.5804 35.2356C90.44 35.0714 90.231 34.9818 90.013 34.9907C89.786 34.9877 89.568 35.0803 89.4127 35.2476C89.2425 35.4327 89.135 35.6657 89.1081 35.9165H90.7894ZM91.5838 36.4899H89.1081C89.0991 36.7766 89.2126 37.0573 89.4187 37.2574C89.6456 37.4485 89.9383 37.5441 90.234 37.5262C90.6162 37.5262 90.9925 37.4067 91.3031 37.1827V37.8368C90.9029 38.0607 90.449 38.1653 89.9921 38.1444C89.5232 38.1712 89.0633 37.992 88.7348 37.6576C88.4123 37.2753 88.248 36.7826 88.2779 36.2838C88.257 35.7791 88.4391 35.2894 88.7796 34.9191C89.0991 34.5726 89.5531 34.3815 90.0249 34.3905C90.4609 34.3666 90.885 34.5398 91.1777 34.8623C91.4703 35.2356 91.6137 35.7045 91.5868 36.1763V36.4869" fill="#999999"></path></g><path d="M94.4741 35.2494C94.3487 35.1658 94.1964 35.124 94.0441 35.133C93.7992 35.133 93.5722 35.2554 93.4348 35.4585C93.2586 35.7183 93.172 36.0289 93.19 36.3454V38.0626H92.3657V34.476H93.19V35.2136H93.2049C93.2706 34.9866 93.399 34.7806 93.5752 34.6223C93.7305 34.4849 93.9276 34.4103 94.1337 34.4103C94.2501 34.4043 94.3696 34.4252 94.4741 34.476V35.2464" fill="#999999"></path><path d="M17.4263 21.9931H25.1819V29.6502H17.4263V21.9931Z" fill="#999999"></path><path d="M25.9868 21.9931H33.7425V29.6502H25.9868V21.9931Z" fill="#999999"></path><path d="M17.4263 30.4471H25.1819V38.1042H17.4263V30.4471Z" fill="#999999"></path><path d="M25.9868 30.4471H33.7425V38.1042H25.9868V30.4471Z" fill="#999999"></path><path d="M18.1382 51.8264V46.3882H19.6403C21.5576 46.3882 22.5132 47.2722 22.5132 49.0371C22.5132 49.8763 22.2475 50.5512 21.7159 51.0589C21.1843 51.5696 20.4706 51.8234 19.5806 51.8234H18.1412M18.7743 46.9646V51.25H19.5866C20.3003 51.25 20.8528 51.0589 21.25 50.6767C21.6472 50.2944 21.8443 49.7539 21.8443 49.0551C21.8443 47.6634 21.1037 46.9646 19.6224 46.9646H18.7743Z" fill="#999999"></path><path d="M26.276 51.8266H25.6548V51.2203H25.6399C25.3681 51.6862 24.971 51.9192 24.4453 51.9192C24.0601 51.9192 23.7555 51.8176 23.5375 51.6116C23.3195 51.4055 23.209 51.1337 23.209 50.7963C23.209 50.0706 23.636 49.6495 24.4901 49.53L25.6548 49.3658C25.6548 48.7058 25.389 48.3773 24.8545 48.3773C24.3856 48.3773 23.9645 48.5356 23.5883 48.8551V48.219C23.9705 47.9771 24.4095 47.8547 24.9082 47.8547C25.8221 47.8547 26.276 48.3385 26.276 49.3031V51.8296M25.6548 49.8615L24.7171 49.9899C24.4304 50.0318 24.2124 50.1004 24.0661 50.205C23.9197 50.3065 23.8451 50.4887 23.8451 50.7485C23.8451 50.9366 23.9138 51.0919 24.0482 51.2144C24.1825 51.3338 24.3647 51.3936 24.5887 51.3936C24.8963 51.3936 25.1531 51.286 25.3532 51.068C25.5533 50.853 25.6548 50.5783 25.6548 50.2468V49.8615Z" fill="#999999"></path><path d="M29.2423 51.788C29.0959 51.8686 28.9018 51.9104 28.6629 51.9104C27.982 51.9104 27.6415 51.5311 27.6415 50.7726V48.4761H26.9756V47.9445H27.6415V46.9978L28.2627 46.7977V47.9475H29.2423V48.479H28.2627V50.6681C28.2627 50.9279 28.3075 51.113 28.3941 51.2265C28.4837 51.337 28.63 51.3938 28.8331 51.3938C28.9884 51.3938 29.1258 51.352 29.2393 51.2653V51.7969" fill="#999999"></path><path d="M32.8483 51.8266H32.2271V51.2203H32.2122C31.9404 51.6862 31.5432 51.9192 31.0176 51.9192C30.6324 51.9192 30.3278 51.8176 30.1098 51.6116C29.8917 51.4055 29.7812 51.1337 29.7812 50.7963C29.7812 50.0706 30.2083 49.6495 31.0624 49.53L32.2271 49.3658C32.2271 48.7058 31.9613 48.3773 31.4267 48.3773C30.9579 48.3773 30.5368 48.5356 30.1605 48.8551V48.219C30.5428 47.9771 30.9818 47.8547 31.4805 47.8547C32.3943 47.8547 32.8483 48.3385 32.8483 49.3031V51.8296M32.2241 49.8615L31.2864 49.9899C30.9997 50.0318 30.7817 50.1004 30.6354 50.205C30.489 50.3095 30.4144 50.4887 30.4144 50.7485C30.4144 50.9366 30.483 51.0919 30.6174 51.2144C30.7518 51.3338 30.934 51.3936 31.158 51.3936C31.4656 51.3936 31.7224 51.286 31.9225 51.068C32.1226 50.853 32.2241 50.5783 32.2241 50.2468V49.8615Z" fill="#999999"></path><path d="M40.9777 51.9132C40.8344 51.9132 40.706 51.8923 40.5955 51.8534C40.485 51.8146 40.3835 51.7579 40.2909 51.6862C40.1983 51.6145 40.1057 51.5249 40.0191 51.4234C39.9325 51.3189 39.8399 51.2024 39.7444 51.071C39.6428 51.1785 39.5264 51.286 39.395 51.3846C39.2636 51.4861 39.1142 51.5757 38.953 51.6533C38.7917 51.731 38.6155 51.7937 38.4214 51.8415C38.2303 51.8893 38.0212 51.9102 37.7972 51.9102C37.5255 51.9102 37.2746 51.8773 37.0477 51.8086C36.8207 51.7399 36.6266 51.6414 36.4623 51.507C36.3011 51.3756 36.1756 51.2114 36.086 51.0172C35.9965 50.8231 35.9517 50.5991 35.9517 50.3453C35.9517 49.9601 36.0622 49.6286 36.2802 49.3538C36.5012 49.0791 36.8117 48.8551 37.2119 48.6819C37.1373 48.6251 37.0596 48.5624 36.9849 48.4878C36.9103 48.4131 36.8416 48.3295 36.7819 48.2339C36.7221 48.1384 36.6744 48.0338 36.6385 47.9204C36.6027 47.8039 36.5848 47.6785 36.5848 47.5441C36.5848 47.344 36.6206 47.1678 36.6923 47.0125C36.764 46.8572 36.8625 46.7288 36.9909 46.6213C37.1163 46.5138 37.2657 46.4361 37.4389 46.3794C37.6121 46.3256 37.7972 46.2987 37.9973 46.2987C38.1974 46.2987 38.3736 46.3256 38.5379 46.3794C38.7021 46.4331 38.8425 46.5108 38.959 46.6123C39.0754 46.7139 39.168 46.8333 39.2337 46.9767C39.2994 47.117 39.3322 47.2753 39.3322 47.4515C39.3322 47.7561 39.2456 48.007 39.0724 48.207C38.8992 48.4071 38.6394 48.5803 38.293 48.7207C38.4662 48.7894 38.6245 48.873 38.7678 48.9716C38.9082 49.0701 39.0396 49.1806 39.159 49.3001C39.2785 49.4195 39.392 49.5509 39.4935 49.6913C39.598 49.8316 39.6996 49.975 39.8011 50.1243C40.0072 49.8376 40.1595 49.524 40.264 49.1806C40.3685 48.8372 40.4193 48.4758 40.4193 48.0995C40.4193 48.004 40.4133 47.9144 40.4014 47.8278C40.3894 47.7442 40.3745 47.6605 40.3536 47.5769H40.9568C40.9777 47.6605 40.9897 47.7382 40.9927 47.8128C40.9957 47.8875 41.0016 47.9771 41.0046 48.0816C41.0046 48.3116 40.9807 48.5415 40.933 48.7745C40.8852 49.0074 40.8195 49.2314 40.7388 49.4524C40.6582 49.6704 40.5626 49.8794 40.4551 50.0765C40.3476 50.2736 40.2341 50.4558 40.1147 50.62C40.2043 50.7425 40.2849 50.847 40.3566 50.9366C40.4312 51.0262 40.5029 51.1009 40.5776 51.1636C40.6522 51.2263 40.7299 51.2681 40.8075 51.298C40.8882 51.3278 40.9777 51.3428 41.0793 51.3428C41.1539 51.3428 41.2316 51.3338 41.3092 51.3129C41.3869 51.292 41.4675 51.2681 41.5511 51.2382V51.8146C41.4615 51.8504 41.366 51.8773 41.2644 51.8952C41.1629 51.9132 41.0673 51.9221 40.9718 51.9221M37.7972 51.3756C37.9884 51.3756 38.1676 51.3547 38.3288 51.3129C38.4901 51.2711 38.6394 51.2143 38.7768 51.1457C38.9142 51.077 39.0366 50.9963 39.1471 50.9038C39.2576 50.8112 39.3591 50.7156 39.4517 50.6141C39.2964 50.3752 39.1561 50.1691 39.0247 49.9989C38.8933 49.8287 38.7618 49.6823 38.6304 49.5569C38.499 49.4345 38.3557 49.3269 38.2064 49.2374C38.0571 49.1478 37.8809 49.0671 37.6838 48.9895C37.5255 49.0522 37.3792 49.1239 37.2448 49.1985C37.1104 49.2762 36.9939 49.3658 36.8983 49.4703C36.7998 49.5748 36.7251 49.6973 36.6684 49.8376C36.6117 49.978 36.5848 50.1392 36.5848 50.3274C36.5848 50.5006 36.6176 50.6499 36.6803 50.7813C36.7431 50.9127 36.8297 51.0232 36.9402 51.1098C37.0506 51.1964 37.1791 51.2621 37.3254 51.3069C37.4717 51.3517 37.63 51.3726 37.8002 51.3726M38.7469 47.5053C38.7469 47.3798 38.723 47.2723 38.6782 47.1827C38.6304 47.0931 38.5707 47.0215 38.499 46.9617C38.4274 46.905 38.3467 46.8602 38.2572 46.8333C38.1676 46.8064 38.081 46.7945 37.9943 46.7945C37.7465 46.7945 37.5494 46.8602 37.4001 46.9946C37.2507 47.129 37.1761 47.3111 37.1731 47.5411C37.1731 47.6456 37.188 47.7412 37.2209 47.8338C37.2537 47.9263 37.2955 48.0099 37.3523 48.0876C37.409 48.1652 37.4747 48.2369 37.5524 48.2966C37.627 48.3564 37.7077 48.4101 37.7943 48.4519C38.1138 48.3414 38.3497 48.21 38.508 48.0637C38.6633 47.9144 38.7439 47.7292 38.7439 47.5053" fill="#999999"></path><path d="M48.753 51.8267H48.0482L47.4718 50.3036H45.1663L44.6228 51.8267H43.915L45.9995 46.3884H46.6595L48.753 51.8267ZM47.2658 49.7302L46.4117 47.4128C46.3848 47.3381 46.3549 47.2157 46.328 47.0484H46.3131C46.2892 47.2037 46.2594 47.3232 46.2265 47.4128L45.3814 49.7302H47.2658Z" fill="#999999"></path><path d="M50.1928 51.8264H49.5537V46.3882H50.1928V51.8264Z" fill="#999999"></path><path d="M18.2173 51.8269V46.3887H19.7194C21.6367 46.3887 22.5923 47.2726 22.5923 49.0376C22.5923 49.8768 22.3266 50.5517 21.795 51.0594C21.2634 51.5701 20.5497 51.8239 19.6597 51.8239H18.2203M18.8534 46.965V51.2505H19.6657C20.3794 51.2505 20.9319 51.0594 21.3291 50.6771C21.7263 50.2949 21.9234 49.7543 21.9234 49.0555C21.9234 47.6639 21.1828 46.965 19.7015 46.965H18.8534Z" fill="#999999"></path><path d="M26.3556 51.8266H25.7344V51.2203H25.7195C25.4477 51.6862 25.0505 51.9192 24.5249 51.9192C24.1397 51.9192 23.8351 51.8176 23.6171 51.6116C23.3991 51.4055 23.2886 51.1337 23.2886 50.7963C23.2886 50.0706 23.7156 49.6495 24.5697 49.53L25.7344 49.3658C25.7344 48.7058 25.4686 48.3773 24.9341 48.3773C24.4652 48.3773 24.0441 48.5356 23.6678 48.8551V48.219C24.0501 47.9771 24.4891 47.8547 24.9878 47.8547C25.9017 47.8547 26.3556 48.3385 26.3556 49.3031V51.8296M25.7344 49.8615L24.7967 49.9899C24.51 50.0318 24.292 50.1004 24.1457 50.205C23.9993 50.3065 23.9247 50.4887 23.9247 50.7485C23.9247 50.9366 23.9934 51.0919 24.1278 51.2144C24.2621 51.3338 24.4443 51.3936 24.6683 51.3936C24.9759 51.3936 25.2327 51.286 25.4328 51.068C25.6329 50.853 25.7344 50.5783 25.7344 50.2468V49.8615Z" fill="#999999"></path><path d="M29.3199 51.788C29.1736 51.8686 28.9794 51.9104 28.7405 51.9104C28.0596 51.9104 27.7192 51.5311 27.7192 50.7726V48.4761H27.0532V47.9445H27.7192V46.9978L28.3404 46.7977V47.9475H29.3199V48.479H28.3404V50.6681C28.3404 50.9279 28.3852 51.113 28.4718 51.2265C28.5613 51.337 28.7077 51.3938 28.9108 51.3938C29.066 51.3938 29.2034 51.352 29.3169 51.2653V51.7969" fill="#999999"></path><path d="M32.924 51.8266H32.3028V51.2203H32.2879C32.0161 51.6862 31.6189 51.9192 31.0933 51.9192C30.7081 51.9192 30.4034 51.8176 30.1854 51.6116C29.9674 51.4055 29.8569 51.1337 29.8569 50.7963C29.8569 50.0706 30.284 49.6495 31.1381 49.53L32.3028 49.3658C32.3028 48.7058 32.037 48.3773 31.5024 48.3773C31.0336 48.3773 30.6125 48.5356 30.2362 48.8551V48.219C30.6185 47.9771 31.0575 47.8547 31.5562 47.8547C32.47 47.8547 32.924 48.3385 32.924 49.3031V51.8296M32.2998 49.8615L31.3621 49.9899C31.0754 50.0318 30.8574 50.1004 30.711 50.205C30.5647 50.3095 30.49 50.4887 30.49 50.7485C30.49 50.9366 30.5587 51.0919 30.6931 51.2144C30.8275 51.3338 31.0097 51.3936 31.2337 51.3936C31.5413 51.3936 31.7981 51.286 31.9982 51.068C32.1983 50.853 32.2998 50.5783 32.2998 50.2468V49.8615Z" fill="#999999"></path><path d="M41.0554 51.9132C40.912 51.9132 40.7836 51.8923 40.6731 51.8534C40.5626 51.8146 40.4611 51.7579 40.3685 51.6862C40.2759 51.6145 40.1834 51.5249 40.0968 51.4234C40.0101 51.3189 39.9176 51.2024 39.822 51.071C39.7205 51.1785 39.604 51.286 39.4726 51.3846C39.3412 51.4861 39.1919 51.5757 39.0306 51.6533C38.8693 51.731 38.6932 51.7937 38.499 51.8415C38.3079 51.8893 38.0989 51.9102 37.8749 51.9102C37.6031 51.9102 37.3523 51.8773 37.1253 51.8086C36.8983 51.7399 36.7042 51.6414 36.54 51.507C36.3787 51.3756 36.2533 51.2114 36.1637 51.0172C36.0741 50.8231 36.0293 50.5991 36.0293 50.3453C36.0293 49.9601 36.1398 49.6286 36.3578 49.3538C36.5788 49.0791 36.8894 48.8551 37.2895 48.6819C37.2149 48.6251 37.1372 48.5624 37.0626 48.4878C36.9879 48.4131 36.9192 48.3295 36.8595 48.2339C36.7998 48.1384 36.752 48.0338 36.7162 47.9204C36.6803 47.8039 36.6624 47.6785 36.6624 47.5441C36.6624 47.344 36.6982 47.1678 36.7699 47.0125C36.8416 46.8572 36.9401 46.7288 37.0686 46.6213C37.194 46.5138 37.3433 46.4361 37.5165 46.3794C37.6897 46.3256 37.8749 46.2987 38.075 46.2987C38.2751 46.2987 38.4513 46.3256 38.6155 46.3794C38.7798 46.4331 38.9201 46.5108 39.0366 46.6123C39.1531 46.7139 39.2456 46.8333 39.3113 46.9767C39.377 47.117 39.4099 47.2753 39.4099 47.4515C39.4099 47.7561 39.3233 48.007 39.1501 48.207C38.9769 48.4071 38.717 48.5803 38.3706 48.7207C38.5438 48.7894 38.7021 48.873 38.8455 48.9716C38.9858 49.0701 39.1172 49.1806 39.2367 49.3001C39.3561 49.4195 39.4696 49.5509 39.5711 49.6913C39.6757 49.8316 39.7772 49.975 39.8787 50.1243C40.0848 49.8376 40.2371 49.524 40.3416 49.1806C40.4462 48.8372 40.4969 48.4758 40.4969 48.0995C40.4969 48.004 40.491 47.9144 40.479 47.8278C40.4671 47.7442 40.4521 47.6605 40.4312 47.5769H41.0345C41.0554 47.6605 41.0673 47.7382 41.0703 47.8128C41.0733 47.8875 41.0793 47.9771 41.0823 48.0816C41.0823 48.3116 41.0584 48.5415 41.0106 48.7745C40.9628 49.0074 40.8971 49.2314 40.8165 49.4524C40.7358 49.6704 40.6403 49.8794 40.5328 50.0765C40.4253 50.2736 40.3118 50.4558 40.1923 50.62C40.2819 50.7425 40.3625 50.847 40.4342 50.9366C40.5089 51.0262 40.5805 51.1009 40.6552 51.1636C40.7299 51.2233 40.8075 51.2681 40.8852 51.298C40.9658 51.3278 41.0554 51.3428 41.1569 51.3428C41.2316 51.3428 41.3092 51.3338 41.3869 51.3129C41.4645 51.292 41.5452 51.2681 41.6288 51.2382V51.8146C41.5392 51.8504 41.4436 51.8773 41.3421 51.8952C41.2405 51.9132 41.145 51.9221 41.0494 51.9221M37.8749 51.3756C38.066 51.3756 38.2452 51.3547 38.4065 51.3129C38.5677 51.2711 38.717 51.2143 38.8544 51.1457C38.9918 51.077 39.1142 50.9963 39.2247 50.9038C39.3352 50.8112 39.4368 50.7156 39.5293 50.6141C39.374 50.3752 39.2337 50.1691 39.1023 49.9989C38.9709 49.8287 38.8395 49.6823 38.7081 49.5569C38.5767 49.4345 38.4333 49.3269 38.284 49.2374C38.1347 49.1478 37.9585 49.0671 37.7614 48.9895C37.6031 49.0522 37.4568 49.1239 37.3224 49.1985C37.188 49.2762 37.0715 49.3658 36.976 49.4703C36.8774 49.5748 36.8028 49.6973 36.746 49.8376C36.6893 49.978 36.6624 50.1392 36.6624 50.3274C36.6624 50.5006 36.6953 50.6499 36.758 50.7813C36.8207 50.9127 36.9073 51.0232 37.0178 51.1098C37.1283 51.1964 37.2567 51.2621 37.403 51.3069C37.5494 51.3517 37.7076 51.3726 37.8779 51.3726M38.8246 47.5053C38.8246 47.3798 38.8007 47.2723 38.7559 47.1827C38.7081 47.0931 38.6484 47.0215 38.5767 46.9617C38.505 46.905 38.4244 46.8602 38.3348 46.8333C38.2452 46.8064 38.1586 46.7945 38.072 46.7945C37.8241 46.7945 37.627 46.8602 37.4777 46.9946C37.3284 47.129 37.2537 47.3111 37.2507 47.5411C37.2507 47.6456 37.2657 47.7412 37.2985 47.8338C37.3314 47.9263 37.3732 48.0099 37.4299 48.0876C37.4867 48.1652 37.5524 48.2369 37.63 48.2966C37.7047 48.3564 37.7853 48.4101 37.8719 48.4519C38.1914 48.3414 38.4274 48.21 38.5856 48.0637C38.7409 47.9144 38.8216 47.7292 38.8216 47.5053" fill="#999999"></path><path d="M48.8301 51.8264H48.1253L47.549 50.3034H45.2435L44.7 51.8264H43.9922L46.0767 46.3882H46.7367L48.8301 51.8264ZM47.3429 49.73L46.4888 47.4125C46.4619 47.3379 46.4321 47.2154 46.4052 47.0482H46.3903C46.3664 47.2035 46.3365 47.323 46.3036 47.4125L45.4585 49.73H47.3429Z" fill="#999999"></path><path d="M50.2704 51.8264H49.6313V46.3882H50.2704V51.8264Z" fill="#999999"></path><path d="M18.293 51.8269V46.3887H19.7951C21.7124 46.3887 22.668 47.2726 22.668 49.0376C22.668 49.8768 22.4022 50.5517 21.8707 51.0594C21.3391 51.5701 20.6253 51.8239 19.7354 51.8239H18.296M18.9291 46.965V51.2505H19.7414C20.4551 51.2505 21.0076 51.0594 21.4048 50.6771C21.802 50.2949 21.9991 49.7543 21.9991 49.0555C21.9991 47.6639 21.2585 46.965 19.7772 46.965H18.9291Z" fill="#999999"></path><path d="M26.4308 51.8266H25.8096V51.2203H25.7947C25.5229 51.6862 25.1257 51.9192 24.6001 51.9192C24.2149 51.9192 23.9103 51.8176 23.6923 51.6116C23.4743 51.4055 23.3638 51.1337 23.3638 50.7963C23.3638 50.0706 23.7908 49.6495 24.6449 49.53L25.8096 49.3658C25.8096 48.7058 25.5438 48.3773 25.0093 48.3773C24.5404 48.3773 24.1193 48.5356 23.743 48.8551V48.219C24.1253 47.9771 24.5643 47.8547 25.063 47.8547C25.9769 47.8547 26.4308 48.3385 26.4308 49.3031V51.8296M25.8096 49.8615L24.8719 49.9899C24.5852 50.0318 24.3672 50.1004 24.2209 50.205C24.0745 50.3065 23.9999 50.4887 23.9999 50.7485C23.9999 50.9366 24.0686 51.0919 24.2029 51.2144C24.3373 51.3338 24.5195 51.3936 24.7435 51.3936C25.0511 51.3936 25.3079 51.286 25.508 51.068C25.7081 50.853 25.8096 50.5783 25.8096 50.2468V49.8615Z" fill="#999999"></path><path d="M29.3975 51.788C29.2512 51.8686 29.0571 51.9104 28.8182 51.9104C28.1373 51.9104 27.7968 51.5311 27.7968 50.7726V48.4761H27.1309V47.9445H27.7968V46.9978L28.418 46.7977V47.9475H29.3975V48.479H28.418V50.6681C28.418 50.9279 28.4628 51.113 28.5494 51.2265C28.639 51.337 28.7853 51.3938 28.9884 51.3938C29.1437 51.3938 29.2811 51.352 29.3945 51.2653V51.7969" fill="#999999"></path><path d="M33.0016 51.8266H32.3804V51.2203H32.3655C32.0937 51.6862 31.6965 51.9192 31.1709 51.9192C30.7857 51.9192 30.4811 51.8176 30.2631 51.6116C30.0451 51.4055 29.9346 51.1337 29.9346 50.7963C29.9346 50.0706 30.3616 49.6495 31.2157 49.53L32.3804 49.3658C32.3804 48.7058 32.1146 48.3773 31.5801 48.3773C31.1112 48.3773 30.6901 48.5356 30.3138 48.8551V48.219C30.6961 47.9771 31.1351 47.8547 31.6338 47.8547C32.5477 47.8547 33.0016 48.3385 33.0016 49.3031V51.8296M32.3774 49.8615L31.4397 49.9899C31.153 50.0318 30.935 50.1004 30.7887 50.205C30.6423 50.3095 30.5677 50.4887 30.5677 50.7485C30.5677 50.9366 30.6364 51.0919 30.7708 51.2144C30.9051 51.3338 31.0873 51.3936 31.3113 51.3936C31.6189 51.3936 31.8757 51.286 32.0758 51.068C32.2759 50.853 32.3774 50.5783 32.3774 50.2468V49.8615Z" fill="#999999"></path><path d="M41.1325 51.9132C40.9892 51.9132 40.8608 51.8923 40.7503 51.8534C40.6398 51.8146 40.5382 51.7579 40.4457 51.6862C40.3531 51.6145 40.2605 51.5249 40.1739 51.4234C40.0873 51.3189 39.9947 51.2024 39.8992 51.071C39.7976 51.1785 39.6811 51.286 39.5497 51.3846C39.4183 51.4861 39.269 51.5757 39.1078 51.6533C38.9465 51.731 38.7703 51.7937 38.5762 51.8415C38.3851 51.8893 38.176 51.9102 37.952 51.9102C37.6803 51.9102 37.4294 51.8773 37.2025 51.8086C36.9755 51.7399 36.7814 51.6414 36.6171 51.507C36.4559 51.3756 36.3304 51.2114 36.2408 51.0172C36.1512 50.8231 36.1064 50.5991 36.1064 50.3453C36.1064 49.9601 36.2169 49.6286 36.4349 49.3538C36.6559 49.0791 36.9665 48.8551 37.3667 48.6819C37.292 48.6251 37.2144 48.5624 37.1397 48.4878C37.0651 48.4131 36.9964 48.3295 36.9367 48.2339C36.8769 48.1384 36.8292 48.0338 36.7933 47.9204C36.7575 47.8039 36.7396 47.6785 36.7396 47.5441C36.7396 47.344 36.7754 47.1678 36.8471 47.0125C36.9187 46.8572 37.0173 46.7288 37.1457 46.6213C37.2711 46.5138 37.4205 46.4361 37.5937 46.3794C37.7669 46.3256 37.952 46.2987 38.1521 46.2987C38.3522 46.2987 38.5284 46.3256 38.6927 46.3794C38.8569 46.4331 38.9973 46.5108 39.1137 46.6123C39.2302 46.7139 39.3228 46.8333 39.3885 46.9767C39.4542 47.117 39.487 47.2753 39.487 47.4515C39.487 47.7561 39.4004 48.007 39.2272 48.207C39.054 48.4071 38.7942 48.5803 38.4478 48.7207C38.621 48.7894 38.7793 48.873 38.9226 48.9716C39.063 49.0701 39.1944 49.1806 39.3138 49.3001C39.4333 49.4195 39.5468 49.5509 39.6483 49.6913C39.7528 49.8316 39.8544 49.975 39.9559 50.1243C40.162 49.8376 40.3143 49.524 40.4188 49.1806C40.5233 48.8372 40.5741 48.4758 40.5741 48.0995C40.5741 48.004 40.5681 47.9144 40.5562 47.8278C40.5442 47.7442 40.5293 47.6605 40.5084 47.5769H41.1116C41.1325 47.6605 41.1445 47.7382 41.1475 47.8128C41.1505 47.8875 41.1564 47.9771 41.1594 48.0816C41.1594 48.3116 41.1355 48.5415 41.0877 48.7745C41.04 49.0074 40.9743 49.2314 40.8936 49.4524C40.813 49.6704 40.7174 49.8794 40.6099 50.0765C40.5024 50.2736 40.3889 50.4558 40.2695 50.62C40.3591 50.7425 40.4397 50.847 40.5114 50.9366C40.586 51.0262 40.6577 51.1009 40.7324 51.1636C40.807 51.2233 40.8847 51.2681 40.9623 51.298C41.0429 51.3278 41.1325 51.3428 41.2341 51.3428C41.3087 51.3428 41.3864 51.3338 41.464 51.3129C41.5417 51.292 41.6223 51.2681 41.7059 51.2382V51.8146C41.6163 51.8504 41.5208 51.8773 41.4192 51.8952C41.3177 51.9132 41.2221 51.9221 41.1266 51.9221M37.952 51.3756C38.1432 51.3756 38.3223 51.3547 38.4836 51.3129C38.6449 51.2711 38.7942 51.2143 38.9316 51.1457C39.0689 51.077 39.1914 50.9963 39.3019 50.9038C39.4124 50.8112 39.5139 50.7156 39.6065 50.6141C39.4512 50.3752 39.3108 50.1691 39.1794 49.9989C39.048 49.8287 38.9166 49.6823 38.7852 49.5569C38.6538 49.4345 38.5105 49.3269 38.3612 49.2374C38.2118 49.1478 38.0357 49.0671 37.8385 48.9895C37.6803 49.0522 37.5339 49.1239 37.3996 49.1985C37.2652 49.2762 37.1487 49.3658 37.0531 49.4703C36.9546 49.5748 36.8799 49.6973 36.8232 49.8376C36.7664 49.978 36.7396 50.1392 36.7396 50.3274C36.7396 50.5006 36.7724 50.6499 36.8351 50.7813C36.8978 50.9127 36.9844 51.0232 37.0949 51.1098C37.2054 51.1964 37.3339 51.2621 37.4802 51.3069C37.6265 51.3517 37.7848 51.3726 37.955 51.3726M38.9017 47.5053C38.9017 47.3798 38.8778 47.2723 38.833 47.1827C38.7852 47.0931 38.7255 47.0215 38.6538 46.9617C38.5822 46.905 38.5015 46.8602 38.4119 46.8333C38.3223 46.8064 38.2357 46.7945 38.1491 46.7945C37.9013 46.7945 37.7042 46.8602 37.5548 46.9946C37.4055 47.129 37.3309 47.3111 37.3279 47.5411C37.3279 47.6456 37.3428 47.7412 37.3757 47.8338C37.4085 47.9263 37.4503 48.0099 37.5071 48.0876C37.5638 48.1652 37.6295 48.2369 37.7071 48.2966C37.7818 48.3564 37.8624 48.4101 37.949 48.4519C38.2686 48.3414 38.5045 48.21 38.6628 48.0637C38.8181 47.9144 38.8987 47.7292 38.8987 47.5053" fill="#999999"></path><path d="M48.9078 51.8264H48.203L47.6266 50.3034H45.3211L44.7776 51.8264H44.0698L46.1543 46.3882H46.8143L48.9078 51.8264ZM47.4205 49.73L46.5664 47.4125C46.5396 47.3379 46.5097 47.2154 46.4828 47.0482H46.4679C46.444 47.2035 46.4141 47.323 46.3813 47.4125L45.5361 49.73H47.4205Z" fill="#999999"></path><path d="M50.3481 51.8269H49.709V46.3887H50.3481V51.8269Z" fill="#999999"></path><path d="M22.3472 62.5773H21.6424L21.0661 61.0543H18.7606L18.2171 62.5773H17.5093L19.5938 57.1391H20.2538L22.3472 62.5773ZM20.857 60.4809L20.0029 58.1634C19.976 58.0888 19.9462 57.9663 19.9193 57.7991H19.9044C19.8805 57.9544 19.8506 58.0738 19.8178 58.1634L18.9726 60.4809H20.857Z" fill="#999999"></path><path d="M25.7685 58.8747L23.4719 62.0462H25.7476V62.5778H22.5581V62.3837L24.8546 59.2271H22.7731V58.6955H25.7685V58.8747Z" fill="#999999"></path><path d="M29.7111 62.5776H29.0899V61.9624H29.075C28.8182 62.4312 28.418 62.6672 27.8774 62.6672C26.9517 62.6672 26.4888 62.1147 26.4888 61.0127V58.6923H27.107V60.9141C27.107 61.7324 27.4205 62.1416 28.0477 62.1416C28.3523 62.1416 28.6001 62.0311 28.7972 61.8071C28.9943 61.5831 29.0899 61.2904 29.0899 60.9291V58.6923H29.7111V62.5746" fill="#999999"></path><path d="M32.9847 59.3254C32.8772 59.2418 32.7189 59.2 32.5159 59.2C32.2501 59.2 32.0291 59.3254 31.8499 59.5762C31.6707 59.8271 31.5811 60.1675 31.5811 60.6006V62.5805H30.96V58.6982H31.5811V59.4986H31.5961C31.6857 59.2268 31.82 59.0118 32.0022 58.8595C32.1844 58.7072 32.3875 58.6296 32.6114 58.6296C32.7727 58.6296 32.8981 58.6475 32.9817 58.6833V59.3284" fill="#999999"></path><path d="M36.7732 60.7916H34.0317C34.0407 61.2246 34.1571 61.5561 34.3811 61.792C34.6051 62.028 34.9097 62.1444 35.2979 62.1444C35.734 62.1444 36.1371 62.0011 36.5044 61.7114V62.2967C36.164 62.5446 35.7131 62.6671 35.1516 62.6671C34.5902 62.6671 34.1721 62.4909 33.8585 62.1385C33.5449 61.7861 33.3896 61.2903 33.3896 60.6513C33.3896 60.048 33.5599 59.5552 33.9033 59.176C34.2467 58.7967 34.6708 58.6056 35.1785 58.6056C35.6862 58.6056 36.0804 58.7698 36.3581 59.0983C36.6359 59.4268 36.7762 59.8837 36.7762 60.4661V60.7916M36.1371 60.266C36.1371 59.9076 36.0475 59.6269 35.8773 59.4268C35.7071 59.2267 35.4712 59.1282 35.1665 59.1282C34.8619 59.1282 34.623 59.2327 34.42 59.4418C34.2139 59.6508 34.0885 59.9256 34.0407 60.263H36.1371" fill="#999999"></path><path d="M22.4229 62.5773H21.7181L21.1417 61.0543H18.8363L18.2927 62.5773H17.585L19.6695 57.1391H20.3294L22.4229 62.5773ZM20.9327 60.4809L20.0786 58.1634C20.0517 58.0888 20.0219 57.9663 19.995 57.7991H19.98C19.9562 57.9544 19.9263 58.0738 19.8934 58.1634L19.0483 60.4809H20.9327Z" fill="#999999"></path><path d="M25.8476 58.8747L23.551 62.0462H25.8267V62.5778H22.6372V62.3837L24.9337 59.2271H22.8522V58.6955H25.8476V58.8747Z" fill="#999999"></path><path d="M29.7887 62.5776H29.1675V61.9624H29.1526C28.8958 62.4312 28.4956 62.6672 27.9551 62.6672C27.0293 62.6672 26.5664 62.1147 26.5664 61.0127V58.6923H27.1846V60.9141C27.1846 61.7324 27.4982 62.1416 28.1253 62.1416C28.4299 62.1416 28.6778 62.0311 28.8749 61.8071C29.072 61.5831 29.1675 61.2904 29.1675 60.9291V58.6923H29.7887V62.5746" fill="#999999"></path><path d="M33.0624 59.3254C32.9549 59.2418 32.7966 59.2 32.5935 59.2C32.3277 59.2 32.1067 59.3254 31.9275 59.5762C31.7484 59.8271 31.6588 60.1675 31.6588 60.6006V62.5805H31.0376V58.6982H31.6588V59.4986H31.6737C31.7633 59.2268 31.8977 59.0118 32.0798 58.8595C32.262 58.7072 32.4651 58.6296 32.6891 58.6296C32.8503 58.6296 32.9758 58.6475 33.0594 58.6833V59.3284" fill="#999999"></path><path d="M36.8523 60.7916H34.1108C34.1198 61.2246 34.2363 61.5561 34.4602 61.792C34.6842 62.028 34.9888 62.1444 35.3771 62.1444C35.8131 62.1444 36.2162 62.0011 36.5836 61.7114V62.2967C36.2431 62.5446 35.7922 62.6671 35.2307 62.6671C34.6693 62.6671 34.2512 62.4909 33.9376 62.1385C33.624 61.7861 33.4688 61.2903 33.4688 60.6513C33.4688 60.048 33.639 59.5552 33.9824 59.176C34.3258 58.7967 34.7499 58.6056 35.2576 58.6056C35.7653 58.6056 36.1595 58.7698 36.4372 59.0983C36.715 59.4268 36.8553 59.8837 36.8553 60.4661V60.7916M36.2162 60.266C36.2162 59.9076 36.1266 59.6269 35.9564 59.4268C35.7862 59.2267 35.5503 59.1282 35.2456 59.1282C34.941 59.1282 34.7021 59.2327 34.4991 59.4418C34.296 59.6508 34.1676 59.9256 34.1198 60.263H36.2162" fill="#999999"></path><path d="M22.502 62.5773H21.7972L21.2208 61.0543H18.9154L18.3718 62.5773H17.6641L19.7486 57.1391H20.4086L22.502 62.5773ZM21.0118 60.4809L20.1577 58.1634C20.1308 58.0888 20.101 57.9663 20.0741 57.7991H20.0591C20.0353 57.9544 20.0054 58.0738 19.9725 58.1634L19.1274 60.4809H21.0118Z" fill="#999999"></path><path d="M25.9252 58.8747L23.6287 62.0462H25.9043V62.5778H22.7148V62.3837L25.0114 59.2271H22.9299V58.6955H25.9252V58.8747Z" fill="#999999"></path><path d="M29.8659 62.5776H29.2447V61.9624H29.2298C28.9729 62.4312 28.5728 62.6672 28.0322 62.6672C27.1064 62.6672 26.6436 62.1147 26.6436 61.0127V58.6923H27.2617V60.9141C27.2617 61.7324 27.5753 62.1416 28.2024 62.1416C28.5071 62.1416 28.7549 62.0311 28.952 61.8071C29.1491 61.5831 29.2447 61.2904 29.2447 60.9291V58.6923H29.8659V62.5746" fill="#999999"></path><path d="M33.14 59.3254C33.0325 59.2418 32.8742 59.2 32.6711 59.2C32.4054 59.2 32.1844 59.3254 32.0052 59.5762C31.826 59.8271 31.7364 60.1675 31.7364 60.6006V62.5805H31.1152V58.6982H31.7364V59.4986H31.7513C31.8409 59.2268 31.9753 59.0118 32.1575 58.8595C32.3397 58.7072 32.5427 58.6296 32.7667 58.6296C32.928 58.6296 33.0534 58.6475 33.137 58.6833V59.3284" fill="#999999"></path><path d="M36.93 60.7916H34.1885C34.1974 61.2246 34.3139 61.5561 34.5379 61.792C34.7589 62.028 35.0665 62.1444 35.4547 62.1444C35.8907 62.1444 36.2939 62.0011 36.6612 61.7114V62.2967C36.3207 62.5446 35.8698 62.6671 35.3084 62.6671C34.7469 62.6671 34.3288 62.4909 34.0152 62.1385C33.7017 61.7861 33.5464 61.2903 33.5464 60.6513C33.5464 60.048 33.7166 59.5552 34.06 59.176C34.4035 58.7967 34.8275 58.6056 35.3352 58.6056C35.8429 58.6056 36.2371 58.7698 36.5149 59.0983C36.7926 59.4268 36.9329 59.8837 36.9329 60.4661V60.7916M36.2939 60.266C36.2939 59.9076 36.2043 59.6269 36.034 59.4268C35.8638 59.2267 35.6279 59.1282 35.3233 59.1282C35.0187 59.1282 34.7798 59.2327 34.5767 59.4418C34.3736 59.6508 34.2452 59.9256 34.1974 60.263H36.2939" fill="#999999"></path></g><path d="M1.20988 9.61728C1.20988 7.18313 3.18314 5.20988 5.61728 5.20988H120.21C122.876 5.20988 125.037 7.37107 125.037 10.037V80.3457H10.2346C5.25037 80.3457 1.20988 76.3052 1.20988 71.321V9.61728Z" stroke="#999999" stroke-width="0.419753"></path><defs><clipPath id="clip0_61529_2270"><path d="M1 9.61728C1 7.06722 3.06723 5 5.61728 5H120.21C122.992 5 125.247 7.25516 125.247 10.037V80.5556H10.2346C5.13446 80.5556 1 76.4211 1 71.321V9.61728Z" fill="white"></path></clipPath></defs></svg>