<svg width="82" height="96" viewBox="0 0 82 96" fill="none" xmlns="http://www.w3.org/2000/svg">
<path d="M5.3549 5.36051H76.1689C78.7655 5.36051 80.8704 7.46541 80.8704 10.0619V85.9381C80.8704 88.5346 78.7655 90.6395 76.1689 90.6395H5.3549C2.75838 90.6395 0.653474 88.5346 0.653474 85.9381V10.0619C0.653474 7.46541 2.75838 5.36051 5.3549 5.36051Z" stroke="#999999" stroke-width="0.72101"/>
<path fill-rule="evenodd" clip-rule="evenodd" d="M36.9568 21.8982C38.7755 20.0037 41.3064 18.8292 44.1026 18.8292C47.8233 18.8292 51.0666 20.9055 52.7943 23.982C54.2947 23.3076 55.9618 22.9363 57.7047 22.9363C64.411 22.9363 69.8518 28.4226 69.8518 35.1895C69.8518 41.9565 64.411 47.4428 57.7047 47.4428C56.8863 47.4428 56.083 47.3594 55.3101 47.2079C53.787 49.9207 50.8847 51.7545 47.5581 51.7545C46.1638 51.7545 44.8452 51.4363 43.6707 50.8604C42.1248 54.4901 38.533 57.0362 34.3425 57.0362C30.152 57.0362 26.2646 54.2779 24.8324 50.4057C24.211 50.5345 23.5593 50.6103 22.9001 50.6103C17.7093 50.6103 13.4961 46.3592 13.4961 41.1078C13.4961 37.5917 15.3905 34.5227 18.2019 32.8783C17.626 31.5446 17.3001 30.0746 17.3001 28.5287C17.3001 22.4892 22.2029 17.6016 28.2424 17.6016C31.7888 17.6016 34.9411 19.2914 36.9416 21.9057L36.9568 21.8982ZM21.6622 38.0548C21.6316 38.1281 21.6602 38.1571 21.6764 38.1735L21.6764 38.1735L21.6764 38.1735C21.6803 38.1775 21.6835 38.1807 21.6849 38.1836C21.7486 38.229 21.8122 38.2663 21.8758 38.3036L21.8759 38.3036C21.9183 38.3285 21.9607 38.3533 22.0032 38.3806C22.5791 38.6837 23.1171 38.7747 23.6854 38.7747C24.8448 38.7747 25.5571 38.1609 25.5571 37.1682V37.1454C25.5571 36.2285 24.7463 35.8951 23.9886 35.6602L23.89 35.6299L23.877 35.6256C23.3067 35.438 22.8216 35.2785 22.8216 34.9024V34.8797C22.8216 34.5538 23.1095 34.3189 23.5566 34.3189C24.0568 34.3189 24.6478 34.4856 25.0267 34.6978C25.0267 34.6978 25.1404 34.7736 25.1783 34.6599C25.1896 34.6298 25.2422 34.487 25.295 34.3437L25.2957 34.3417C25.3488 34.1977 25.4018 34.0537 25.4132 34.0234C25.4359 33.9628 25.398 33.9173 25.3601 33.8946C24.9282 33.6294 24.322 33.4475 23.7006 33.4475H23.5869C22.526 33.4475 21.791 34.084 21.791 35.0009V35.0237C21.791 35.986 22.6094 36.3043 23.3672 36.5165L23.4884 36.5544L23.524 36.5656C24.0622 36.735 24.5266 36.8811 24.5266 37.2667V37.2894C24.5266 37.6456 24.2159 37.9108 23.7158 37.9108C23.5187 37.9108 22.8974 37.9108 22.2305 37.4789C22.1772 37.4498 22.1394 37.4238 22.1032 37.399L22.1032 37.399L22.1032 37.3989L22.1032 37.3989L22.1032 37.3989L22.103 37.3988C22.0826 37.3848 22.0628 37.3712 22.0411 37.3576C22.0108 37.3349 21.9274 37.3046 21.8895 37.4107L21.6622 38.0472V38.0548ZM38.598 38.1733C38.5818 38.1568 38.5533 38.1279 38.5838 38.0545V38.047L38.8112 37.4104C38.8415 37.3043 38.94 37.3422 38.9627 37.3574C38.9846 37.3711 39.0045 37.3847 39.0249 37.3987L39.0249 37.3988L39.025 37.3988C39.0611 37.4236 39.0989 37.4496 39.1522 37.4786C39.819 37.9106 40.4404 37.9106 40.6374 37.9106C41.1375 37.9106 41.4482 37.6453 41.4482 37.2892V37.2665C41.4482 36.8809 40.9839 36.7347 40.4456 36.5653L40.4101 36.5541L40.2888 36.5163C39.531 36.3041 38.7126 35.9858 38.7126 35.0234V35.0007C38.7126 34.0838 39.4477 33.4473 40.5086 33.4473H40.6222C41.2436 33.4473 41.8498 33.6291 42.2818 33.8944C42.3197 33.9171 42.3575 33.9626 42.3348 34.0232C42.3234 34.0535 42.2704 34.1975 42.2174 34.3414L42.2168 34.3429L42.2161 34.3449C42.1635 34.4877 42.1112 34.6296 42.0999 34.6597C42.062 34.7734 41.9483 34.6976 41.9483 34.6976C41.5695 34.4854 40.9784 34.3187 40.4783 34.3187C40.0312 34.3187 39.7432 34.5536 39.7432 34.8795V34.9022C39.7432 35.2782 40.2284 35.4378 40.7987 35.6254L40.8117 35.6297L40.9102 35.66C41.668 35.8949 42.4788 36.2283 42.4788 37.1452V37.1679C42.4788 38.1606 41.7665 38.7744 40.6071 38.7744C40.0387 38.7744 39.5007 38.6835 38.9248 38.3804C38.8824 38.3531 38.84 38.3283 38.7975 38.3034L38.7975 38.3034L38.7975 38.3034L38.7975 38.3034L38.7974 38.3034L38.7974 38.3033L38.7974 38.3033L38.7974 38.3033L38.7974 38.3033C38.7338 38.2661 38.6702 38.2288 38.6066 38.1834C38.6051 38.1804 38.6019 38.1772 38.598 38.1733ZM51.1082 35.0762C51.0097 34.7579 50.8657 34.47 50.6687 34.2351C50.4717 34.0002 50.2216 33.8107 49.9261 33.6743C49.6305 33.5379 49.282 33.4697 48.8955 33.4697C48.509 33.4697 48.1529 33.5379 47.8574 33.6743C47.5618 33.8107 47.3118 34.0002 47.1147 34.2351C46.9177 34.47 46.7737 34.7504 46.6752 35.0762C46.5843 35.3945 46.5312 35.7431 46.5312 36.1144C46.5312 36.4857 46.5767 36.8343 46.6752 37.1525C46.7662 37.4708 46.9177 37.7512 47.1147 37.9937C47.3118 38.2286 47.5618 38.418 47.8574 38.5544C48.1529 38.6908 48.5015 38.759 48.8879 38.759C49.2744 38.759 49.623 38.6908 49.9185 38.5544C50.214 38.418 50.4641 38.2286 50.6611 37.9937C50.8581 37.7587 51.0021 37.4784 51.1006 37.1525C51.1916 36.8343 51.2446 36.4857 51.2446 36.1144C51.2446 35.7431 51.1991 35.3945 51.1006 35.0762H51.1082ZM50.1383 36.1182C50.1378 36.6771 50.0317 37.1153 49.8276 37.4253C49.623 37.736 49.3199 37.8876 48.8879 37.8876C48.456 37.8876 48.1529 37.736 47.9559 37.4329C47.7513 37.1222 47.6528 36.6827 47.6528 36.1219C47.6528 35.5612 47.7588 35.1217 47.9559 34.8186C48.1529 34.5155 48.4636 34.3639 48.8879 34.3639C49.3123 34.3639 49.623 34.5155 49.8276 34.8186C50.0317 35.1286 50.1378 35.5668 50.1383 36.1182ZM58.9039 37.6751C58.9039 37.6751 58.9948 37.6448 59.0251 37.7358H59.01L59.2449 38.3875C59.2752 38.4708 59.207 38.5011 59.207 38.5011C58.8433 38.6451 58.3356 38.7436 57.843 38.7436C57.0094 38.7436 56.3653 38.5011 55.941 38.0237C55.5091 37.5539 55.2969 36.9098 55.2969 36.1066C55.2969 35.7352 55.3499 35.3867 55.456 35.0684C55.5621 34.7426 55.7212 34.4622 55.9258 34.2273C56.138 33.9924 56.3956 33.8029 56.7063 33.6665C57.017 33.5301 57.3808 33.4619 57.7824 33.4619C58.0552 33.4619 58.2977 33.4771 58.5098 33.5074C58.7372 33.5377 59.0327 33.621 59.1539 33.6665C59.1767 33.6741 59.2373 33.7044 59.2146 33.7802C59.1627 33.927 59.1208 34.0443 59.0788 34.1616L59.0787 34.1619L59.0785 34.1624C59.047 34.2506 59.0154 34.3387 58.9797 34.4394C58.9418 34.538 58.866 34.5076 58.866 34.5076C58.5477 34.4091 58.2446 34.3637 57.843 34.3637C57.3656 34.3637 57.0094 34.5228 56.7745 34.8335C56.5396 35.1518 56.4032 35.561 56.4032 36.1066C56.4032 36.7052 56.5548 37.1523 56.82 37.4251C57.0852 37.7055 57.4565 37.8419 57.9264 37.8419C58.1158 37.8419 58.2977 37.8267 58.4568 37.804C58.6159 37.7812 58.7599 37.7282 58.9039 37.6751ZM63.9659 34.8948C63.8825 34.5841 63.6779 34.2735 63.5491 34.1295C63.3369 33.9021 63.1323 33.743 62.9277 33.6597C62.6625 33.546 62.3442 33.4702 61.9957 33.4702C61.5865 33.4702 61.2152 33.5384 60.9196 33.6824C60.6165 33.8264 60.3664 34.0158 60.1694 34.2583C59.9724 34.5008 59.8209 34.7812 59.7299 35.107C59.6314 35.4253 59.5859 35.7814 59.5859 36.1527C59.5859 36.5241 59.639 36.8802 59.7375 37.1985C59.836 37.5167 59.9951 37.7971 60.2073 38.032C60.4195 38.2669 60.6999 38.4488 61.0257 38.5776C61.3516 38.7064 61.7532 38.7746 62.2078 38.7671C63.1551 38.7671 63.6476 38.5549 63.8522 38.4412C63.8901 38.4185 63.9204 38.3882 63.8825 38.2821L63.6703 37.6835C63.64 37.5925 63.5491 37.6228 63.5491 37.6228L63.5032 37.6408C63.2702 37.7323 62.9319 37.8653 62.2078 37.8653C61.7001 37.8653 61.3288 37.7138 61.0939 37.4789C60.8514 37.2364 60.7378 36.8878 60.715 36.3952H63.981C63.981 36.3952 64.0644 36.3952 64.0795 36.3119C64.0795 36.3077 64.0809 36.2964 64.0831 36.2785C64.1006 36.1332 64.1699 35.5568 63.981 34.9024L63.9659 34.8948ZM60.715 35.5768C60.7605 35.2661 60.8438 35.0085 60.9802 34.8039C61.1773 34.5008 61.488 34.3265 61.9123 34.3265C62.3367 34.3265 62.6246 34.4932 62.8292 34.8039C62.9656 35.0085 63.0262 35.2737 63.049 35.5768H60.7226H60.715ZM37.3892 34.1295C37.518 34.2735 37.7226 34.5842 37.8059 34.8949L37.8211 34.9025C38.01 35.5569 37.9406 36.1332 37.9231 36.2785L37.9212 36.2947C37.9202 36.3034 37.9196 36.3092 37.9196 36.3119C37.9045 36.3953 37.8211 36.3953 37.8211 36.3953H34.5551C34.5778 36.8878 34.6915 37.2364 34.934 37.4789C35.1689 37.7138 35.5402 37.8654 36.0479 37.8654C36.7719 37.8654 37.1103 37.7324 37.3433 37.6408L37.3892 37.6229C37.3892 37.6229 37.4801 37.5926 37.5104 37.6835L37.7226 38.2821C37.7605 38.3882 37.7302 38.4185 37.6923 38.4413C37.4877 38.5549 36.9875 38.7671 36.0479 38.7671C35.5932 38.7747 35.1916 38.7065 34.8658 38.5777C34.5399 38.4488 34.2596 38.267 34.0474 38.0321C33.8352 37.7972 33.6761 37.5168 33.5776 37.1985C33.479 36.8803 33.426 36.5241 33.426 36.1528C33.426 35.7815 33.4715 35.4253 33.57 35.1071C33.6609 34.7812 33.8125 34.5008 34.0095 34.2583C34.2065 34.0159 34.4566 33.8264 34.7597 33.6824C35.0552 33.5385 35.4265 33.4703 35.8357 33.4703C36.1843 33.4703 36.5026 33.546 36.7678 33.6597C36.9724 33.7431 37.177 33.9022 37.3892 34.1295ZM34.8203 34.8039C34.6839 35.0085 34.6006 35.2662 34.5551 35.5769H34.5627H36.889C36.8587 35.2738 36.8057 35.0085 36.6693 34.8039C36.4647 34.4933 36.1767 34.3265 35.7524 34.3265C35.328 34.3265 35.0173 34.5008 34.8203 34.8039ZM28.7931 35.4246C28.6567 35.417 28.49 35.4094 28.2854 35.4094C28.005 35.4094 27.7322 35.4473 27.4821 35.5155C27.2245 35.5837 26.9971 35.6898 26.8001 35.8338C26.6031 35.9777 26.444 36.1596 26.3227 36.3718C26.2091 36.584 26.1484 36.8416 26.1484 37.122C26.1484 37.4023 26.2015 37.66 26.3 37.8646C26.3985 38.0692 26.5425 38.2435 26.7243 38.3723C26.9062 38.5011 27.1335 38.5996 27.3912 38.6603C27.6488 38.7209 27.9368 38.7512 28.2551 38.7512C28.5885 38.7512 28.9219 38.7209 29.2477 38.6678C29.5097 38.6242 29.8229 38.56 29.989 38.526L29.989 38.526L29.9891 38.526L29.9892 38.5259L30.0737 38.5087C30.1798 38.486 30.301 38.4481 30.301 38.4481C30.3844 38.4253 30.3768 38.342 30.3768 38.342V35.3564C30.3768 34.7047 30.2025 34.2197 29.854 33.9166C29.513 33.6135 29.0052 33.4619 28.3536 33.4619C28.1111 33.4619 27.717 33.4922 27.4745 33.5453C27.4745 33.5453 26.7622 33.6817 26.4667 33.9166C26.4667 33.9166 26.3985 33.9545 26.4364 34.0454L26.6713 34.6668C26.7016 34.7501 26.7774 34.7198 26.7774 34.7198C26.7774 34.7198 26.8001 34.7122 26.8304 34.6895C27.4594 34.3485 28.2551 34.3561 28.2551 34.3561C28.6112 34.3561 28.8764 34.4243 29.0659 34.5683C29.2477 34.7047 29.3311 34.9093 29.3311 35.3488V35.4852C29.0507 35.4473 28.7931 35.4246 28.7931 35.4246ZM27.4897 37.7206C27.3701 37.6291 27.3485 37.5965 27.3096 37.5376L27.3003 37.5236C27.2321 37.4251 27.2017 37.2811 27.2017 37.0992C27.2017 36.8113 27.3003 36.6067 27.4897 36.4703C27.4897 36.4703 27.7701 36.2278 28.4369 36.2354C28.9067 36.2354 29.3235 36.3112 29.3235 36.3112V37.7964C29.3235 37.7964 28.9067 37.8873 28.4445 37.9101C27.7777 37.9479 27.4821 37.7206 27.4897 37.7206ZM55.1077 33.6287C55.1279 33.6458 55.165 33.6773 55.1453 33.743L55.1529 33.7505C55.1226 33.8339 54.9635 34.281 54.9104 34.4325C54.8877 34.4931 54.8498 34.5235 54.7892 34.5235C54.7892 34.5235 54.6073 34.478 54.433 34.478C54.3118 34.478 54.1451 34.4931 53.9935 34.5386C53.8495 34.5841 53.7131 34.6674 53.5919 34.7811C53.4706 34.8948 53.3721 35.0539 53.3039 35.2585C53.2357 35.4631 53.1978 35.7889 53.1978 36.1148V38.5472C53.1978 38.6003 53.1524 38.6458 53.0993 38.6458H52.243C52.19 38.6458 52.1445 38.6003 52.1445 38.5472V33.6747C52.1445 33.6217 52.1824 33.5762 52.2355 33.5762H53.069C53.1221 33.5762 53.16 33.6217 53.16 33.6747V34.0764C53.2888 33.9097 53.5085 33.7581 53.7131 33.6672C53.9177 33.5762 54.1451 33.508 54.5543 33.5308C54.7664 33.5384 55.0468 33.599 55.0999 33.6217C55.1019 33.6237 55.1046 33.626 55.1077 33.6287ZM47.0867 31.4848L47.0742 31.4812C47.0704 31.4795 47.0669 31.4782 47.0641 31.4772L47.0867 31.4848ZM47.0742 31.4812C46.9734 31.4527 46.8846 31.4308 46.7609 31.409C46.6321 31.3862 46.4881 31.3711 46.3138 31.3711C45.7228 31.3711 45.2605 31.5378 44.9271 31.8712C44.6012 32.1971 44.3815 32.6972 44.2678 33.3489L44.2299 33.5686H43.4873C43.4873 33.5686 43.3964 33.5686 43.3812 33.6672L43.26 34.3492C43.2524 34.4174 43.2827 34.4552 43.3661 34.4552H44.086L43.3509 38.5397C43.2903 38.8655 43.2297 39.1383 43.1539 39.3429C43.0857 39.5475 43.0099 39.6991 42.9266 39.8051C42.8432 39.9112 42.7674 39.987 42.631 40.0325C42.5174 40.0704 42.3885 40.0855 42.2446 40.0855C42.1688 40.0855 42.0627 40.0704 41.9793 40.0552C41.9036 40.0401 41.8581 40.0249 41.8051 39.9946C41.8051 39.9946 41.7217 39.9643 41.6838 40.0476C41.6535 40.1158 41.4641 40.6463 41.4413 40.7145C41.4186 40.7827 41.4489 40.8281 41.4944 40.8433C41.5648 40.8704 41.6197 40.8859 41.6924 40.9063C41.7214 40.9145 41.7532 40.9234 41.7899 40.9342C41.9718 40.9797 42.1233 40.9797 42.2673 40.9797C42.5704 40.9797 42.8432 40.9342 43.0705 40.8585C43.2979 40.7751 43.4949 40.6311 43.6768 40.4341C43.8662 40.2219 43.9874 40.0022 44.1011 39.7066C44.2148 39.4111 44.3133 39.0398 44.3891 38.6079L45.1241 34.4477H46.2001C46.2001 34.4477 46.2911 34.4477 46.3062 34.3492L46.4275 33.6672C46.4351 33.599 46.4048 33.5611 46.3214 33.5611H45.2757C45.2757 33.5611 45.3287 33.167 45.45 32.826C45.503 32.682 45.5939 32.5608 45.6773 32.4774C45.7606 32.3941 45.8516 32.341 45.9501 32.3107C46.0562 32.2804 46.1698 32.2577 46.2987 32.2577C46.3972 32.2577 46.4957 32.2728 46.5639 32.288C46.6072 32.298 46.6403 32.3051 46.6657 32.3105C46.698 32.3174 46.7179 32.3217 46.7306 32.3259C46.8367 32.3562 46.8518 32.3259 46.8746 32.2728L47.1246 31.5908C47.1445 31.5247 47.1007 31.4932 47.0742 31.4812ZM32.3962 31.4771H31.5399C31.4869 31.4771 31.4414 31.5225 31.4414 31.5756V38.5471C31.4414 38.6001 31.4869 38.6456 31.5399 38.6456H32.3962C32.4492 38.6456 32.4947 38.6001 32.4947 38.5471V31.5756C32.4947 31.5225 32.4492 31.4771 32.3962 31.4771Z" fill="#999999"/>
<path d="M14.6602 73.1773V64.0309H17.7519C18.7294 64.0158 19.4569 64.1522 19.9418 64.3795C20.927 64.8342 21.5483 65.8875 21.5483 67.1227C21.5483 68.8201 20.6087 70.3129 17.9868 70.3129H16.8956V73.1773H14.6602ZM17.8959 68.2593C18.8355 68.2593 19.3053 67.9411 19.3053 67.1605C19.3053 66.38 18.8507 66.0845 17.8125 66.0845H16.8956V68.2593H17.8959Z" fill="#999999"/>
<path d="M27.3693 73.1771L26.9222 71.851H23.7471L23.2621 73.1771H20.7539L24.4215 64.0308H26.2629L29.9002 73.1771H27.3693ZM25.3688 66.8876L25.3309 66.8724L24.3912 70.002H26.3084L25.3688 66.8876Z" fill="#999999"/>
<path d="M35.2239 73.1771L33.1097 70.2218H33.087V73.1771H30.8516V64.0308H33.8448C34.7996 64.0308 35.527 64.152 36.0044 64.3642C36.9895 64.8113 37.6867 65.8873 37.6867 67.1831C37.6867 68.6305 36.8228 69.8126 35.4134 70.0627L37.8989 73.1771H35.2315H35.2239ZM33.9509 68.6305C34.8753 68.6305 35.4437 68.1985 35.4437 67.3195C35.4437 66.5314 34.8526 66.0843 33.9736 66.0843H33.087V68.6305H33.9509Z" fill="#999999"/>
<path d="M39.7099 73.1774V66.0846H37.9064V64.031H43.8397V66.0846H42.0438V73.1774H39.7099Z" fill="#999999"/>
<path d="M50.4722 73.1774L46.9638 67.5926L47.0244 73.1774H44.7889V64.031H46.8046L50.3662 69.8128L50.2677 64.031H52.5031V73.1774H50.4798H50.4722Z" fill="#999999"/>
<path d="M54.1719 73.1771V64.0308H59.249V66.0843H56.4073V67.509H59.1656V69.5625H56.4073V71.1311H59.249V73.1847H54.1719V73.1771Z" fill="#999999"/>
<path d="M65.0793 73.1774L62.9651 70.222H62.9424V73.1774H60.7069V64.031H63.7001C64.6549 64.031 65.3824 64.1522 65.8598 64.3644C66.8449 64.8115 67.5421 65.8876 67.5421 67.1834C67.5421 68.6307 66.6782 69.8128 65.2687 70.0629L67.7542 73.1774H65.0869H65.0793ZM63.8062 68.6307C64.7307 68.6307 65.2991 68.1988 65.2991 67.3198C65.2991 66.5317 64.708 66.0846 63.829 66.0846H62.9424V68.6307H63.8062Z" fill="#999999"/>
</svg>
