<svg width="86" height="85" viewBox="0 0 86 85" fill="none" xmlns="http://www.w3.org/2000/svg">
<g clip-path="url(#clip0_66290_93541)">
<path d="M85.6661 67.5L0.413086 48.582V17.5L85.6661 36.418V67.5Z" fill="#595959"/>
<path d="M53.9122 36.4266L22.8389 67.4999H85.6661V36.4266H53.9122Z" fill="#838383"/>
<path d="M50.3511 53.1459H52.8991C54.3999 53.1459 55.098 53.9138 55.098 55.0569C55.098 56.1214 54.4087 57.0289 52.9514 57.0289H51.4855V59.1494H50.3511V53.1459ZM52.8031 56.0691C53.5971 56.0691 53.9636 55.6851 53.9636 55.0743C53.9636 54.4635 53.5535 54.1232 52.7682 54.1232H51.4942V56.0691H52.8031Z" fill="#2E2E2E"/>
<path d="M55.395 57.8839C55.395 56.8804 56.2153 56.4179 57.4195 56.4179H58.2659V56.1474C58.2659 55.589 57.9954 55.2748 57.4282 55.2748C56.8959 55.2748 56.5294 55.5017 56.2414 55.8682L55.5957 55.2312C56.0233 54.76 56.6079 54.4022 57.5416 54.4022C58.7284 54.4022 59.3392 55.0218 59.3392 56.1474V59.1492H58.3008V58.2853H58.2746C57.9866 58.9397 57.5242 59.2364 56.7912 59.2364C55.9797 59.2364 55.395 58.7478 55.395 57.8839ZM57.1664 58.4075C57.8645 58.4075 58.2659 57.8839 58.2659 57.3342V57.0287H57.6027C56.9832 57.0287 56.4683 57.1945 56.4683 57.7792C56.4683 58.1631 56.7301 58.4075 57.1751 58.4075H57.1664Z" fill="#2E2E2E"/>
<path d="M60.439 54.4895H61.4861V55.493H61.5035C61.6606 54.7513 62.0096 54.4022 62.5943 54.4022C62.7688 54.4022 62.9084 54.4284 62.9957 54.4633V55.4755C62.8822 55.4493 62.7077 55.4232 62.5507 55.4232C61.7828 55.4232 61.521 55.9555 61.521 56.8193V59.1666H60.439V54.5069V54.4895Z" fill="#2E2E2E"/>
<path d="M63.8427 57.9888V55.3273H63.1621V54.83L64.7153 53.2767H64.916V54.4896H65.9283V55.3273H64.916V57.7794C64.916 58.1895 65.0469 58.3029 65.4134 58.3029C65.5967 58.3029 65.7712 58.2767 65.9283 58.2331V59.1581C65.745 59.2017 65.4658 59.2366 65.1953 59.2366C64.2616 59.2366 63.8427 58.8876 63.8427 57.9975V57.9888Z" fill="#2E2E2E"/>
<path d="M66.8437 54.4895H67.8908V55.4669H67.9083C68.1177 54.9346 68.5453 54.3936 69.4353 54.3936C70.4388 54.3936 70.8838 55.0742 70.8838 56.0689V59.1492H69.8018V56.3307C69.8018 55.7025 69.5837 55.3272 68.9554 55.3272C68.3271 55.3272 67.917 55.7548 67.917 56.5402V59.1492H66.835V54.4895H66.8437Z" fill="#2E2E2E"/>
<path d="M71.6782 56.8193C71.6782 55.1963 72.7515 54.4022 74.0167 54.4022C75.5787 54.4022 76.1284 55.5453 76.1284 56.6797C76.1284 56.8193 76.1284 56.9589 76.111 57.0898H72.8125C72.8911 57.9799 73.3536 58.3987 74.1563 58.3987C74.6799 58.3987 75.0289 58.2417 75.3431 57.8752L75.9713 58.5034C75.535 58.9921 75.0028 59.2364 74.104 59.2364C72.6118 59.2364 71.6694 58.3813 71.6694 56.8193H71.6782ZM75.0551 56.4179C74.994 55.5977 74.5926 55.2312 73.9905 55.2312C73.3885 55.2312 72.9347 55.5977 72.83 56.4179H75.0551Z" fill="#2E2E2E"/>
<path d="M76.9746 54.4895H78.0217V55.493H78.0392C78.1963 54.7513 78.5453 54.4022 79.1299 54.4022C79.3045 54.4022 79.4441 54.4284 79.5313 54.4633V55.4755C79.4179 55.4493 79.2434 55.4232 79.0863 55.4232C78.3184 55.4232 78.0566 55.9555 78.0566 56.8193V59.1666H76.9746V54.5069V54.4895Z" fill="#2E2E2E"/>
<path fill-rule="evenodd" clip-rule="evenodd" d="M0.413086 48.582H32.167L63.2403 17.5H0.413086V48.582Z" fill="#999999"/>
<path fill-rule="evenodd" clip-rule="evenodd" d="M37.6991 23.3464H31.5124V38.0497L26.111 23.3464H20.7532L16.1372 35.6414C15.6485 32.5436 12.4373 31.4703 9.91553 30.6675C8.24887 30.1353 6.47749 29.3412 6.49494 28.4773C6.51239 27.7618 7.44608 27.0986 9.29599 27.2033C10.5438 27.2731 11.6346 27.3691 13.8248 28.425L15.9714 24.6815C13.9731 23.6693 11.2244 23.0236 8.9644 23.0236H8.94695C6.3117 23.0236 4.12147 23.8787 2.76021 25.2836C1.80908 26.2609 1.30297 27.5087 1.27679 28.8874C1.24189 30.781 1.93997 32.1335 3.39721 33.2068C4.6363 34.1143 6.20698 34.699 7.60314 35.1265C9.32217 35.6588 10.7183 36.1213 10.7009 37.1073C10.6921 37.4651 10.5525 37.7967 10.2908 38.0759C9.86318 38.5209 9.20873 38.6867 8.30122 38.7042C6.5473 38.7391 5.24712 38.4686 3.17906 37.2469L1.26807 41.0428C3.33613 42.2208 5.77941 42.9014 8.26632 42.9014H8.58918C10.762 42.8578 12.5072 42.2382 13.912 41.1126C13.9906 41.0515 14.0604 40.9817 14.1389 40.9206L13.5194 42.5785H19.1389L20.0813 39.7077C21.0674 40.048 22.193 40.2312 23.3798 40.2312C24.5665 40.2312 25.6311 40.0567 26.5997 39.7339L27.5072 42.5698H36.6695V36.6361H38.6677C43.5019 36.6361 46.3553 34.1754 46.3553 30.0567C46.3553 25.4668 43.5805 23.3551 37.673 23.3551L37.6991 23.3464ZM23.4059 35.9293C22.6817 35.9293 22.0098 35.8072 21.4251 35.5803L23.3885 29.3935H23.4234L25.3518 35.5977C24.7759 35.8072 24.1127 35.9293 23.4059 35.9293ZM38.0569 32.3691H36.6956V27.3866H38.0569C39.8719 27.3866 41.3204 27.9887 41.3204 29.8473C41.3204 31.7059 39.8719 32.3691 38.0569 32.3691Z" fill="#2E2E2E"/>
</g>
<defs>
<clipPath id="clip0_66290_93541">
<rect width="85.2531" height="50" fill="white" transform="translate(0.413086 17.5)"/>
</clipPath>
</defs>
</svg>
