<svg width="85" height="96" viewBox="0 0 85 96" fill="none" xmlns="http://www.w3.org/2000/svg">
<path d="M57.0444 7.79444L83.2056 33.9556V89.2056H27.5778L1.7 63.3278V7.70002H57.0444M57.8 6H0V64.0833L26.9167 91H85V33.2L57.8 6Z" fill="#999999"/>
<path d="M13.785 53.8813V56.998H11.9905V48.498H15.2016C15.9572 48.4036 16.7127 48.6869 17.2794 49.2536C18.3183 50.3869 18.3183 52.0869 17.2794 53.2202C16.7127 53.6924 15.9572 53.9758 15.2016 53.9758H13.785V53.8813ZM13.785 52.5591H15.1072C15.4849 52.5591 15.8627 52.4647 16.0516 52.1813C16.4294 51.6147 16.4294 50.7647 16.0516 50.198C15.7683 50.0091 15.4849 49.8202 15.1072 49.8202H13.785V52.5591ZM25.5905 56.998L25.0238 55.1091H22.0961L21.5294 56.998H19.6405L22.5683 48.498H24.6461L27.5738 56.998H25.5905ZM22.5683 53.6924H24.6461L23.6072 50.1036L22.5683 53.6924ZM30.1238 56.998V48.498H33.3349C34.0905 48.4036 34.8461 48.6869 35.4127 49.2536C35.8849 49.7258 36.1683 50.4813 36.1683 51.1425C36.1683 51.6147 35.9794 52.0869 35.696 52.4647C35.4127 52.8425 34.9405 53.2202 34.5627 53.4091L36.6405 57.0924H34.7516L32.9572 53.7869H31.7294V56.998H30.1238ZM31.9183 52.3702H33.2405C33.9016 52.4647 34.4683 51.9924 34.4683 51.3313C34.4683 51.2369 34.4683 51.1424 34.4683 50.9536C34.5627 50.2924 34.0905 49.7258 33.5238 49.7258C33.4294 49.7258 33.335 49.7258 33.2405 49.7258H31.9183V52.3702ZM41.1738 56.998V50.0091H38.5294V48.498H45.5183V50.0091H42.8738V56.998H41.1738ZM50.0516 51.1425V56.998H48.446V48.498H50.4294L53.9238 54.448V48.498H55.5294V56.998H53.5461L50.0516 51.1425ZM58.7405 56.998V48.498H64.3127V49.9147H60.535V51.898H63.5572V53.3147H60.535V55.5813H64.3127V56.998H58.7405ZM67.6183 56.998V48.498H70.8294C71.5849 48.4036 72.3405 48.6869 72.9072 49.2536C73.3794 49.7258 73.6627 50.4813 73.6627 51.1425C73.6627 51.6147 73.5683 52.0869 73.285 52.4647C73.0016 52.8425 72.5294 53.2202 72.1516 53.4091L74.2294 57.0924H72.3405L70.4516 53.7869H69.2238V56.998H67.6183ZM69.4127 52.3702H70.7349C71.3961 52.4647 71.9627 51.9924 71.9627 51.3313C71.9627 51.2369 71.9627 51.1424 71.9627 50.9536C72.0572 50.2924 71.585 49.7258 71.0183 49.7258C70.9238 49.7258 70.8294 49.7258 70.7349 49.7258H69.4127V52.3702Z" fill="#999999"/>
<path d="M18.8849 25.453C18.8849 25.7363 18.885 26.0196 19.0738 26.303C19.1683 26.4919 19.2627 26.7752 19.3572 27.0586C19.4516 27.153 19.4516 27.2474 19.4516 27.2474C19.4516 27.3419 19.3572 27.4363 19.2627 27.5308L18.6016 27.9085C18.6016 27.9085 18.5072 27.9085 18.4127 27.9085C18.2238 27.9085 18.2238 27.8141 18.1294 27.8141C18.035 27.6252 17.846 27.5308 17.7516 27.3419C17.6572 27.2474 17.5627 26.9641 17.4683 26.7752C16.7127 27.6252 15.7683 28.0974 14.6349 28.0974C13.8794 28.1919 13.2183 27.9085 12.7461 27.3419C12.2738 26.8697 11.9905 26.2085 11.9905 25.453C11.9905 24.6974 12.2738 23.9419 12.8405 23.4696C13.5016 22.9974 14.3516 22.7141 15.2016 22.7141C15.5794 22.7141 15.9572 22.7141 16.2405 22.8086C16.6183 22.903 16.996 22.903 17.2794 22.9974V22.2419C17.3738 21.6752 17.1849 21.1085 16.8072 20.7308C16.4294 20.353 15.8627 20.2585 15.2961 20.353C14.9183 20.353 14.5405 20.4474 14.2572 20.4474C13.9738 20.4474 13.5016 20.6363 13.2183 20.8252C13.1238 20.9197 13.0294 20.9196 12.8405 21.0141C12.7461 21.0141 12.7461 21.0141 12.7461 21.0141C12.5572 21.0141 12.5572 20.9197 12.5572 20.7308V20.2585C12.5572 20.1641 12.5572 20.0697 12.6516 19.8808C12.7461 19.7863 12.8405 19.7863 12.935 19.6919C13.3127 19.503 13.6905 19.3141 14.1627 19.3141C14.6349 19.1252 15.2016 19.1252 15.6738 19.1252C16.6183 19.0308 17.4683 19.3141 18.1294 19.8808C18.6961 20.5419 18.9794 21.3919 18.8849 22.2419V25.453ZM15.0127 26.8697C15.3905 26.8697 15.6738 26.7752 16.0516 26.7752C16.4294 26.5863 16.7127 26.3974 16.9961 26.1141C17.0905 25.9252 17.2794 25.7363 17.3738 25.453C17.4683 25.1697 17.4683 24.8863 17.4683 24.603V24.1308C17.1849 24.0363 16.9016 24.0363 16.6183 24.0363C16.335 23.9419 16.0516 23.9419 15.6738 23.9419C15.2016 23.8474 14.635 24.0363 14.2572 24.3196C13.6905 24.8863 13.5961 25.8308 14.1627 26.3974C14.2572 26.7752 14.6349 26.9641 15.0127 26.8697ZM22.7572 27.9085C22.6627 27.9085 22.4738 27.9085 22.3794 27.8141C22.285 27.7197 22.2849 27.6252 22.1905 27.4363L19.9238 19.9752C19.8294 19.7863 19.8294 19.6919 19.8294 19.5974C19.8294 19.4085 19.9238 19.4085 19.9238 19.4085H20.0183H20.9627C21.1516 19.4085 21.2461 19.4086 21.3405 19.503C21.435 19.5974 21.5294 19.6919 21.5294 19.8808L23.1349 26.2085L24.6461 19.8808C24.6461 19.7863 24.7405 19.5974 24.8349 19.503C25.0238 19.4086 25.1183 19.4085 25.2127 19.4085H25.9683C26.1572 19.4085 26.2516 19.4086 26.3461 19.503C26.4405 19.5974 26.535 19.6919 26.535 19.8808L28.0461 26.303L29.6516 19.8808C29.6516 19.7863 29.7461 19.5974 29.8405 19.503C30.0294 19.4086 30.0294 19.4085 30.2183 19.4085H31.1627C31.2572 19.4085 31.3516 19.503 31.3516 19.5974V19.6919C31.3516 19.7863 31.3516 19.7863 31.3516 19.7863L31.2572 19.9752L28.9905 27.3419C28.9905 27.4363 28.8961 27.6252 28.8016 27.7196C28.7072 27.8141 28.6127 27.8141 28.4238 27.8141H27.5738C27.4794 27.8141 27.2905 27.8141 27.196 27.7196C27.1016 27.5308 27.1016 27.5308 27.0072 27.3419L25.4961 21.203L23.9849 27.3419C23.9849 27.4363 23.8905 27.6252 23.7961 27.7196C23.7016 27.8141 23.6072 27.8141 23.5127 27.8141H22.7572V27.9085ZM35.035 28.1919C34.5627 28.1919 33.9961 28.0974 33.5238 28.003C33.1461 27.9086 32.7683 27.8141 32.3905 27.6252C32.2016 27.5308 32.0127 27.3419 32.0127 27.0586V26.5863C32.0127 26.3974 32.1072 26.303 32.2016 26.303C32.2961 26.303 32.3905 26.303 32.3905 26.303C32.4849 26.303 32.4849 26.3974 32.5794 26.3974C32.9572 26.4919 33.335 26.6808 33.6183 26.7752C33.9961 26.8696 34.3738 26.8697 34.7516 26.8697C35.2238 26.8697 35.7905 26.7752 36.1683 26.4919C36.4516 26.303 36.6405 25.9252 36.6405 25.5474C36.6405 25.2641 36.5461 25.0752 36.3572 24.8863C36.0738 24.6974 35.6961 24.5085 35.3183 24.4141L33.9016 24.0363C33.3349 23.9419 32.7683 23.5641 32.3905 22.9974C32.1072 22.6196 31.9183 22.053 31.9183 21.5808C31.9183 21.203 32.0127 20.8252 32.2016 20.5419C32.3905 20.2585 32.5794 19.9752 32.9572 19.7863C33.2405 19.5974 33.6183 19.4085 33.9961 19.3141C34.3738 19.1252 34.7516 19.1252 35.2238 19.1252C35.4127 19.1252 35.6961 19.1252 35.8849 19.2196C36.0738 19.2196 36.2627 19.3141 36.5461 19.3141C36.8294 19.3141 36.9238 19.4085 37.1127 19.4085C37.2072 19.503 37.3961 19.503 37.4905 19.5974C37.585 19.6919 37.6794 19.6919 37.7738 19.7863C37.8683 19.8808 37.8683 19.9752 37.8683 20.1641V20.6363C37.8683 20.8252 37.7738 20.9197 37.6794 20.9197C37.5849 20.9197 37.3961 20.8252 37.3016 20.8252C36.7349 20.5419 36.0738 20.4474 35.5072 20.4474C35.1294 20.4474 34.6572 20.5419 34.185 20.7308C33.9016 20.8252 33.7127 21.203 33.8072 21.5808C33.8072 21.8641 33.9016 22.053 34.0905 22.3363C34.3738 22.6197 34.7516 22.7141 35.1294 22.8086L36.4516 23.1863C37.0183 23.2808 37.4905 23.6585 37.9627 24.1308C38.2461 24.5085 38.3405 24.9808 38.3405 25.453C38.3405 25.8308 38.246 26.2086 38.0572 26.5863C37.9627 26.9641 37.6794 27.2474 37.3016 27.4363C37.0183 27.6252 36.5461 27.8141 36.2627 28.003C35.9794 28.1919 35.5072 28.1919 35.035 28.1919Z" fill="#999999"/>
<path d="M36.8301 32.8236C33.619 35.1847 29.0857 36.4125 25.119 36.4125C19.8301 36.4125 14.8246 34.5236 10.8579 30.9347C10.5746 30.6514 10.8579 30.2736 11.2357 30.557C15.5801 33.107 20.4912 34.4292 25.4968 34.4292C29.2746 34.4292 32.9579 33.6736 36.4524 32.257C36.9246 31.8792 37.3968 32.4458 36.8301 32.8236ZM37.3023 34.9959C37.2079 35.2792 37.4912 35.3736 37.7746 35.1847C39.4746 33.7681 39.8523 30.8403 39.569 30.3681C39.1912 29.9903 36.2635 29.6125 34.469 30.8403C34.1857 31.0292 34.2801 31.3125 34.5635 31.2181C35.6024 31.1236 37.869 30.8403 38.2468 31.407C38.6246 31.9736 37.6801 34.0514 37.3023 34.9959Z" fill="#999999"/>
</svg>
