<svg xmlns="http://www.w3.org/2000/svg" width="79" height="85" viewBox="0 0 79 85" fill="none"><g clip-path="url(#clip0_61529_2098)"><path fill-rule="evenodd" clip-rule="evenodd" d="M0.576325 77.3995C0.576325 79.28 2.10073 80.8044 3.98117 80.8044H73.8262C75.7067 80.8044 77.2311 79.28 77.2311 77.3995V7.98116C77.2311 6.10072 75.7067 4.57632 73.8262 4.57632H3.98117C2.10073 4.57632 0.576325 6.10072 0.576325 7.98116L0.576325 77.3995ZM3.98117 81.3807C1.78243 81.3807 0 79.5983 0 77.3995L0 7.98116C0 5.78242 1.78243 3.99999 3.98117 3.99999H73.8262C76.025 3.99999 77.8074 5.78242 77.8074 7.98116V77.3995C77.8074 79.5983 76.025 81.3807 73.8262 81.3807H3.98117Z" fill="#999999"></path><path d="M43.3572 23.3749L44.4016 23.3941L47.238 20.5577L47.3756 19.3566C45.1216 17.3522 42.1561 16.1308 38.91 16.1308C33.0313 16.1308 28.0721 20.1289 26.6011 25.5489C26.9115 25.3345 27.5718 25.4945 27.5718 25.4945L33.2404 24.5633C33.2404 24.5633 33.5337 24.0811 33.6788 24.111C34.976 22.6922 36.8406 21.7994 38.909 21.7994C40.5923 21.7994 42.1401 22.3903 43.3572 23.3749Z" fill="#595959"></path><path d="M51.2198 25.5567C50.5616 23.1266 49.2026 20.9825 47.3721 19.3547L43.3537 23.3731C44.9624 24.6734 45.9939 26.6607 45.9939 28.8848V29.5932C47.9471 29.5932 49.5365 31.1826 49.5365 33.1358C49.5365 35.0889 47.9471 36.6784 45.9928 36.6784H38.9076L38.1982 37.3909V41.6429L38.9076 42.348H45.9928C51.0715 42.348 55.204 38.2155 55.204 33.1368C55.204 29.9964 53.6231 27.2197 51.2177 25.5567H51.2198Z" fill="#6E6E6E"></path><path d="M31.8229 42.3476H38.9028V36.679H31.824C31.3034 36.679 30.8106 36.5638 30.3647 36.3612L29.3439 36.6737L26.5064 39.5112L26.2578 40.4691C27.8056 41.6468 29.7343 42.3476 31.824 42.3487L31.8229 42.3476Z" fill="#838383"></path><path d="M31.824 23.9255C26.7453 23.9255 22.6128 28.058 22.6128 33.1367C22.6128 36.1278 24.0465 38.7883 26.261 40.4726L30.37 36.3636C29.1401 35.8068 28.2814 34.5715 28.2814 33.1367C28.2814 31.1836 29.8708 29.5941 31.824 29.5941C33.2587 29.5941 34.4951 30.4529 35.0508 31.6828L39.1599 27.5738C37.4766 25.3592 34.8151 23.9255 31.824 23.9255Z" fill="#999999"></path><path d="M23.8306 69.5403V62.7377H26.187C26.491 62.7377 26.7779 62.7889 27.0468 62.8892C27.3156 62.9906 27.5513 63.1335 27.754 63.317C27.9567 63.5004 28.1167 63.7213 28.234 63.9773C28.3514 64.2333 28.41 64.517 28.41 64.8275C28.41 65.1379 28.3514 65.412 28.234 65.668C28.1167 65.9241 27.9567 66.1449 27.754 66.3283C27.5513 66.5118 27.3156 66.6548 27.0468 66.7561C26.7779 66.8574 26.491 66.9076 26.187 66.9076H24.9048V69.5392H23.8316L23.8306 69.5403ZM26.2147 65.8825C26.3918 65.8825 26.5507 65.8526 26.6894 65.7918C26.8291 65.732 26.9454 65.651 27.0414 65.5496C27.1364 65.4483 27.2089 65.3342 27.2601 65.2072C27.3102 65.0803 27.3358 64.9544 27.3358 64.8275C27.3358 64.6941 27.3102 64.565 27.2601 64.4381C27.2089 64.3112 27.1364 64.1992 27.0414 64.101C26.9465 64.0029 26.8291 63.9218 26.6894 63.8589C26.5497 63.7959 26.3918 63.7639 26.2147 63.7639H24.9037V65.8825H26.2147Z" fill="#999999"></path><path d="M31.9496 68.9703H31.8931C31.7533 69.1538 31.5731 69.3202 31.3512 69.4695C31.1293 69.6178 30.8477 69.6925 30.5053 69.6925C30.2578 69.6925 30.0274 69.653 29.8119 69.5741C29.5964 69.4951 29.4097 69.3842 29.2519 69.2413C29.094 69.0983 28.9681 68.9308 28.8764 68.7378C28.7846 68.5447 28.7388 68.3313 28.7388 68.0967C28.7388 67.8492 28.7878 67.6284 28.886 67.4321C28.9841 67.2358 29.1207 67.0715 29.2945 66.9382C29.4684 66.8049 29.6764 66.7025 29.9164 66.6299C30.1575 66.5574 30.4167 66.5211 30.6951 66.5211C31.0056 66.5211 31.2648 66.551 31.4739 66.6118C31.6829 66.6715 31.8408 66.727 31.9486 66.7782V66.5979C31.9486 66.4582 31.9187 66.3291 31.8579 66.2086C31.7981 66.088 31.7149 65.9856 31.6104 65.9003C31.5059 65.8149 31.3875 65.7488 31.2541 65.7008C31.1208 65.6528 30.9821 65.6293 30.836 65.6293C30.6013 65.6293 30.3911 65.6752 30.2045 65.7669C30.0178 65.8587 29.8514 66.0059 29.7052 66.2086L28.8689 65.6571C29.0908 65.353 29.366 65.1237 29.6956 64.968C30.0252 64.8133 30.3986 64.7354 30.8168 64.7354C31.5069 64.7354 32.0403 64.9061 32.4179 65.2485C32.7945 65.5909 32.9833 66.0784 32.9833 66.7121V69.5431H31.9475V68.9735L31.9496 68.9703ZM31.9496 67.6028C31.8099 67.5206 31.6552 67.4545 31.4845 67.4033C31.3139 67.3532 31.1176 67.3276 30.8957 67.3276C30.5661 67.3276 30.3037 67.4033 30.1074 67.5558C29.9111 67.7084 29.813 67.8919 29.813 68.1073C29.813 68.2215 29.8386 68.3207 29.8887 68.4071C29.9388 68.4924 30.0039 68.5671 30.0839 68.63C30.1629 68.693 30.2546 68.741 30.3591 68.773C30.4637 68.805 30.5693 68.821 30.677 68.821C30.8477 68.821 31.0109 68.7879 31.1666 68.7207C31.3213 68.6546 31.4568 68.566 31.5709 68.4551C31.6851 68.3441 31.7768 68.2161 31.8461 68.07C31.9155 67.9239 31.9507 67.7692 31.9507 67.6049L31.9496 67.6028Z" fill="#999999"></path><path d="M34.9228 65.6643H34.9793C35.1063 65.3987 35.2972 65.1928 35.5543 65.0467C35.8103 64.9005 36.094 64.828 36.4045 64.828C36.5058 64.828 36.5805 64.8312 36.6274 64.8376C36.6743 64.844 36.7234 64.8536 36.7746 64.8664V65.931C36.7053 65.9054 36.637 65.8883 36.5709 65.8787C36.5047 65.8691 36.4173 65.8649 36.3095 65.8649C35.9106 65.8649 35.5895 65.9865 35.3452 66.2307C35.1009 66.475 34.9793 66.7961 34.9793 67.1951V69.6176H33.9243V64.9624H34.9217V65.6654L34.9228 65.6643ZM38.2008 65.8158H37.3837V64.8845H38.2008V63.4594H39.2558V64.8845H40.4058V65.8158H39.2558V67.9428C39.2558 68.0602 39.2686 68.1679 39.2942 68.265C39.3198 68.3631 39.3572 68.4442 39.4084 68.5093C39.5161 68.633 39.6526 68.6949 39.8169 68.6949C39.9183 68.6949 39.9972 68.6874 40.0548 68.6714C40.1113 68.6554 40.1721 68.632 40.2351 68.6L40.5583 69.5312C40.425 69.5813 40.2863 69.6219 40.1401 69.6496C39.994 69.6784 39.8297 69.6923 39.6462 69.6923C39.4244 69.6923 39.2281 69.6571 39.0574 69.5856C38.8867 69.5141 38.7374 69.4181 38.6105 69.2955C38.3384 69.017 38.2019 68.6394 38.2019 68.1615V65.8169L38.2008 65.8158Z" fill="#999999"></path><path d="M42.1488 65.5123H42.2053C42.345 65.2904 42.5424 65.1058 42.7995 64.9565C43.0555 64.8082 43.3456 64.7336 43.6688 64.7336C44.2577 64.7336 44.6982 64.9096 44.9895 65.2605C45.2807 65.6125 45.4268 66.0787 45.4268 66.6622V69.5413H44.3718V66.8051C44.3718 66.3998 44.2779 66.116 44.0913 65.955C43.9046 65.7939 43.6592 65.7128 43.3552 65.7128C43.1718 65.7128 43.0096 65.7512 42.8709 65.827C42.7312 65.9027 42.6107 66.0062 42.5104 66.1352C42.409 66.2654 42.3333 66.4137 42.2821 66.5822C42.2309 66.7497 42.2064 66.9257 42.2064 67.1092V69.5413H41.1514V64.8861H42.1488V65.5133V65.5123Z" fill="#999999"></path><path d="M50.6522 68.4289C50.4559 68.7894 50.1775 69.0913 49.8159 69.3313C49.4553 69.5724 49.0116 69.6919 48.4857 69.6919C48.1369 69.6919 47.8158 69.63 47.5214 69.5063C47.227 69.3825 46.972 69.2097 46.7565 68.9889C46.541 68.767 46.3736 68.5057 46.253 68.2048C46.1325 67.904 46.0728 67.5733 46.0728 67.2117C46.0728 66.8757 46.1293 66.5578 46.2434 66.257C46.3576 65.9562 46.5176 65.6938 46.7235 65.4687C46.9293 65.2436 47.1779 65.0644 47.4691 64.9321C47.7603 64.7998 48.0835 64.7326 48.4377 64.7326C48.7918 64.7326 49.1204 64.7924 49.402 64.9129C49.6836 65.0335 49.9226 65.2009 50.1189 65.4164C50.3151 65.6319 50.4655 65.8911 50.5701 66.1951C50.6746 66.4991 50.7269 66.832 50.7269 67.1925V67.2779C50.7205 67.3099 50.7173 67.3376 50.7173 67.3632C50.7109 67.3888 50.7077 67.4144 50.7077 67.4389H47.1256C47.1448 67.6608 47.1982 67.8539 47.2867 68.0182C47.3752 68.1824 47.484 68.319 47.6142 68.4267C47.7443 68.5345 47.8883 68.6134 48.0462 68.6646C48.2041 68.7158 48.3598 68.7403 48.5113 68.7403C48.8153 68.7403 49.0649 68.6678 49.2623 68.5217C49.4585 68.3755 49.6196 68.1952 49.7466 67.9798L50.649 68.4267L50.6522 68.4289ZM49.674 66.6336C49.6612 66.5386 49.6314 66.433 49.5834 66.3157C49.5364 66.1983 49.4628 66.0906 49.3647 65.9924C49.2665 65.8943 49.1396 65.81 48.9849 65.7407C48.8292 65.6714 48.6414 65.6362 48.4196 65.6362C48.1155 65.6362 47.8542 65.7268 47.6355 65.9071C47.4168 66.0874 47.2696 66.3295 47.1939 66.6336H49.674Z" fill="#999999"></path><path d="M51.4288 64.8852H52.4262V65.5881H52.4827C52.5393 65.4676 52.6171 65.3556 52.7153 65.251C52.8134 65.1465 52.9244 65.058 53.0481 64.9844C53.1718 64.9108 53.3009 64.851 53.4374 64.8041C53.574 64.7571 53.7052 64.7337 53.8321 64.7337C53.9836 64.7337 54.1138 64.7486 54.2215 64.7763C54.3292 64.8051 54.4274 64.8446 54.5159 64.8948L54.2119 65.8548C54.1426 65.8228 54.0647 65.7993 53.9793 65.7833C53.894 65.7673 53.7905 65.7599 53.6711 65.7599C53.5004 65.7599 53.3436 65.7951 53.2006 65.8655C53.0577 65.9359 52.9329 66.0308 52.8251 66.1514C52.7174 66.2719 52.6331 66.4159 52.5734 66.5812C52.5137 66.7466 52.4827 66.9215 52.4827 67.1061V69.5414H51.4277V64.8862L51.4288 64.8852Z" fill="#999999"></path><path d="M20.4444 55.8883C20.4444 56.7139 20.199 57.371 19.7094 57.8607C19.159 58.4442 18.4357 58.7354 17.5397 58.7354C16.6436 58.7354 15.9556 58.4388 15.3614 57.8447C14.7673 57.2505 14.4707 56.5187 14.4707 55.6493C14.4707 54.7799 14.7673 54.0482 15.3614 53.454C15.9556 52.8598 16.682 52.5633 17.5397 52.5633C17.9738 52.5633 18.3835 52.6401 18.7685 52.7948C19.1536 52.9484 19.4705 53.166 19.7179 53.4465L19.1739 53.9916C18.9926 53.7719 18.7568 53.6001 18.4688 53.4764C18.1797 53.3527 17.8704 53.2908 17.5407 53.2908C16.8975 53.2908 16.3524 53.5137 15.9065 53.9596C15.466 54.4109 15.2462 54.9741 15.2462 55.6515C15.2462 56.3288 15.466 56.8921 15.9065 57.3433C16.3524 57.7892 16.8964 58.0121 17.5407 58.0121C18.1296 58.0121 18.6192 57.8468 19.0096 57.5172C19.4001 57.1876 19.6262 56.7331 19.6859 56.156H17.5407V55.4467H20.4038C20.4316 55.6003 20.4454 55.7496 20.4454 55.8925L20.4444 55.8883Z" fill="#999999"></path><path d="M20.9639 56.5814C20.9639 55.9595 21.1591 55.4453 21.5495 55.0389C21.9453 54.6314 22.4434 54.4287 23.0429 54.4287C23.6424 54.4287 24.1374 54.6325 24.5278 55.0389C24.9236 55.4464 25.122 55.9605 25.122 56.5814C25.122 57.2022 24.9236 57.7228 24.5278 58.1239C24.1374 58.5313 23.6424 58.734 23.0429 58.734C22.4434 58.734 21.9453 58.5303 21.5495 58.1239C21.1591 57.7164 20.9639 57.2022 20.9639 56.5814ZM21.7234 56.5814C21.7234 57.0155 21.8503 57.3675 22.1031 57.6374C22.3559 57.9073 22.6696 58.0417 23.044 58.0417C23.4184 58.0417 23.732 57.9073 23.9848 57.6374C24.2377 57.3675 24.3646 57.0155 24.3646 56.5814C24.3646 56.1472 24.2377 55.8027 23.9848 55.5338C23.7267 55.2586 23.4131 55.121 23.044 55.121C22.6749 55.121 22.3623 55.2586 22.1031 55.5338C21.8503 55.8037 21.7234 56.1525 21.7234 56.5814Z" fill="#999999"></path><path d="M25.5845 56.5814C25.5845 55.9595 25.7797 55.4453 26.1701 55.0389C26.5659 54.6314 27.064 54.4287 27.6635 54.4287C28.263 54.4287 28.758 54.6325 29.1484 55.0389C29.5442 55.4464 29.7426 55.9605 29.7426 56.5814C29.7426 57.2022 29.5442 57.7228 29.1484 58.1239C28.758 58.5313 28.263 58.734 27.6635 58.734C27.064 58.734 26.5659 58.5303 26.1701 58.1239C25.7797 57.7164 25.5845 57.2022 25.5845 56.5814ZM26.344 56.5814C26.344 57.0155 26.4709 57.3675 26.7237 57.6374C26.9766 57.9073 27.2902 58.0417 27.6646 58.0417C28.039 58.0417 28.3526 57.9073 28.6054 57.6374C28.8583 57.3675 28.9852 57.0155 28.9852 56.5814C28.9852 56.1472 28.8583 55.8027 28.6054 55.5338C28.3473 55.2586 28.0337 55.121 27.6646 55.121C27.2955 55.121 26.983 55.2586 26.7237 55.5338C26.4709 55.8037 26.344 56.1525 26.344 56.5814Z" fill="#999999"></path><path d="M32.2261 60.5176C32 60.5176 31.7888 60.4888 31.5904 60.4312C31.3919 60.3736 31.2117 60.2925 31.0495 60.188C30.8874 60.0834 30.7487 59.9597 30.6324 59.8168C30.5172 59.6738 30.4287 59.5138 30.3679 59.3378L31.0858 59.0412C31.1679 59.2781 31.3109 59.4679 31.5146 59.6109C31.7184 59.7538 31.9541 59.8253 32.224 59.8253C32.6368 59.8253 32.9579 59.7015 33.1894 59.4541C33.4209 59.2066 33.5361 58.8652 33.5361 58.4311V58.0428H33.503C33.3601 58.2572 33.1659 58.4268 32.9216 58.5505C32.6763 58.6743 32.4117 58.7362 32.1259 58.7362C31.5978 58.7362 31.1434 58.5303 30.7647 58.1175C30.3903 57.694 30.2036 57.1819 30.2036 56.5824C30.2036 55.9829 30.3903 55.4741 30.7647 55.0559C31.1445 54.6378 31.5978 54.4287 32.1259 54.4287C32.4117 54.4287 32.6774 54.4906 32.9216 54.6143C33.1659 54.7381 33.3601 54.9077 33.503 55.1221H33.5361V54.561H34.2625V58.4311C34.2625 59.0796 34.078 59.5885 33.7099 59.9576C33.3355 60.332 32.8406 60.5187 32.2251 60.5187L32.2261 60.5176ZM32.2507 58.0417C32.6251 58.0417 32.9302 57.9073 33.167 57.6374C33.4145 57.3675 33.5382 57.0155 33.5382 56.5814C33.5382 56.1472 33.4145 55.8091 33.167 55.5338C32.9248 55.2586 32.6198 55.121 32.2507 55.121C31.8816 55.121 31.5829 55.2586 31.3343 55.5338C31.0869 55.8091 30.9631 56.1579 30.9631 56.5814C30.9631 57.0049 31.0869 57.3601 31.3343 57.6289C31.5818 57.9041 31.8869 58.0417 32.2507 58.0417Z" fill="#999999"></path><path d="M35.949 52.6952V58.6028H35.1895V52.6952H35.949Z" fill="#999999"></path><path d="M38.6466 58.7351C38.0524 58.7351 37.5628 58.5313 37.1777 58.1249C36.7926 57.7174 36.6006 57.2033 36.6006 56.5824C36.6006 55.9616 36.7873 55.4538 37.1617 55.0431C37.5361 54.6335 38.014 54.4287 38.5975 54.4287C39.181 54.4287 39.6738 54.6229 40.0291 55.0101C40.3843 55.3984 40.5613 55.9413 40.5613 56.64L40.5528 56.7222H37.3761C37.3868 57.1179 37.519 57.4369 37.7719 57.679C38.0247 57.9212 38.3276 58.0417 38.6796 58.0417C39.1639 58.0417 39.5426 57.7996 39.8178 57.3153L40.4941 57.6449C40.3128 57.9863 40.0611 58.2529 39.7389 58.4449C39.4167 58.637 39.053 58.734 38.6455 58.734L38.6466 58.7351ZM37.4337 56.0949H39.7528C39.7304 55.8144 39.6162 55.5818 39.4103 55.3973C39.2045 55.2128 38.9271 55.121 38.5815 55.121C38.2956 55.121 38.0492 55.2096 37.8433 55.3856C37.6374 55.5616 37.5009 55.7984 37.4348 56.0949H37.4337Z" fill="#999999"></path><path d="M45.8171 58.7354C44.9424 58.7354 44.2106 58.441 43.6218 57.8522C43.0383 57.2633 42.7471 56.5294 42.7471 55.6494C42.7471 54.7693 43.0383 54.0376 43.6218 53.4541C44.2053 52.8599 44.936 52.5633 45.8171 52.5633C46.6982 52.5633 47.4311 52.8855 47.9868 53.5287L47.4428 54.0568C47.0193 53.5447 46.4774 53.2898 45.8171 53.2898C45.1568 53.2898 44.6149 53.5095 44.1754 53.9501C43.7413 54.3842 43.5236 54.9517 43.5236 55.6494C43.5236 56.347 43.7413 56.9145 44.1754 57.3487C44.6149 57.7892 45.1632 58.009 45.8171 58.009C46.5052 58.009 47.1015 57.7199 47.6081 57.1428L48.1607 57.6794C47.8802 58.0154 47.5367 58.2746 47.1292 58.4591C46.7217 58.6437 46.2843 58.7354 45.8171 58.7354Z" fill="#999999"></path><path d="M49.5955 52.6952V58.6028H48.8359V52.6952H49.5955Z" fill="#999999"></path><path d="M50.2471 56.5814C50.2471 55.9595 50.4423 55.4453 50.8327 55.0389C51.2285 54.6314 51.7266 54.4287 52.3261 54.4287C52.9256 54.4287 53.4206 54.6325 53.811 55.0389C54.2068 55.4464 54.4052 55.9605 54.4052 56.5814C54.4052 57.2022 54.2068 57.7228 53.811 58.1239C53.4206 58.5313 52.9256 58.734 52.3261 58.734C51.7266 58.734 51.2285 58.5303 50.8327 58.1239C50.4423 57.7164 50.2471 57.2022 50.2471 56.5814ZM51.0066 56.5814C51.0066 57.0155 51.1335 57.3675 51.3863 57.6374C51.6391 57.9073 51.9528 58.0417 52.3272 58.0417C52.7016 58.0417 53.0152 57.9073 53.268 57.6374C53.5209 57.3675 53.6478 57.0155 53.6478 56.5814C53.6478 56.1472 53.5209 55.8027 53.268 55.5338C53.0099 55.2586 52.6963 55.121 52.3272 55.121C51.9581 55.121 51.6455 55.2586 51.3863 55.5338C51.1335 55.8037 51.0066 56.1525 51.0066 56.5814Z" fill="#999999"></path><path d="M58.6059 58.6029H57.8795V58.0418H57.8464C57.7312 58.2402 57.553 58.4045 57.3141 58.5368C57.0752 58.669 56.8255 58.7352 56.5674 58.7352C56.0724 58.7352 55.6916 58.5933 55.4249 58.3106C55.1582 58.0269 55.0249 57.6247 55.0249 57.102V54.5611H55.7844V57.0529C55.8004 57.7132 56.1332 58.0429 56.7829 58.0429C57.0858 58.0429 57.3386 57.9202 57.5424 57.6759C57.7461 57.4316 57.8475 57.1383 57.8475 56.7969V54.5611H58.607V58.604L58.6059 58.6029Z" fill="#999999"></path><path d="M61.1805 58.735C60.6525 58.735 60.1981 58.526 59.8194 58.1078C59.445 57.6843 59.2583 57.1755 59.2583 56.5813C59.2583 55.9872 59.445 55.4783 59.8194 55.0548C60.1992 54.6367 60.6525 54.4276 61.1805 54.4276C61.4771 54.4276 61.748 54.4905 61.9934 54.6175C62.2377 54.7444 62.4265 54.9119 62.5588 55.121H62.5918L62.5588 54.5599V52.6952H63.3183V58.6028H62.5918V58.0417H62.5588C62.4265 58.2508 62.2387 58.4182 61.9934 58.5452C61.748 58.6721 61.4782 58.735 61.1805 58.735ZM61.3043 58.0417C61.6787 58.0417 61.9838 57.9073 62.2206 57.6374C62.4681 57.3675 62.5918 57.0155 62.5918 56.5813C62.5918 56.1472 62.4681 55.809 62.2206 55.5338C61.9785 55.2586 61.6734 55.121 61.3043 55.121C60.9352 55.121 60.6365 55.2586 60.388 55.5338C60.1405 55.809 60.0167 56.1578 60.0167 56.5813C60.0167 57.0048 60.1405 57.36 60.388 57.6288C60.6354 57.9041 60.9405 58.0417 61.3043 58.0417Z" fill="#999999"></path></g><defs><clipPath id="clip0_61529_2098"><rect width="78" height="85" fill="white" transform="translate(0.0795898)"></rect></clipPath></defs></svg>