<svg width="140" height="96" viewBox="0 0 140 96" fill="none" xmlns="http://www.w3.org/2000/svg">
<path d="M0.236486 10.9363C0.236486 8.19357 2.45994 5.97013 5.2027 5.97013H134.324C137.328 5.97013 139.764 8.40534 139.764 11.4093V90.6323H10.4054C4.78927 90.6323 0.236486 86.0795 0.236486 80.4634V10.9363Z" stroke="#999999" stroke-width="0.472973"/>
<path d="M52.2782 24.9392V33.9434H50.6933V26.8841H50.6698L47.84 33.9434H46.7902L43.8897 26.8841H43.8695V33.9434H42.4058V24.9392H44.6771L47.2983 31.615H47.3353L50.1011 24.9392H52.2782Z" fill="#999999"/>
<path d="M55.2985 33.9439H53.7608V27.4902H55.2985V33.9439ZM53.5993 25.6228C53.5959 25.3805 53.6969 25.1517 53.8752 24.9902C54.0535 24.822 54.2891 24.7311 54.5347 24.7345C54.7837 24.7277 55.0259 24.822 55.2076 24.9936C55.3792 25.1551 55.4768 25.3805 55.4735 25.6194C55.4768 25.8583 55.3759 26.0838 55.2009 26.2419C55.0192 26.4101 54.7803 26.4976 54.5313 26.4943C54.2857 26.501 54.0468 26.4101 53.8651 26.2385C53.6901 26.0804 53.5925 25.8549 53.5959 25.6194" fill="#999999"/>
<path d="M59.9388 32.835C60.1979 32.8282 60.4536 32.7744 60.6959 32.6768C60.9684 32.5725 61.2242 32.4345 61.4597 32.2629V33.6762C61.1972 33.8209 60.9146 33.9252 60.6218 33.9892C60.2853 34.0632 59.9388 34.1002 59.5955 34.0968C58.724 34.1305 57.8727 33.8074 57.2502 33.195C56.6445 32.586 56.3181 31.7515 56.3484 30.8934C56.3147 29.9512 56.6445 29.0326 57.2703 28.3293C57.8861 27.6563 58.7577 27.3198 59.8849 27.3198C60.181 27.3198 60.4738 27.3568 60.7598 27.4309C61.0054 27.4847 61.241 27.5722 61.4631 27.6866V29.1436C61.2376 28.9787 60.9953 28.8441 60.7362 28.7466C60.494 28.6523 60.2349 28.6052 59.9758 28.6052C59.4239 28.5817 58.8923 28.7937 58.5053 29.1907C58.1183 29.6214 57.9164 30.1868 57.9467 30.7655C57.9131 31.3275 58.1082 31.876 58.4851 32.2899C58.8754 32.6667 59.4037 32.8653 59.9455 32.835" fill="#999999"/>
<path d="M65.8403 27.3814C65.9514 27.3814 66.0624 27.3881 66.1701 27.405C66.2542 27.4184 66.3384 27.4386 66.4191 27.4689V29.0067C66.3114 28.9327 66.1903 28.8788 66.0658 28.8418C65.8841 28.7846 65.6923 28.7577 65.5038 28.7644C65.1269 28.7644 64.7736 28.936 64.5482 29.2355C64.2554 29.6595 64.1174 30.171 64.1578 30.6859V33.9432H62.62V27.4891H64.1578V28.5053H64.1814C64.3059 28.1722 64.528 27.8862 64.8174 27.6809C65.1202 27.4756 65.4769 27.3713 65.8403 27.3814Z" fill="#999999"/>
<path d="M68.1122 30.7597C68.0752 31.3149 68.2401 31.8634 68.5766 32.3042C68.9164 32.6743 69.4043 32.8695 69.9057 32.8392C70.3936 32.8695 70.8647 32.6743 71.1844 32.3042C71.5074 31.8432 71.6622 31.2846 71.6218 30.7226C71.6622 30.1607 71.5007 29.6021 71.1676 29.1478C70.8445 28.7844 70.3768 28.5893 69.8923 28.6162C69.3909 28.5893 68.9097 28.7945 68.5799 29.1714C68.2401 29.629 68.0752 30.191 68.1122 30.7563M66.5105 30.8101C66.46 29.8747 66.7898 28.9594 67.4257 28.273C68.1055 27.6202 69.0275 27.2837 69.9696 27.3375C70.858 27.287 71.7295 27.6134 72.3655 28.2393C72.9645 28.9056 73.274 29.7805 73.2269 30.6722C73.274 31.5942 72.9409 32.496 72.3117 33.1723C71.6454 33.815 70.7436 34.1515 69.8182 34.1011C68.9265 34.1482 68.055 33.8285 67.4056 33.2194C66.7864 32.5734 66.4634 31.7018 66.5138 30.8101" fill="#999999"/>
<path d="M75.5167 29.181C75.5066 29.3728 75.584 29.5613 75.7253 29.6925C76.0114 29.891 76.3243 30.0492 76.6541 30.1602C77.1454 30.3218 77.5895 30.6044 77.9496 30.9779C78.2019 31.2909 78.3332 31.6812 78.3231 32.0783C78.3399 32.6537 78.0741 33.1988 77.6131 33.542C77.0545 33.9357 76.3781 34.1309 75.6951 34.0939C75.3922 34.0939 75.0927 34.0569 74.7966 33.9963C74.5106 33.9424 74.2279 33.8617 73.9587 33.7473V32.2532C74.238 32.445 74.5409 32.5998 74.8606 32.7109C75.1398 32.8152 75.4393 32.8724 75.7388 32.8791C76.0046 32.8959 76.2671 32.8455 76.5094 32.7344C76.6776 32.6335 76.7752 32.445 76.7584 32.2499C76.7584 32.0412 76.6642 31.8461 76.4993 31.7182C76.1998 31.5062 75.87 31.338 75.5234 31.2202C75.0624 31.0587 74.6486 30.7861 74.3154 30.4294C74.0698 30.1098 73.9419 29.7161 73.9587 29.3123C73.9487 28.7503 74.2111 28.2153 74.662 27.8788C75.187 27.4851 75.8297 27.2866 76.4825 27.3169C76.7416 27.3169 76.9973 27.3438 77.253 27.3909C77.4953 27.4313 77.7342 27.4952 77.9664 27.5861V29.033C77.7443 28.8883 77.5054 28.7739 77.253 28.6864C76.9939 28.5922 76.7214 28.5451 76.4454 28.5417C76.2065 28.5282 75.9676 28.5854 75.7624 28.7099C75.6042 28.8109 75.5134 28.9892 75.5167 29.1743" fill="#999999"/>
<mask id="mask0_60827_214254" style="mask-type:luminance" maskUnits="userSpaceOnUse" x="18" y="24" width="88" height="20">
<path d="M18.5101 24.2681V43.0853H105.328V24.2681" fill="white"/>
</mask>
<g mask="url(#mask0_60827_214254)">
<path d="M80.5985 30.7597C80.5614 31.3149 80.7263 31.8634 81.0628 32.3042C81.4027 32.6743 81.8906 32.8695 82.392 32.8392C82.8799 32.8695 83.351 32.6743 83.6707 32.3042C83.9937 31.8432 84.1485 31.2846 84.1081 30.7226C84.1485 30.1607 83.987 29.6021 83.6538 29.1478C83.3308 28.7844 82.8631 28.5893 82.3785 28.6162C81.8771 28.5893 81.396 28.7945 81.0662 29.1714C80.7263 29.629 80.5614 30.191 80.5985 30.7563M78.9967 30.8101C78.9463 29.8747 79.276 28.9594 79.912 28.273C80.5917 27.6202 81.5137 27.2837 82.4559 27.3375C83.3443 27.287 84.2158 27.6134 84.8518 28.2393C85.4507 28.9056 85.7603 29.7805 85.7132 30.6722C85.7603 31.5942 85.4305 32.496 84.7979 33.1723C84.1317 33.815 83.2299 34.1515 82.3045 34.1011C81.4128 34.1482 80.5413 33.8285 79.8918 33.2194C79.2727 32.5734 78.9496 31.7018 78.9967 30.8101Z" fill="#999999"/>
<path d="M89.3204 24.271C89.4853 24.271 89.6502 24.2777 89.8151 24.2979C89.9429 24.3147 90.0708 24.3416 90.1953 24.382V25.6943C90.1112 25.6506 90.0203 25.6135 89.9295 25.5866C89.7881 25.5429 89.6401 25.5227 89.492 25.5227C89.2128 25.5059 88.9402 25.6135 88.7484 25.8222C88.5566 26.0745 88.4658 26.3874 88.486 26.7037V27.4844H89.9429V28.726H88.486V33.938H86.9247V28.726H85.8311V27.4844H86.9247V26.586C86.9045 25.9601 87.1468 25.3545 87.5943 24.917C88.0553 24.4762 88.6778 24.2441 89.3137 24.2676" fill="#999999"/>
</g>
<path d="M93.2539 32.8352C93.3649 32.8318 93.4726 32.8116 93.5769 32.7712C93.6913 32.7342 93.8024 32.6837 93.9033 32.6198V33.8749C93.7485 33.9489 93.5836 33.9994 93.4154 34.0263C93.1933 34.0734 92.9712 34.0936 92.7458 34.0969C92.2108 34.1373 91.6792 33.9523 91.2855 33.5855C90.9288 33.1548 90.7539 32.5996 90.7976 32.0444V28.7301H89.7242V27.4851H90.7976V26.0349L92.342 25.5706V27.4851H93.8999V28.7301H92.342V31.7483C92.3118 32.0444 92.3925 32.3439 92.5607 32.5895C92.7458 32.7679 92.9948 32.8553 93.2505 32.8352" fill="#999999"/>
<mask id="mask1_60827_214254" style="mask-type:luminance" maskUnits="userSpaceOnUse" x="18" y="24" width="88" height="20">
<path d="M18.5101 24.2681V43.0853H105.328V24.2681" fill="white"/>
</mask>
<g mask="url(#mask1_60827_214254)">
<path d="M42.1619 42.7606V41.795C42.2561 41.8791 42.3637 41.9498 42.4748 42.007C42.5993 42.0709 42.7271 42.1248 42.8617 42.1651C42.9963 42.2089 43.1308 42.2425 43.2688 42.2661C43.3933 42.2896 43.5178 42.2997 43.6456 42.2997C43.9551 42.3199 44.2647 42.2526 44.5372 42.1012C44.729 41.9767 44.84 41.758 44.8299 41.5292C44.8299 41.4048 44.7996 41.2836 44.7323 41.1793C44.6583 41.0717 44.5675 40.9808 44.4598 40.9102C44.3286 40.8193 44.1907 40.7419 44.046 40.6747C43.8879 40.6006 43.7163 40.5199 43.538 40.4391C43.3428 40.3348 43.1611 40.2339 42.9929 40.1262C42.8348 40.0287 42.6867 39.9109 42.5555 39.7763C42.4344 39.6519 42.3335 39.5038 42.2628 39.3457C42.1888 39.1674 42.1518 38.9756 42.1585 38.7805C42.1518 38.5382 42.2157 38.296 42.3402 38.0874C42.4613 37.8922 42.6262 37.7274 42.8213 37.6029C43.0299 37.4717 43.2587 37.3741 43.4976 37.3203C43.7499 37.2597 44.0123 37.2261 44.2714 37.2261C44.7189 37.1991 45.163 37.2698 45.5802 37.4279V38.3565C45.2101 38.1109 44.7694 37.9898 44.3252 38.01C44.1839 38.01 44.0426 38.0234 43.9047 38.0504C43.7735 38.0739 43.6456 38.1176 43.5279 38.1816C43.4236 38.2388 43.3294 38.3162 43.2587 38.4137C43.188 38.5147 43.151 38.6358 43.1544 38.7569C43.1544 38.8713 43.1779 38.9857 43.2351 39.0833C43.2957 39.1808 43.3731 39.2683 43.4673 39.3356C43.5851 39.4197 43.7095 39.4971 43.8441 39.5576C43.9922 39.6283 44.1637 39.7091 44.3589 39.7932C44.5574 39.8975 44.7458 40.0051 44.9241 40.1162C45.0923 40.2238 45.2505 40.3483 45.3918 40.4896C45.523 40.6208 45.6307 40.7756 45.7114 40.9438C45.7922 41.1221 45.8325 41.3173 45.8292 41.5124C45.8527 42.0036 45.6037 42.4679 45.1798 42.7203C44.9679 42.8481 44.7357 42.939 44.4935 42.9894C44.2243 43.0466 43.9484 43.0735 43.6725 43.0735C43.5783 43.0735 43.4606 43.0668 43.3193 43.0534C43.1779 43.0399 43.0366 43.0163 42.8886 42.9894C42.7473 42.9625 42.6094 42.9289 42.4748 42.8885C42.3637 42.8582 42.2594 42.8111 42.1585 42.7539" fill="#999999"/>
<path d="M48.4763 39.5819C48.1466 39.5684 47.8304 39.7064 47.6184 39.9553C47.393 40.2513 47.282 40.618 47.3022 40.9881C47.282 41.348 47.3964 41.7046 47.6218 41.9872C47.8371 42.2328 48.15 42.364 48.4763 42.3505C48.7959 42.3707 49.1087 42.2361 49.3173 41.9906C49.5292 41.6945 49.6335 41.3346 49.61 40.9679C49.6335 40.6012 49.5292 40.2379 49.3173 39.9385C49.1087 39.6895 48.7992 39.555 48.4763 39.5752M48.4325 43.0805C47.3594 43.1545 46.4309 42.3471 46.3569 41.274C46.3502 41.1865 46.3502 41.0991 46.3569 41.015C46.3233 40.4263 46.5352 39.851 46.9456 39.4238C47.3762 39.0268 47.9481 38.8216 48.5335 38.8519C49.0885 38.8182 49.6301 39.0201 50.0271 39.407C50.4039 39.8308 50.5956 40.3859 50.562 40.9511C50.6394 42.0511 49.8118 43.0031 48.7117 43.0805C48.6176 43.0872 48.5267 43.0872 48.4325 43.0805Z" fill="#999999"/>
<path d="M51.5018 37.0044H52.4338V42.9831H51.5018V37.0044Z" fill="#999999"/>
<path d="M57.2084 42.9824H56.2799V42.3432H56.2631C56.0242 42.8142 55.5331 43.1001 55.0083 43.0766C54.0428 43.0766 53.5584 42.5047 53.5584 41.3575V38.9421H54.4869V41.2633C54.4869 41.99 54.7695 42.3533 55.338 42.3533C55.597 42.36 55.846 42.249 56.0142 42.0539C56.1992 41.8352 56.2934 41.556 56.2799 41.2701V38.9455H57.2084V42.9857" fill="#999999"/>
<path d="M60.5758 42.94C60.3504 43.0376 60.1048 43.0847 59.8592 43.0746C59.0651 43.0746 58.6681 42.6977 58.6681 41.9474V39.6629H57.9851V38.9463H58.6681V38.0109L59.5934 37.7518V38.9463H60.5724V39.6629H59.5934V41.6816C59.5765 41.8633 59.6236 42.045 59.7246 42.1931C59.8423 42.3075 60.0005 42.3613 60.1653 42.3478C60.3134 42.3478 60.458 42.3041 60.5724 42.2132V42.94" fill="#999999"/>
<path d="M62.3006 42.983H61.372V38.9422H62.3006V42.983ZM61.8397 38.0978C61.695 38.0978 61.557 38.0473 61.4494 37.9531C61.3417 37.8589 61.2845 37.7243 61.2879 37.583C61.2845 37.4417 61.3451 37.3037 61.4494 37.2095C61.5537 37.112 61.695 37.0581 61.8397 37.0581C61.9877 37.0548 62.129 37.1086 62.24 37.2095C62.3477 37.3037 62.4082 37.4417 62.4049 37.583C62.4049 37.7243 62.3477 37.8555 62.24 37.9464C62.1324 38.0473 61.9877 38.1011 61.8397 38.0978Z" fill="#999999"/>
<path d="M65.3707 39.5819C65.041 39.5684 64.7248 39.7064 64.5129 39.9553C64.2875 40.2513 64.1765 40.618 64.1966 40.9881C64.1765 41.348 64.2908 41.7046 64.5162 41.9872C64.7315 42.2328 65.0477 42.364 65.3707 42.3505C65.6936 42.3707 66.0031 42.2361 66.2117 41.9906C66.4236 41.6945 66.5279 41.3346 66.5044 40.9679C66.5279 40.6012 66.4236 40.2379 66.2117 39.9385C66.0031 39.6895 65.6936 39.555 65.3707 39.5752M65.327 43.0805C64.2538 43.1545 63.3253 42.3471 63.2513 41.274C63.2446 41.1865 63.2446 41.0991 63.2513 41.015C63.2177 40.4263 63.4296 39.851 63.84 39.4238C64.2706 39.0268 64.8425 38.8216 65.4279 38.8519C65.9829 38.8182 66.5246 39.0201 66.9215 39.407C67.2983 39.8308 67.49 40.3859 67.4564 40.9511C67.5338 42.0511 66.7062 43.0031 65.6062 43.0805C65.512 43.0872 65.4212 43.0872 65.327 43.0805Z" fill="#999999"/>
<path d="M72.0428 42.9832H71.1144V40.7057C71.1144 39.9522 70.8452 39.572 70.3036 39.572C70.0345 39.5653 69.7788 39.6797 69.6039 39.8849C69.4155 40.1035 69.318 40.3861 69.3281 40.6754V42.9798H68.3962V38.9396H69.3247V39.609H69.3415C69.6039 39.1246 70.1186 38.8286 70.6669 38.842C71.0538 38.8185 71.4306 38.9766 71.6863 39.2693C71.9419 39.6292 72.0664 40.0665 72.0361 40.5072V42.9764" fill="#999999"/>
<path d="M72.9163 42.8575V42.0098C73.246 42.2654 73.6463 42.4 74.0635 42.4C74.6219 42.4 74.9011 42.2385 74.9011 41.9122C74.9011 41.8281 74.8776 41.744 74.8305 41.6767C74.7767 41.6061 74.7128 41.5489 74.6354 41.5052C74.5445 41.4513 74.447 41.4042 74.3494 41.3706C74.2384 41.3302 74.114 41.2865 73.9794 41.236C73.8246 41.1755 73.6733 41.1048 73.5252 41.0275C73.4008 40.9636 73.2864 40.8761 73.1888 40.7785C73.1014 40.6877 73.0307 40.58 72.987 40.4623C72.9399 40.3311 72.9163 40.1898 72.9197 40.0485C72.9163 39.8669 72.9634 39.6886 73.0576 39.5338C73.1518 39.3824 73.283 39.2546 73.4344 39.1604C73.5992 39.0561 73.7809 38.9788 73.9693 38.9317C74.1711 38.8812 74.3797 38.8543 74.5883 38.8543C74.9348 38.8476 75.2779 38.9048 75.6042 39.0225V39.8231C75.3115 39.628 74.9651 39.5237 74.6118 39.5305C74.5042 39.5305 74.3999 39.5406 74.2956 39.5675C74.2115 39.5877 74.1274 39.6213 74.0534 39.665C73.9895 39.702 73.9357 39.7559 73.8986 39.8164C73.8616 39.8736 73.8415 39.9409 73.8415 40.0115C73.8415 40.0889 73.8583 40.1663 73.8986 40.2336C73.939 40.2975 73.9962 40.3547 74.0635 40.395C74.1476 40.4455 74.2351 40.4892 74.3259 40.5229C74.4302 40.5599 74.5445 40.6036 74.6791 40.6473C74.8406 40.7112 74.9987 40.7853 75.1534 40.866C75.2846 40.9333 75.4024 41.0174 75.51 41.1149C75.6076 41.2058 75.685 41.3168 75.7388 41.4379C75.796 41.5758 75.8229 41.7238 75.8195 41.8752C75.8229 42.0636 75.7724 42.252 75.6749 42.4135C75.5773 42.5682 75.4461 42.696 75.2914 42.7936C75.1198 42.8979 74.9348 42.9719 74.7363 43.0156C74.521 43.0661 74.299 43.0896 74.0769 43.0896C73.6766 43.0997 73.283 43.0224 72.913 42.8676" fill="#999999"/>
<path d="M80.0031 38.1012V40.1671H80.6188C80.9519 40.1906 81.285 40.0897 81.5508 39.8878C81.7695 39.6859 81.8872 39.3966 81.8704 39.0971C81.8704 38.4309 81.4801 38.0979 80.6962 38.0979H80.0031M80.0031 40.9342V42.9866H79.0543V37.3274H80.7938C81.3422 37.2937 81.8839 37.4552 82.3246 37.7816C82.6947 38.1012 82.8932 38.5723 82.8697 39.0601C82.8865 39.5715 82.6779 40.0628 82.3011 40.4093C81.8772 40.7761 81.3254 40.9645 80.7668 40.9342H80.0031Z" fill="#999999"/>
<path d="M85.7453 40.9984L84.8875 41.1162C84.6755 41.133 84.4703 41.1969 84.2853 41.3079C84.1407 41.4257 84.0633 41.6107 84.0835 41.7991C84.0801 41.9606 84.1474 42.1153 84.2685 42.2196C84.4098 42.334 84.5847 42.3912 84.7664 42.3844C85.0321 42.3912 85.2878 42.2835 85.4661 42.0918C85.6511 41.8899 85.752 41.6241 85.7453 41.3517V41.0018M86.6401 42.9832H85.7419V42.3508H85.7251C85.4829 42.8117 85.0019 43.0942 84.4838 43.0774C84.1373 43.0976 83.8009 42.9799 83.5385 42.7545C83.3064 42.5324 83.1819 42.2196 83.1954 41.9C83.1954 41.1364 83.6394 40.6923 84.5309 40.5678L85.7453 40.3996C85.7453 39.8244 85.4695 39.5351 84.9144 39.5351C84.43 39.5351 83.959 39.71 83.5957 40.033V39.2289C84.0498 38.9699 84.5679 38.8387 85.0893 38.8488C86.1221 38.8488 86.6401 39.3501 86.6401 40.3559V42.9832Z" fill="#999999"/>
<path d="M90.1445 39.8167C90.0032 39.7225 89.8317 39.6754 89.6601 39.6855C89.3842 39.6855 89.1252 39.8234 88.9738 40.0521C88.7753 40.3448 88.6778 40.6947 88.698 41.0513V42.9856H87.7695V38.9454H88.698V39.7763H88.7148C88.7888 39.5206 88.9335 39.2885 89.1319 39.1102C89.3069 38.9555 89.5289 38.8714 89.761 38.8714C89.8922 38.8646 90.0234 38.8882 90.1445 38.9454V39.8133" fill="#999999"/>
<path d="M93.1914 42.94C92.9659 43.0376 92.7203 43.0847 92.4747 43.0746C91.6807 43.0746 91.2837 42.6977 91.2837 41.9474V39.6629H90.6006V38.9463H91.2837V38.0109L92.2089 37.7518V38.9463H93.188V39.6629H92.2089V41.6816C92.1921 41.8633 92.2392 42.045 92.3401 42.1931C92.4579 42.3075 92.616 42.3613 92.7809 42.3478C92.9289 42.3478 93.0702 42.3041 93.188 42.2132V42.94" fill="#999999"/>
<path d="M97.6368 42.9832H96.7083V40.7057C96.7083 39.9522 96.4392 39.572 95.8976 39.572C95.6284 39.5653 95.3728 39.6797 95.1978 39.8849C95.0094 40.1035 94.9119 40.3861 94.922 40.6754V42.9798H93.9901V38.9396H94.9186V39.609H94.9354C95.1978 39.1246 95.7092 38.8286 96.2609 38.842C96.6477 38.8185 97.0245 38.9766 97.2802 39.2693C97.5359 39.6292 97.6603 40.0665 97.6334 40.5072V42.9764" fill="#999999"/>
<path d="M101.175 40.5672C101.189 40.2913 101.104 40.0188 100.94 39.8002C100.782 39.6152 100.546 39.5142 100.3 39.5243C100.045 39.521 99.7992 39.6253 99.6243 39.8136C99.4325 40.0222 99.3114 40.2846 99.2812 40.5672H101.175ZM102.07 41.2131H99.2812C99.2711 41.536 99.3989 41.8523 99.631 42.0777C99.8867 42.2929 100.216 42.4006 100.549 42.3804C100.98 42.3804 101.404 42.2459 101.754 41.9935V42.7303C101.303 42.9826 100.792 43.1003 100.277 43.0768C99.7488 43.1071 99.2307 42.9052 98.8607 42.5284C98.4973 42.0978 98.3123 41.5428 98.346 40.981C98.3224 40.4124 98.5276 39.8607 98.9111 39.4436C99.2711 39.0534 99.7824 38.8381 100.314 38.8482C100.805 38.8212 101.283 39.0164 101.612 39.3797C101.942 39.8002 102.104 40.3283 102.073 40.8599V41.2097" fill="#999999"/>
</g>
<path d="M105.326 39.8181C105.184 39.7239 105.013 39.6768 104.841 39.6869C104.565 39.6869 104.31 39.8248 104.155 40.0536C103.956 40.3463 103.859 40.6961 103.879 41.0527V42.9871H102.951V38.9468H103.879V39.7777H103.896C103.97 39.5221 104.114 39.29 104.313 39.1117C104.488 38.9569 104.71 38.8728 104.942 38.8728C105.073 38.8661 105.208 38.8896 105.326 38.9468V39.8148" fill="#999999"/>
<path d="M18.5089 24.8812H27.2473V33.5086H18.5089V24.8812Z" fill="#999999"/>
<path d="M28.1572 24.8812H36.8955V33.5086H28.1572V24.8812Z" fill="#999999"/>
<path d="M18.5089 34.4078H27.2473V43.0352H18.5089V34.4078Z" fill="#999999"/>
<path d="M28.1572 34.4078H36.8955V43.0352H28.1572V34.4078Z" fill="#999999"/>
<path d="M19.3163 58.4976V52.3699H21.0089C23.1693 52.3699 24.2461 53.3659 24.2461 55.3547C24.2461 56.3002 23.9466 57.0607 23.3476 57.6328C22.7486 58.2082 21.9444 58.4942 20.9416 58.4942H19.3197M20.0331 53.0193V57.8481H20.9483C21.7526 57.8481 22.3751 57.6328 22.8227 57.2021C23.2702 56.7713 23.4923 56.1623 23.4923 55.3748C23.4923 53.8067 22.6578 53.0193 20.9887 53.0193H20.0331Z" fill="#999999"/>
<path d="M25.7106 53.0126C25.5861 53.0126 25.4784 52.9688 25.3909 52.8847C25.3034 52.8006 25.2597 52.6895 25.2597 52.5616C25.2597 52.4338 25.3034 52.3227 25.3909 52.2352C25.4784 52.1477 25.5861 52.104 25.7106 52.104C25.8351 52.104 25.9462 52.1477 26.037 52.2352C26.1279 52.3227 26.1716 52.4304 26.1716 52.5616C26.1716 52.6929 26.1279 52.7938 26.037 52.8813C25.9462 52.9688 25.8385 53.0126 25.7106 53.0126ZM26.0538 58.4976H25.3539V54.123H26.0538V58.4976Z" fill="#999999"/>
<path d="M31.2007 58.1475C31.2007 59.7527 30.4302 60.5569 28.8923 60.5569C28.3506 60.5569 27.8795 60.456 27.4757 60.2507V59.5508C27.967 59.8233 28.4381 59.9613 28.8856 59.9613C29.9624 59.9613 30.5008 59.3892 30.5008 58.2451V57.7673H30.484C30.1509 58.3259 29.6495 58.6052 28.9798 58.6052C28.4347 58.6052 27.9972 58.41 27.6675 58.023C27.3343 57.6327 27.1694 57.1111 27.1694 56.4583C27.1694 55.7146 27.3478 55.1224 27.7045 54.6849C28.0612 54.2475 28.5525 54.0254 29.1716 54.0254C29.7908 54.0254 30.198 54.2609 30.484 54.7354H30.5008V54.1297H31.2007V58.1543M30.5008 56.5189V55.8728C30.5008 55.5262 30.383 55.2267 30.1475 54.9811C29.9119 54.732 29.6192 54.6109 29.2692 54.6109C28.8351 54.6109 28.4986 54.7691 28.253 55.082C28.0073 55.3983 27.8862 55.8358 27.8862 56.4045C27.8862 56.8924 28.004 57.2794 28.2395 57.5721C28.4751 57.8649 28.7847 58.0096 29.1716 58.0096C29.5586 58.0096 29.885 57.8716 30.1307 57.5923C30.3763 57.313 30.5008 56.9563 30.5008 56.5189Z" fill="#999999"/>
<path d="M32.9714 53.0126C32.8469 53.0126 32.7392 52.9688 32.6517 52.8847C32.5642 52.8006 32.5205 52.6895 32.5205 52.5616C32.5205 52.4338 32.5642 52.3227 32.6517 52.2352C32.7392 52.1477 32.8469 52.104 32.9714 52.104C33.0959 52.104 33.207 52.1477 33.2978 52.2352C33.3887 52.3227 33.4324 52.4304 33.4324 52.5616C33.4324 52.6929 33.3887 52.7938 33.2978 52.8813C33.207 52.9688 33.0993 53.0126 32.9714 53.0126ZM33.3146 58.4976H32.6147V54.123H33.3146V58.4976Z" fill="#999999"/>
<path d="M36.7603 58.4532C36.5954 58.5441 36.3767 58.5912 36.1076 58.5912C35.3404 58.5912 34.9569 58.1639 34.9569 57.3093V54.7219H34.2066V54.123H34.9569V53.0565L35.6567 52.8311V54.1264H36.7603V54.7253H35.6567V57.1915C35.6567 57.4842 35.7072 57.6928 35.8047 57.8207C35.9057 57.9452 36.0705 58.0091 36.2993 58.0091C36.4743 58.0091 36.6291 57.962 36.7569 57.8644V58.4633" fill="#999999"/>
<path d="M40.8167 58.4963H40.117V57.8134H40.1002C39.7941 58.3382 39.3467 58.6006 38.7546 58.6006C38.3207 58.6006 37.9775 58.4862 37.732 58.2541C37.4864 58.022 37.3619 57.7159 37.3619 57.3357C37.3619 56.5183 37.843 56.044 38.8051 55.9094L40.117 55.7244C40.117 54.9809 39.8176 54.6109 39.2155 54.6109C38.6873 54.6109 38.213 54.7892 37.7891 55.1492V54.4326C38.2197 54.1601 38.7142 54.0222 39.276 54.0222C40.3054 54.0222 40.8167 54.5672 40.8167 55.6537V58.4997M40.117 56.2828L39.0607 56.4275C38.7378 56.4746 38.4922 56.5519 38.3274 56.6697C38.1626 56.784 38.0785 56.9892 38.0785 57.2819C38.0785 57.4938 38.1558 57.6688 38.3072 57.8067C38.4586 57.9412 38.6638 58.0085 38.9161 58.0085C39.2626 58.0085 39.5519 57.8874 39.7773 57.6419C40.0026 57.3996 40.117 57.0902 40.117 56.7168V56.2828Z" fill="#999999"/>
<path d="M42.8319 58.4977H42.132V52.02H42.8319V58.4977Z" fill="#999999"/>
<path d="M52.0998 58.5955C51.9383 58.5955 51.7936 58.572 51.6691 58.5282C51.5446 58.4845 51.4302 58.4206 51.3259 58.3398C51.2216 58.259 51.1172 58.1581 51.0197 58.0437C50.9221 57.9259 50.8178 57.7947 50.7101 57.6466C50.5957 57.7677 50.4644 57.8889 50.3164 57.9999C50.1683 58.1143 50.0001 58.2153 49.8183 58.3028C49.6366 58.3903 49.4381 58.4609 49.2194 58.5148C49.0006 58.5686 48.7685 58.5922 48.5161 58.5922C48.2099 58.5922 47.9272 58.5552 47.6715 58.4778C47.4157 58.4004 47.197 58.2893 47.0119 58.1379C46.8302 57.9898 46.6889 57.8048 46.5879 57.586C46.487 57.3673 46.4365 57.1149 46.4365 56.8289C46.4365 56.3948 46.561 56.0213 46.8066 55.7117C47.0557 55.4021 47.4056 55.1498 47.8565 54.9546C47.7724 54.8906 47.6849 54.82 47.6008 54.7359C47.5167 54.6517 47.4393 54.5575 47.372 54.4498C47.3047 54.3421 47.2508 54.2244 47.2104 54.0965C47.1701 53.9653 47.1499 53.8239 47.1499 53.6725C47.1499 53.4471 47.1903 53.2485 47.271 53.0735C47.3518 52.8985 47.4628 52.7539 47.6075 52.6327C47.7489 52.5116 47.9171 52.4241 48.1123 52.3601C48.3074 52.2996 48.5161 52.2693 48.7415 52.2693C48.967 52.2693 49.1655 52.2996 49.3506 52.3601C49.5357 52.4207 49.6938 52.5082 49.8251 52.6226C49.9563 52.737 50.0606 52.8716 50.1347 53.0331C50.2087 53.1913 50.2457 53.3697 50.2457 53.5682C50.2457 53.9114 50.1481 54.1941 49.9529 54.4195C49.7578 54.645 49.465 54.8402 49.0747 54.9983C49.2698 55.0757 49.4482 55.1699 49.6097 55.281C49.7679 55.392 49.9159 55.5165 50.0505 55.6511C50.1851 55.7857 50.313 55.9338 50.4274 56.092C50.5452 56.2501 50.6596 56.4116 50.774 56.5799C51.0062 56.2568 51.1778 55.9035 51.2956 55.5165C51.4134 55.1296 51.4706 54.7224 51.4706 54.2984C51.4706 54.1907 51.4638 54.0898 51.4504 53.9922C51.4369 53.898 51.4201 53.8037 51.3965 53.7095H52.0763C52.0998 53.8037 52.1133 53.8912 52.1167 53.9754C52.12 54.0595 52.1267 54.1604 52.1301 54.2782C52.1301 54.5373 52.1032 54.7964 52.0494 55.0589C51.9955 55.3214 51.9215 55.5737 51.8306 55.8228C51.7398 56.0684 51.6321 56.304 51.511 56.526C51.3898 56.7481 51.2619 56.9534 51.1273 57.1385C51.2283 57.2764 51.3191 57.3942 51.3999 57.4952C51.484 57.5961 51.5648 57.6803 51.6489 57.7509C51.733 57.8182 51.8205 57.8687 51.908 57.9023C51.9989 57.936 52.0998 57.9528 52.2142 57.9528C52.2984 57.9528 52.3859 57.9427 52.4733 57.9192C52.5608 57.8956 52.6517 57.8687 52.7459 57.835V58.4845C52.645 58.5249 52.5373 58.5552 52.4229 58.5753C52.3085 58.5955 52.2008 58.6056 52.0931 58.6056M48.5161 57.9898C48.7314 57.9898 48.9333 57.9663 49.1151 57.9192C49.2968 57.8721 49.465 57.8081 49.6198 57.7307C49.7746 57.6533 49.9126 57.5625 50.0371 57.4582C50.1616 57.3538 50.276 57.2462 50.3803 57.1318C50.2053 56.8626 50.0472 56.6304 49.8991 56.4386C49.751 56.2467 49.603 56.0819 49.4549 55.9405C49.3069 55.8026 49.1453 55.6814 48.9771 55.5805C48.8088 55.4795 48.6103 55.3887 48.3882 55.3012C48.2099 55.3718 48.045 55.4526 47.8935 55.5367C47.7421 55.6242 47.6109 55.7252 47.5032 55.8429C47.3922 55.9607 47.308 56.0987 47.2441 56.2568C47.1802 56.415 47.1499 56.5967 47.1499 56.8087C47.1499 57.0039 47.1869 57.1721 47.2576 57.3202C47.3282 57.4683 47.4258 57.5928 47.5503 57.6903C47.6748 57.7879 47.8195 57.862 47.9844 57.9124C48.1493 57.9629 48.3276 57.9865 48.5194 57.9865M49.5828 53.6288C49.5828 53.4874 49.5559 53.3663 49.5054 53.2653C49.4516 53.1644 49.3843 53.0836 49.3035 53.0163C49.2227 52.9524 49.1319 52.9019 49.0309 52.8716C48.93 52.8413 48.8324 52.8279 48.7348 52.8279C48.4555 52.8279 48.2334 52.9019 48.0652 53.0533C47.8969 53.2048 47.8128 53.41 47.8094 53.6691C47.8094 53.7869 47.8263 53.8946 47.8633 53.9989C47.9003 54.1032 47.9474 54.1974 48.0113 54.2849C48.0753 54.3724 48.1493 54.4532 48.2368 54.5205C48.3209 54.5878 48.4118 54.6484 48.5093 54.6955C48.8694 54.571 49.1352 54.4229 49.3136 54.258C49.4886 54.0898 49.5794 53.8811 49.5794 53.6288" fill="#999999"/>
<path d="M60.8614 58.4971H60.0672L59.4178 56.7809H56.82L56.2076 58.4971H55.41L57.7588 52.3694H58.5025L60.8614 58.4971ZM59.1822 56.1348L58.2198 53.5236C58.1896 53.4395 58.1559 53.3015 58.1256 53.1131H58.1088C58.0819 53.288 58.0482 53.4226 58.0112 53.5236L57.0589 56.1348H59.1822Z" fill="#999999"/>
<path d="M62.3853 57.8651H62.3685V60.51H61.6685V54.1232H62.3685V54.8938H62.3853C62.7285 54.3116 63.2333 54.0222 63.8962 54.0222C64.4615 54.0222 64.899 54.2174 65.2153 54.6111C65.5316 55.0048 65.6898 55.5264 65.6898 56.1859C65.6898 56.9195 65.5114 57.505 65.1547 57.9425C64.798 58.3833 64.3101 58.602 63.6943 58.602C63.129 58.602 62.6915 58.3564 62.3819 57.8684M62.3685 56.1018V56.7142C62.3685 57.0743 62.4863 57.3839 62.7218 57.6363C62.9574 57.8886 63.2535 58.0131 63.6169 58.0131C64.0409 58.0131 64.374 57.8516 64.6129 57.5252C64.8552 57.2022 64.973 56.7479 64.973 56.1725C64.973 55.6845 64.862 55.3043 64.6365 55.0284C64.411 54.7524 64.1082 54.6145 63.7212 54.6145C63.314 54.6145 62.9876 54.7558 62.7386 55.0385C62.4896 55.3211 62.3685 55.6778 62.3685 56.1052" fill="#999999"/>
<path d="M67.5213 57.8651H67.5045V60.51H66.8046V54.1232H67.5045V54.8938H67.5213C67.8645 54.3116 68.3693 54.0222 69.0322 54.0222C69.5975 54.0222 70.035 54.2174 70.3513 54.6111C70.6676 55.0014 70.8258 55.5264 70.8258 56.1859C70.8258 56.9195 70.6474 57.505 70.2907 57.9425C69.934 58.3833 69.4461 58.602 68.8303 58.602C68.265 58.602 67.8275 58.3564 67.5179 57.8684M67.5045 56.1018V56.7142C67.5045 57.0743 67.6223 57.3839 67.8578 57.6363C68.0934 57.8886 68.3895 58.0131 68.7529 58.0131C69.1769 58.0131 69.51 57.8516 69.749 57.5252C69.9879 57.1988 70.109 56.7479 70.109 56.1725C70.109 55.6845 69.998 55.3043 69.7725 55.0284C69.5471 54.7524 69.2442 54.6145 68.8572 54.6145C68.4501 54.6145 68.1237 54.7558 67.8746 55.0385C67.6256 55.3211 67.5045 55.6778 67.5045 56.1052" fill="#999999"/>
<path d="M75.1396 58.4986H74.4229V52.3708H75.1396V58.4986Z" fill="#999999"/>
<path d="M80.2862 58.4964H79.5865V56.0036C79.5865 55.0751 79.2467 54.6109 78.5706 54.6109C78.2207 54.6109 77.9314 54.7421 77.7026 55.0045C77.4739 55.2669 77.3595 55.5999 77.3595 56.0002V58.493H76.6598V54.1197H77.3595V54.8464H77.3763C77.706 54.2946 78.1837 54.0188 78.8128 54.0188C79.2905 54.0188 79.6572 54.1735 79.9095 54.483C80.1618 54.7925 80.2896 55.2366 80.2896 55.8219V58.4964" fill="#999999"/>
<path d="M85.2308 58.4964H84.531V56.0036C84.531 55.0751 84.1913 54.6109 83.5151 54.6109C83.1652 54.6109 82.8759 54.7421 82.6472 55.0045C82.4184 55.2669 82.304 55.5999 82.304 56.0002V58.493H81.6043V54.1197H82.304V54.8464H82.3209C82.6505 54.2946 83.1282 54.0188 83.7573 54.0188C84.235 54.0188 84.6017 54.1735 84.854 54.483C85.1063 54.7925 85.2341 55.2366 85.2341 55.8219V58.4964" fill="#999999"/>
<path d="M88.3707 58.5972C87.7248 58.5972 87.2067 58.392 86.8232 57.9849C86.4364 57.5779 86.2446 57.0363 86.2446 56.3601C86.2446 55.6268 86.4465 55.0515 86.8468 54.6378C87.2471 54.224 87.7921 54.0188 88.475 54.0188C89.1578 54.0188 89.6355 54.2206 90.0022 54.6209C90.3689 55.0213 90.5505 55.5797 90.5505 56.2895C90.5505 56.9993 90.3521 57.5442 89.9585 57.9647C89.5649 58.3852 89.0367 58.5938 88.3707 58.5938M88.4211 54.6109C87.9704 54.6109 87.6138 54.7622 87.3548 55.0684C87.0924 55.3745 86.9612 55.795 86.9612 56.3332C86.9612 56.8714 87.0924 57.2583 87.3581 57.5577C87.6239 57.8571 87.9771 58.0051 88.4211 58.0051C88.8652 58.0051 89.2218 57.8571 89.464 57.5644C89.7062 57.2718 89.8306 56.8546 89.8306 56.313C89.8306 55.7714 89.7095 55.3442 89.464 55.0482C89.2218 54.7521 88.8719 54.6041 88.4211 54.6041" fill="#999999"/>
<path d="M95.0975 54.1235L93.3549 58.4968H92.6686L91.0102 54.1235H91.7805L92.8907 57.3026C92.9748 57.5347 93.0252 57.7399 93.0454 57.9148H93.0622C93.0891 57.6962 93.1362 57.4977 93.2002 57.3227L94.3608 54.1269H95.1008" fill="#999999"/>
<path d="M98.9831 58.4963H98.2834V57.8134H98.2666C97.9604 58.3382 97.513 58.6006 96.921 58.6006C96.487 58.6006 96.1439 58.4862 95.8983 58.2541C95.6528 58.022 95.5283 57.7159 95.5283 57.3357C95.5283 56.5183 96.0093 56.044 96.9714 55.9094L98.2834 55.7244C98.2834 54.9809 97.984 54.6109 97.3818 54.6109C96.8537 54.6109 96.3794 54.7892 95.9555 55.1492V54.4326C96.3861 54.1601 96.8806 54.0222 97.4424 54.0222C98.4718 54.0222 98.9831 54.5672 98.9831 55.6537V58.4997M98.2834 56.2828L97.2271 56.4275C96.9042 56.4746 96.6586 56.5519 96.4937 56.6697C96.3289 56.7874 96.2448 56.9892 96.2448 57.2819C96.2448 57.4938 96.3222 57.6688 96.4736 57.8067C96.6249 57.9412 96.8301 58.0085 97.0824 58.0085C97.4289 58.0085 97.7182 57.8874 97.9436 57.6419C98.169 57.3963 98.2834 57.0902 98.2834 56.7168V56.2828Z" fill="#999999"/>
<path d="M102.325 58.4532C102.16 58.5441 101.942 58.5912 101.672 58.5912C100.905 58.5912 100.522 58.1639 100.522 57.3093V54.7219H99.7714V54.123H100.522V53.0565L101.222 52.8311V54.1264H102.325V54.7253H101.222V57.1915C101.222 57.4842 101.272 57.6928 101.37 57.8207C101.471 57.9452 101.635 58.0091 101.864 58.0091C102.039 58.0091 102.194 57.962 102.322 57.8644V58.4633" fill="#999999"/>
<path d="M103.61 53.0126C103.486 53.0126 103.378 52.9688 103.29 52.8847C103.203 52.8006 103.159 52.6895 103.159 52.5616C103.159 52.4338 103.203 52.3227 103.29 52.2352C103.378 52.1477 103.486 52.104 103.61 52.104C103.735 52.104 103.846 52.1477 103.936 52.2352C104.027 52.3227 104.071 52.4304 104.071 52.5616C104.071 52.6929 104.027 52.7938 103.936 52.8813C103.846 52.9688 103.738 53.0126 103.61 53.0126ZM103.953 58.4976H103.253V54.123H103.953V58.4976Z" fill="#999999"/>
<path d="M107.198 58.5967C106.552 58.5967 106.034 58.3915 105.65 57.9844C105.264 57.5774 105.072 57.0358 105.072 56.3596C105.072 55.6263 105.274 55.051 105.674 54.6373C106.074 54.2235 106.619 54.0183 107.302 54.0183C107.985 54.0183 108.463 54.2201 108.829 54.6205C109.196 55.0208 109.378 55.5792 109.378 56.289C109.378 56.9988 109.179 57.5438 108.786 57.9643C108.392 58.3847 107.864 58.5933 107.198 58.5933M107.252 54.6104C106.801 54.6104 106.444 54.7617 106.185 55.0679C105.923 55.374 105.792 55.7945 105.792 56.3327C105.792 56.871 105.923 57.2578 106.189 57.5572C106.454 57.8566 106.808 58.0046 107.252 58.0046C107.696 58.0046 108.052 57.8566 108.295 57.5639C108.537 57.2713 108.661 56.8541 108.661 56.3125C108.661 55.7709 108.54 55.3437 108.295 55.0477C108.052 54.7517 107.703 54.6036 107.252 54.6036" fill="#999999"/>
<path d="M114.118 58.4959H113.418V56.0031C113.418 55.0746 113.078 54.6104 112.402 54.6104C112.052 54.6104 111.763 54.7416 111.534 55.004C111.305 55.2664 111.191 55.5994 111.191 55.9997V58.4925H110.491V54.1192H111.191V54.8459H111.208C111.538 54.2942 112.015 54.0183 112.644 54.0183C113.122 54.0183 113.489 54.1731 113.741 54.4825C113.993 54.792 114.121 55.2361 114.121 55.8214V58.4959" fill="#999999"/>
<path d="M19.4002 58.4986V52.3708H21.0928C23.2532 52.3708 24.33 53.3669 24.33 55.3556C24.33 56.3012 24.0305 57.0617 23.4315 57.6337C22.8325 58.2092 22.0283 58.4952 21.0255 58.4952H19.4036M20.117 53.0203V57.8491H21.0322C21.8365 57.8491 22.459 57.6337 22.9066 57.203C23.3541 56.7723 23.5762 56.1632 23.5762 55.3758C23.5762 53.8077 22.7417 53.0203 21.0726 53.0203H20.117Z" fill="#999999"/>
<path d="M25.7979 53.0126C25.6734 53.0126 25.5657 52.9688 25.4783 52.8847C25.3908 52.8006 25.347 52.6895 25.347 52.5616C25.347 52.4338 25.3908 52.3227 25.4783 52.2352C25.5657 52.1477 25.6734 52.104 25.7979 52.104C25.9224 52.104 26.0335 52.1477 26.1243 52.2352C26.2152 52.3227 26.2589 52.4304 26.2589 52.5616C26.2589 52.6929 26.2152 52.7938 26.1243 52.8813C26.0335 52.9688 25.9258 53.0126 25.7979 53.0126ZM26.1412 58.4976H25.4412V54.123H26.1412V58.4976Z" fill="#999999"/>
<path d="M31.2892 58.1466C31.2892 59.7517 30.5186 60.5559 28.9808 60.5559C28.439 60.5559 27.9679 60.455 27.5641 60.2497V59.5498C28.0554 59.8224 28.5265 59.9603 28.9741 59.9603C30.0509 59.9603 30.5893 59.3883 30.5893 58.2442V57.7663H30.5725C30.2393 58.3249 29.7379 58.6042 29.0683 58.6042C28.5232 58.6042 28.0857 58.409 27.7559 58.0221C27.4228 57.6317 27.2579 57.1101 27.2579 56.4573C27.2579 55.7137 27.4363 55.1214 27.793 54.684C28.1496 54.2465 28.6409 54.0244 29.2601 54.0244C29.8793 54.0244 30.2864 54.26 30.5725 54.7344H30.5893V54.1287H31.2892V58.1533M30.5893 56.5179V55.8718C30.5893 55.5252 30.4715 55.2257 30.236 54.9801C30.0004 54.7311 29.7077 54.6099 29.3577 54.6099C28.9236 54.6099 28.5871 54.7681 28.3415 55.081C28.0958 55.3973 27.9747 55.8348 27.9747 56.4035C27.9747 56.8914 28.0924 57.2784 28.328 57.5712C28.5635 57.8639 28.8731 58.0086 29.2601 58.0086C29.6471 58.0086 29.9735 57.8706 30.2191 57.5913C30.4648 57.312 30.5893 56.9554 30.5893 56.5179Z" fill="#999999"/>
<path d="M33.0585 53.0126C32.934 53.0126 32.8263 52.9688 32.7388 52.8847C32.6513 52.8006 32.6076 52.6895 32.6076 52.5616C32.6076 52.4338 32.6513 52.3227 32.7388 52.2352C32.8263 52.1477 32.934 52.104 33.0585 52.104C33.183 52.104 33.294 52.1477 33.3849 52.2352C33.4758 52.3227 33.5195 52.4304 33.5195 52.5616C33.5195 52.6929 33.4758 52.7938 33.3849 52.8813C33.294 52.9688 33.1864 53.0126 33.0585 53.0126ZM33.4017 58.4976H32.7018V54.123H33.4017V58.4976Z" fill="#999999"/>
<path d="M36.8487 58.4532C36.6839 58.5441 36.4652 58.5912 36.196 58.5912C35.4289 58.5912 35.0453 58.1639 35.0453 57.3093V54.7219H34.295V54.123H35.0453V53.0565L35.7452 52.8311V54.1264H36.8487V54.7253H35.7452V57.1915C35.7452 57.4842 35.7956 57.6928 35.8932 57.8207C35.9942 57.9452 36.159 58.0091 36.3878 58.0091C36.5628 58.0091 36.7175 57.962 36.8454 57.8644V58.4633" fill="#999999"/>
<path d="M40.9052 58.4963H40.2055V57.8134H40.1887C39.8825 58.3382 39.4351 58.6006 38.8431 58.6006C38.4091 58.6006 38.066 58.4862 37.8204 58.2541C37.5749 58.022 37.4504 57.7159 37.4504 57.3357C37.4504 56.5183 37.9314 56.044 38.8935 55.9094L40.2055 55.7244C40.2055 54.9809 39.9061 54.6109 39.3039 54.6109C38.7758 54.6109 38.3015 54.7892 37.8776 55.1492V54.4326C38.3082 54.1601 38.8027 54.0222 39.3645 54.0222C40.3939 54.0222 40.9052 54.5672 40.9052 55.6537V58.4997M40.2055 56.2828L39.1492 56.4275C38.8263 56.4746 38.5807 56.5519 38.4159 56.6697C38.251 56.784 38.1669 56.9892 38.1669 57.2819C38.1669 57.4938 38.2443 57.6688 38.3957 57.8067C38.547 57.9412 38.7523 58.0085 39.0046 58.0085C39.351 58.0085 39.6403 57.8874 39.8657 57.6419C40.0911 57.3996 40.2055 57.0902 40.2055 56.7168V56.2828Z" fill="#999999"/>
<path d="M42.9174 58.4977H42.2175V52.02H42.9174V58.4977Z" fill="#999999"/>
<path d="M52.1903 58.5955C52.0288 58.5955 51.8841 58.572 51.7596 58.5282C51.6351 58.4845 51.5207 58.4206 51.4164 58.3398C51.3121 58.259 51.2078 58.1581 51.1102 58.0437C51.0126 57.9259 50.9083 57.7947 50.8006 57.6466C50.6862 57.7677 50.5549 57.8889 50.4069 57.9999C50.2588 58.1143 50.0906 58.2153 49.9089 58.3028C49.7271 58.3903 49.5286 58.4609 49.3099 58.5148C49.0912 58.5686 48.859 58.5922 48.6066 58.5922C48.3004 58.5922 48.0177 58.5552 47.762 58.4778C47.5062 58.4004 47.2875 58.2893 47.1024 58.1379C46.9207 57.9898 46.7794 57.8048 46.6784 57.586C46.5775 57.3673 46.527 57.1149 46.527 56.8289C46.527 56.3948 46.6515 56.0213 46.8972 55.7117C47.1462 55.4021 47.4961 55.1498 47.947 54.9546C47.8629 54.8906 47.7754 54.82 47.6913 54.7359C47.6072 54.6517 47.5298 54.5575 47.4625 54.4498C47.3952 54.3421 47.3413 54.2244 47.301 54.0965C47.2606 53.9653 47.2404 53.8239 47.2404 53.6725C47.2404 53.4471 47.2808 53.2485 47.3615 53.0735C47.4423 52.8985 47.5533 52.7539 47.698 52.6327C47.8394 52.5116 48.0076 52.4241 48.2028 52.3601C48.398 52.2996 48.6066 52.2693 48.8321 52.2693C49.0575 52.2693 49.256 52.2996 49.4411 52.3601C49.6262 52.4207 49.7844 52.5082 49.9156 52.6226C50.0468 52.737 50.1511 52.8716 50.2252 53.0331C50.2992 53.1913 50.3362 53.3697 50.3362 53.5682C50.3362 53.9114 50.2386 54.1941 50.0435 54.4195C49.8483 54.645 49.5555 54.8402 49.1652 54.9983C49.3604 55.0757 49.5387 55.1699 49.7002 55.281C49.8584 55.392 50.0064 55.5165 50.141 55.6511C50.2756 55.7857 50.4035 55.9338 50.5179 56.092C50.6357 56.2501 50.7501 56.4116 50.8645 56.5799C51.0967 56.2568 51.2683 55.9035 51.3861 55.5165C51.5039 55.1296 51.5611 54.7224 51.5611 54.2984C51.5611 54.1907 51.5544 54.0898 51.5409 53.9922C51.5274 53.898 51.5106 53.8037 51.4871 53.7095H52.1668C52.1903 53.8037 52.2038 53.8912 52.2072 53.9754C52.2105 54.0595 52.2173 54.1604 52.2206 54.2782C52.2206 54.5373 52.1937 54.7964 52.1399 55.0589C52.086 55.3214 52.012 55.5737 51.9211 55.8228C51.8303 56.0684 51.7226 56.304 51.6015 56.526C51.4803 56.7481 51.3525 56.9534 51.2179 57.1385C51.3188 57.2764 51.4097 57.3942 51.4904 57.4952C51.5745 57.5961 51.6553 57.6803 51.7394 57.7509C51.8236 57.8182 51.9111 57.8687 51.9985 57.9023C52.0894 57.936 52.1903 57.9528 52.3048 57.9528C52.3889 57.9528 52.4764 57.9427 52.5639 57.9192C52.6514 57.8956 52.7422 57.8687 52.8364 57.835V58.4845C52.7355 58.5249 52.6278 58.5552 52.5134 58.5753C52.399 58.5955 52.2913 58.6056 52.1836 58.6056M48.6066 57.9898C48.822 57.9898 49.0239 57.9663 49.2056 57.9192C49.3873 57.8721 49.5555 57.8081 49.7103 57.7307C49.8651 57.6533 50.0031 57.5625 50.1276 57.4582C50.2521 57.3538 50.3665 57.2462 50.4708 57.1318C50.2958 56.8626 50.1377 56.6304 49.9896 56.4386C49.8416 56.2467 49.6935 56.0819 49.5454 55.9405C49.3974 55.8026 49.2359 55.6814 49.0676 55.5805C48.8994 55.4795 48.7008 55.3887 48.4787 55.3012C48.3004 55.3718 48.1355 55.4526 47.9841 55.5367C47.8326 55.6242 47.7014 55.7252 47.5937 55.8429C47.4827 55.9607 47.3986 56.0987 47.3346 56.2568C47.2707 56.415 47.2404 56.5967 47.2404 56.8087C47.2404 57.0039 47.2774 57.1721 47.3481 57.3202C47.4187 57.4683 47.5163 57.5928 47.6408 57.6903C47.7653 57.7879 47.91 57.862 48.0749 57.9124C48.2398 57.9629 48.4182 57.9865 48.61 57.9865M49.6733 53.6288C49.6733 53.4874 49.6464 53.3663 49.5959 53.2653C49.5421 53.1644 49.4748 53.0836 49.394 53.0163C49.3133 52.9524 49.2224 52.9019 49.1214 52.8716C49.0205 52.8413 48.9229 52.8279 48.8253 52.8279C48.546 52.8279 48.3239 52.9019 48.1557 53.0533C47.9874 53.2048 47.9033 53.41 47.8999 53.6691C47.8999 53.7869 47.9168 53.8946 47.9538 53.9989C47.9908 54.1032 48.0379 54.1974 48.1018 54.2849C48.1658 54.3724 48.2398 54.4532 48.3273 54.5205C48.4114 54.5878 48.5023 54.6484 48.5999 54.6955C48.9599 54.571 49.2258 54.4229 49.4041 54.258C49.5825 54.0931 49.6699 53.8811 49.6699 53.6288" fill="#999999"/>
<path d="M60.9503 58.4976H60.1562L59.5067 56.7814H56.9089L56.2965 58.4976H55.499L57.8478 52.3699H58.5914L60.9503 58.4976ZM59.2712 56.1353L58.3088 53.5241C58.2785 53.44 58.2448 53.302 58.2146 53.1135H58.1977C58.1708 53.2885 58.1372 53.4231 58.1001 53.5241L57.1478 56.1353H59.2712Z" fill="#999999"/>
<path d="M62.4721 57.8651H62.4553V60.51H61.7554V54.1232H62.4553V54.8938H62.4721C62.8154 54.3116 63.3201 54.0222 63.983 54.0222C64.5484 54.0222 64.9858 54.2174 65.3021 54.6111C65.6184 55.0014 65.7766 55.5264 65.7766 56.1859C65.7766 56.9195 65.5983 57.505 65.2416 57.9425C64.8849 58.3833 64.3969 58.602 63.7811 58.602C63.2158 58.602 62.7784 58.3564 62.4688 57.8684M62.4553 56.1018V56.7142C62.4553 57.0743 62.5731 57.3839 62.8087 57.6363C63.0442 57.8886 63.3403 58.0131 63.7037 58.0131C64.1277 58.0131 64.4609 57.8516 64.6998 57.5252C64.9421 57.2022 65.0599 56.7479 65.0599 56.1725C65.0599 55.6845 64.9488 55.3043 64.7234 55.0284C64.4979 54.7524 64.195 54.6145 63.8081 54.6145C63.4009 54.6145 63.0745 54.7558 62.8255 55.0385C62.5765 55.3211 62.4553 55.6778 62.4553 56.1052" fill="#999999"/>
<path d="M67.6082 57.8651H67.5913V60.51H66.8914V54.1232H67.5913V54.8938H67.6082C67.9514 54.3116 68.4562 54.0222 69.1191 54.0222C69.6844 54.0222 70.1218 54.2174 70.4382 54.6111C70.7545 55.0048 70.9126 55.5264 70.9126 56.1859C70.9126 56.9195 70.7343 57.505 70.3776 57.9425C70.0209 58.3833 69.533 58.602 68.9172 58.602C68.3518 58.602 67.9144 58.3564 67.6048 57.8684M67.5913 56.1018V56.7142C67.5913 57.0743 67.7091 57.3839 67.9447 57.6363C68.1802 57.8886 68.4763 58.0131 68.8398 58.0131C69.2638 58.0131 69.5969 57.8516 69.8358 57.5252C70.0747 57.1988 70.1959 56.7479 70.1959 56.1725C70.1959 55.6845 70.0848 55.3043 69.8594 55.0284C69.6339 54.7524 69.3311 54.6145 68.9441 54.6145C68.5369 54.6145 68.2105 54.7558 67.9615 55.0385C67.7125 55.3211 67.5913 55.6778 67.5913 56.1052" fill="#999999"/>
<path d="M75.2265 58.4986H74.5097V52.3708H75.2265V58.4986Z" fill="#999999"/>
<path d="M80.3747 58.4964H79.675V56.0036C79.675 55.0751 79.3352 54.6109 78.6591 54.6109C78.3092 54.6109 78.0199 54.7421 77.7911 55.0045C77.5624 55.2669 77.448 55.5999 77.448 56.0002V58.493H76.7483V54.1197H77.448V54.8464H77.4648C77.7945 54.2946 78.2722 54.0188 78.9013 54.0188C79.379 54.0188 79.7456 54.1735 79.9979 54.483C80.2502 54.7925 80.3781 55.2366 80.3781 55.8219V58.4964" fill="#999999"/>
<path d="M85.3176 58.4959H84.6179V56.0031C84.6179 55.0746 84.2781 54.6104 83.602 54.6104C83.2521 54.6104 82.9628 54.7416 82.734 55.004C82.5053 55.2664 82.3909 55.5994 82.3909 55.9997V58.4925H81.6912V54.1192H82.3909V54.8459H82.4077C82.7374 54.2942 83.2151 54.0183 83.8442 54.0183C84.3219 54.0183 84.6885 54.1731 84.9409 54.4825C85.1932 54.792 85.321 55.2361 85.321 55.8214V58.4959" fill="#999999"/>
<path d="M88.4576 58.5967C87.8117 58.5967 87.2936 58.3915 86.9101 57.9844C86.5233 57.5774 86.3315 57.0358 86.3315 56.3596C86.3315 55.6263 86.5334 55.051 86.9337 54.6373C87.334 54.2235 87.879 54.0183 88.5618 54.0183C89.2447 54.0183 89.7224 54.2201 90.0891 54.6205C90.4558 55.0208 90.6374 55.5792 90.6374 56.289C90.6374 56.9988 90.4389 57.5438 90.0454 57.9643C89.6518 58.3847 89.1236 58.5933 88.4576 58.5933M88.508 54.6104C88.0572 54.6104 87.7007 54.7617 87.4416 55.0679C87.1793 55.374 87.0481 55.7945 87.0481 56.3327C87.0481 56.871 87.1792 57.2578 87.445 57.5572C87.7108 57.8566 88.064 58.0046 88.508 58.0046C88.9521 58.0046 89.3086 57.8566 89.5509 57.5639C89.7931 57.2713 89.9175 56.8541 89.9175 56.3125C89.9175 55.7709 89.7964 55.3437 89.5509 55.0477C89.3086 54.7517 88.9588 54.6036 88.508 54.6036" fill="#999999"/>
<path d="M95.1873 54.1235L93.4447 58.4968H92.7585L91.1 54.1235H91.8704L92.9805 57.3026C93.0646 57.5347 93.1151 57.7399 93.1352 57.9148H93.1521C93.179 57.6962 93.2261 57.4977 93.29 57.3227L94.4506 54.1269H95.1907" fill="#999999"/>
<path d="M99.07 58.4963H98.3703V57.8134H98.3534C98.0473 58.3382 97.5999 58.6006 97.0079 58.6006C96.5739 58.6006 96.2308 58.4862 95.9852 58.2541C95.7396 58.022 95.6152 57.7159 95.6152 57.3357C95.6152 56.5183 96.0962 56.044 97.0583 55.9094L98.3703 55.7244C98.3703 54.9809 98.0709 54.6109 97.4687 54.6109C96.9406 54.6109 96.4663 54.7892 96.0424 55.1492V54.4326C96.473 54.1601 96.9675 54.0222 97.5293 54.0222C98.5586 54.0222 99.07 54.5672 99.07 55.6537V58.4997M98.3703 56.2828L97.314 56.4275C96.991 56.4746 96.7455 56.5519 96.5806 56.6697C96.4158 56.7874 96.3317 56.9892 96.3317 57.2819C96.3317 57.4938 96.4091 57.6688 96.5604 57.8067C96.7118 57.9412 96.917 58.0085 97.1693 58.0085C97.5158 58.0085 97.8051 57.8874 98.0305 57.6419C98.2559 57.3963 98.3703 57.0902 98.3703 56.7168V56.2828Z" fill="#999999"/>
<path d="M102.412 58.4532C102.247 58.5441 102.028 58.5912 101.759 58.5912C100.992 58.5912 100.609 58.1639 100.609 57.3093V54.7219H99.8583V54.123H100.609V53.0565L101.308 52.8311V54.1264H102.412V54.7253H101.308V57.1915C101.308 57.4842 101.359 57.6928 101.456 57.8207C101.557 57.9452 101.722 58.0091 101.951 58.0091C102.126 58.0091 102.281 57.962 102.409 57.8644V58.4633" fill="#999999"/>
<path d="M103.699 53.0126C103.574 53.0126 103.467 52.9688 103.379 52.8847C103.292 52.8006 103.248 52.6895 103.248 52.5616C103.248 52.4338 103.292 52.3227 103.379 52.2352C103.467 52.1477 103.574 52.104 103.699 52.104C103.823 52.104 103.935 52.1477 104.025 52.2352C104.116 52.3227 104.16 52.4304 104.16 52.5616C104.16 52.6929 104.116 52.7938 104.025 52.8813C103.935 52.9688 103.827 53.0126 103.699 53.0126ZM104.042 58.4976H103.342V54.123H104.042V58.4976Z" fill="#999999"/>
<path d="M107.285 58.5967C106.639 58.5967 106.121 58.3915 105.737 57.9844C105.35 57.5774 105.159 57.0358 105.159 56.3596C105.159 55.6263 105.361 55.051 105.761 54.6373C106.161 54.2235 106.706 54.0183 107.389 54.0183C108.072 54.0183 108.55 54.2201 108.916 54.6205C109.283 55.0208 109.465 55.5792 109.465 56.289C109.465 56.9988 109.266 57.5438 108.873 57.9643C108.479 58.3847 107.951 58.5933 107.285 58.5933M107.339 54.6104C106.888 54.6104 106.531 54.7617 106.272 55.0679C106.01 55.374 105.879 55.7945 105.879 56.3327C105.879 56.871 106.01 57.2578 106.276 57.5572C106.541 57.8566 106.895 58.0046 107.339 58.0046C107.783 58.0046 108.139 57.8566 108.381 57.5639C108.624 57.2713 108.748 56.8541 108.748 56.3125C108.748 55.7709 108.627 55.3437 108.381 55.0477C108.139 54.7517 107.789 54.6036 107.339 54.6036" fill="#999999"/>
<path d="M114.206 58.4959H113.507V56.0031C113.507 55.0746 113.167 54.6104 112.491 54.6104C112.141 54.6104 111.851 54.7416 111.623 55.004C111.394 55.2664 111.28 55.5994 111.28 55.9997V58.4925H110.58V54.1192H111.28V54.8459H111.296C111.626 54.2942 112.104 54.0183 112.733 54.0183C113.21 54.0183 113.577 54.1731 113.829 54.4825C114.082 54.792 114.21 55.2361 114.21 55.8214V58.4959" fill="#999999"/>
<path d="M19.4873 58.4986V52.3708H21.1799C23.3403 52.3708 24.4171 53.3669 24.4171 55.3556C24.4171 56.3012 24.1176 57.0617 23.5186 57.6337C22.9196 58.2092 22.1154 58.4952 21.1126 58.4952H19.4907M20.2041 53.0203V57.8491H21.1193C21.9236 57.8491 22.5461 57.6337 22.9937 57.203C23.4412 56.7723 23.6633 56.1632 23.6633 55.3758C23.6633 53.8077 22.8288 53.0203 21.1597 53.0203H20.2041Z" fill="#999999"/>
<path d="M25.885 53.0126C25.7605 53.0126 25.6528 52.9688 25.5653 52.8847C25.4779 52.8006 25.4341 52.6895 25.4341 52.5616C25.4341 52.4338 25.4779 52.3227 25.5653 52.2352C25.6528 52.1477 25.7605 52.104 25.885 52.104C26.0095 52.104 26.1206 52.1477 26.2114 52.2352C26.3023 52.3227 26.346 52.4304 26.346 52.5616C26.346 52.6929 26.3023 52.7938 26.2114 52.8813C26.1206 52.9688 26.0129 53.0126 25.885 53.0126ZM26.2283 58.4976H25.5283V54.123H26.2283V58.4976Z" fill="#999999"/>
<path d="M31.3777 58.1466C31.3777 59.7517 30.6071 60.5559 29.0693 60.5559C28.5275 60.5559 28.0564 60.455 27.6526 60.2497V59.5498C28.1439 59.8224 28.615 59.9603 29.0626 59.9603C30.1394 59.9603 30.6778 59.3883 30.6778 58.2442V57.7663H30.6609C30.3278 58.3249 29.8264 58.6042 29.1568 58.6042C28.6116 58.6042 28.1742 58.409 27.8444 58.0221C27.5113 57.6317 27.3464 57.1101 27.3464 56.4573C27.3464 55.7137 27.5247 55.1214 27.8814 54.684C28.2381 54.2465 28.7294 54.0244 29.3486 54.0244C29.9677 54.0244 30.3749 54.26 30.6609 54.7344H30.6778V54.1287H31.3777V58.1533M30.6778 56.5179V55.8718C30.6778 55.5252 30.56 55.2257 30.3244 54.9801C30.0889 54.7311 29.7961 54.6099 29.4462 54.6099C29.0121 54.6099 28.6756 54.7681 28.4299 55.081C28.1843 55.3973 28.0631 55.8348 28.0631 56.4035C28.0631 56.8914 28.1809 57.2784 28.4165 57.5712C28.652 57.8639 28.9616 58.0086 29.3486 58.0086C29.7356 58.0086 30.062 57.8706 30.3076 57.5913C30.5533 57.312 30.6778 56.9554 30.6778 56.5179Z" fill="#999999"/>
<path d="M33.147 53.0126C33.0225 53.0126 32.9148 52.9688 32.8273 52.8847C32.7398 52.8006 32.696 52.6895 32.696 52.5616C32.696 52.4338 32.7398 52.3227 32.8273 52.2352C32.9148 52.1477 33.0225 52.104 33.147 52.104C33.2715 52.104 33.3825 52.1477 33.4734 52.2352C33.5642 52.3227 33.608 52.4304 33.608 52.5616C33.608 52.6929 33.5642 52.7938 33.4734 52.8813C33.3825 52.9688 33.2748 53.0126 33.147 53.0126ZM33.4902 58.4976H32.7903V54.123H33.4902V58.4976Z" fill="#999999"/>
<path d="M36.9356 58.4532C36.7708 58.5441 36.5521 58.5912 36.2829 58.5912C35.5158 58.5912 35.1322 58.1639 35.1322 57.3093V54.7219H34.3819V54.123H35.1322V53.0565L35.832 52.8311V54.1264H36.9356V54.7253H35.832V57.1915C35.832 57.4842 35.8825 57.6928 35.9801 57.8207C36.081 57.9452 36.2459 58.0091 36.4747 58.0091C36.6496 58.0091 36.8044 57.962 36.9323 57.8644V58.4633" fill="#999999"/>
<path d="M40.9937 58.4963H40.294V57.8134H40.2771C39.971 58.3382 39.5236 58.6006 38.9315 58.6006C38.4976 58.6006 38.1545 58.4862 37.9089 58.2541C37.6633 58.022 37.5389 57.7159 37.5389 57.3357C37.5389 56.5183 38.0199 56.044 38.982 55.9094L40.294 55.7244C40.294 54.9809 39.9946 54.6109 39.3924 54.6109C38.8643 54.6109 38.3899 54.7892 37.9661 55.1492V54.4326C38.3967 54.1601 38.8912 54.0222 39.453 54.0222C40.4823 54.0222 40.9937 54.5672 40.9937 55.6537V58.4997M40.294 56.2828L39.2377 56.4275C38.9147 56.4746 38.6692 56.5519 38.5043 56.6697C38.3395 56.784 38.2554 56.9892 38.2554 57.2819C38.2554 57.4938 38.3328 57.6688 38.4841 57.8067C38.6355 57.9412 38.8407 58.0085 39.093 58.0085C39.4395 58.0085 39.7288 57.8874 39.9542 57.6419C40.1796 57.3996 40.294 57.0902 40.294 56.7168V56.2828Z" fill="#999999"/>
<path d="M43.0043 58.4982H42.3044V52.0205H43.0043V58.4982Z" fill="#999999"/>
<path d="M52.2772 58.5955C52.1157 58.5955 51.971 58.572 51.8465 58.5282C51.722 58.4845 51.6076 58.4206 51.5033 58.3398C51.3989 58.259 51.2946 58.1581 51.197 58.0437C51.0995 57.9259 50.9951 57.7947 50.8875 57.6466C50.773 57.7677 50.6418 57.8889 50.4938 57.9999C50.3457 58.1143 50.1774 58.2153 49.9957 58.3028C49.814 58.3903 49.6155 58.4609 49.3967 58.5148C49.178 58.5686 48.9458 58.5922 48.6935 58.5922C48.3872 58.5922 48.1046 58.5552 47.8488 58.4778C47.5931 58.4004 47.3744 58.2893 47.1893 58.1379C47.0076 57.9898 46.8663 57.8048 46.7653 57.586C46.6644 57.3673 46.6139 57.1149 46.6139 56.8289C46.6139 56.3948 46.7384 56.0213 46.984 55.7117C47.233 55.4021 47.583 55.1498 48.0339 54.9546C47.9498 54.8906 47.8623 54.82 47.7782 54.7359C47.694 54.6517 47.6167 54.5575 47.5494 54.4498C47.4821 54.3421 47.4282 54.2244 47.3878 54.0965C47.3475 53.9653 47.3273 53.8239 47.3273 53.6725C47.3273 53.4471 47.3676 53.2485 47.4484 53.0735C47.5292 52.8985 47.6402 52.7539 47.7849 52.6327C47.9262 52.5116 48.0945 52.4241 48.2897 52.3601C48.4848 52.2996 48.6935 52.2693 48.9189 52.2693C49.1444 52.2693 49.3429 52.2996 49.528 52.3601C49.7131 52.4207 49.8712 52.5082 50.0025 52.6226C50.1337 52.737 50.238 52.8716 50.312 53.0331C50.3861 53.1913 50.4231 53.3697 50.4231 53.5682C50.4231 53.9114 50.3255 54.1941 50.1303 54.4195C49.9352 54.645 49.6424 54.8402 49.2521 54.9983C49.4472 55.0757 49.6256 55.1699 49.7871 55.281C49.9452 55.392 50.0933 55.5165 50.2279 55.6511C50.3625 55.7857 50.4904 55.9338 50.6048 56.092C50.7226 56.2501 50.837 56.4116 50.9514 56.5799C51.1836 56.2568 51.3552 55.9035 51.473 55.5165C51.5907 55.1296 51.648 54.7224 51.648 54.2984C51.648 54.1907 51.6412 54.0898 51.6278 53.9922C51.6143 53.898 51.5975 53.8037 51.5739 53.7095H52.2537C52.2772 53.8037 52.2907 53.8912 52.294 53.9754C52.2974 54.0595 52.3041 54.1604 52.3075 54.2782C52.3075 54.5373 52.2806 54.7964 52.2267 55.0589C52.1729 55.3214 52.0989 55.5737 52.008 55.8228C51.9172 56.0684 51.8095 56.304 51.6883 56.526C51.5672 56.7481 51.4393 56.9534 51.3047 57.1385C51.4057 57.2764 51.4965 57.3942 51.5773 57.4952C51.6614 57.5961 51.7422 57.6803 51.8263 57.7509C51.9104 57.8182 51.9979 57.8687 52.0854 57.9023C52.1763 57.936 52.2772 57.9528 52.3916 57.9528C52.4757 57.9528 52.5632 57.9427 52.6507 57.9192C52.7382 57.8956 52.8291 57.8687 52.9233 57.835V58.4845C52.8223 58.5249 52.7147 58.5552 52.6003 58.5753C52.4858 58.5955 52.3782 58.6056 52.2705 58.6056M48.6935 57.9898C48.9088 57.9898 49.1107 57.9663 49.2924 57.9192C49.4741 57.8721 49.6424 57.8081 49.7972 57.7307C49.952 57.6533 50.0899 57.5625 50.2145 57.4582C50.339 57.3538 50.4534 57.2462 50.5577 57.1318C50.3827 56.8626 50.2245 56.6304 50.0765 56.4386C49.9284 56.2467 49.7804 56.0819 49.6323 55.9405C49.4842 55.8026 49.3227 55.6814 49.1545 55.5805C48.9862 55.4795 48.7877 55.3887 48.5656 55.3012C48.3872 55.3718 48.2224 55.4526 48.0709 55.5367C47.9195 55.6242 47.7883 55.7252 47.6806 55.8429C47.5695 55.9607 47.4854 56.0987 47.4215 56.2568C47.3575 56.415 47.3273 56.5967 47.3273 56.8087C47.3273 57.0039 47.3643 57.1721 47.4349 57.3202C47.5056 57.4683 47.6032 57.5928 47.7277 57.6903C47.8522 57.7879 47.9969 57.862 48.1618 57.9124C48.3267 57.9629 48.505 57.9865 48.6968 57.9865M49.7602 53.6288C49.7602 53.4874 49.7333 53.3663 49.6828 53.2653C49.6289 53.1644 49.5616 53.0836 49.4809 53.0163C49.4001 52.9524 49.3093 52.9019 49.2083 52.8716C49.1074 52.8413 49.0098 52.8279 48.9122 52.8279C48.6329 52.8279 48.4108 52.9019 48.2425 53.0533C48.0743 53.2048 47.9902 53.41 47.9868 53.6691C47.9868 53.7869 48.0036 53.8946 48.0406 53.9989C48.0777 54.1032 48.1248 54.1974 48.1887 54.2849C48.2526 54.3724 48.3267 54.4532 48.4142 54.5205C48.4983 54.5878 48.5891 54.6484 48.6867 54.6955C49.0468 54.571 49.3126 54.4229 49.491 54.258C49.6693 54.0931 49.7568 53.8811 49.7568 53.6288" fill="#999999"/>
<path d="M61.0358 58.4986H60.2417L59.5922 56.7824H56.9944L56.382 58.4986H55.5845L57.9333 52.3708H58.6769L61.0358 58.4986ZM59.3567 56.1363L58.3943 53.5251C58.364 53.4409 58.3303 53.303 58.3001 53.1145H58.2832C58.2563 53.2895 58.2227 53.4241 58.1856 53.5251L57.2333 56.1363H59.3567Z" fill="#999999"/>
<path d="M62.5593 57.8651H62.5424V60.51H61.8425V54.1232H62.5424V54.8938H62.5593C62.9025 54.3116 63.4072 54.0222 64.0701 54.0222C64.6355 54.0222 65.0729 54.2174 65.3892 54.6111C65.7056 55.0014 65.8637 55.5264 65.8637 56.1859C65.8637 56.9195 65.6854 57.505 65.3287 57.9425C64.972 58.3833 64.484 58.602 63.8682 58.602C63.3029 58.602 62.8655 58.3564 62.5559 57.8684M62.5424 56.1018V56.7142C62.5424 57.0743 62.6602 57.3839 62.8958 57.6363C63.1313 57.8886 63.4274 58.0131 63.7909 58.0131C64.2148 58.0131 64.548 57.8516 64.7869 57.5252C65.0292 57.2022 65.147 56.7479 65.147 56.1725C65.147 55.6845 65.0359 55.3043 64.8105 55.0284C64.585 54.7524 64.2821 54.6145 63.8952 54.6145C63.488 54.6145 63.1616 54.7558 62.9126 55.0385C62.6636 55.3211 62.5424 55.6778 62.5424 56.1052" fill="#999999"/>
<path d="M67.6953 57.8651H67.6785V60.51H66.9785V54.1232H67.6785V54.8938H67.6953C68.0385 54.3116 68.5433 54.0222 69.2062 54.0222C69.7715 54.0222 70.209 54.2174 70.5253 54.6111C70.8416 55.0048 70.9997 55.5264 70.9997 56.1859C70.9997 56.9195 70.8214 57.505 70.4647 57.9425C70.108 58.3833 69.6201 58.602 69.0043 58.602C68.439 58.602 68.0015 58.3564 67.6919 57.8684M67.6785 56.1018V56.7142C67.6785 57.0743 67.7962 57.3839 68.0318 57.6363C68.2673 57.8886 68.5635 58.0131 68.9269 58.0131C69.3509 58.0131 69.684 57.8516 69.9229 57.5252C70.1618 57.1988 70.283 56.7479 70.283 56.1725C70.283 55.6845 70.1719 55.3043 69.9465 55.0284C69.721 54.7524 69.4182 54.6145 69.0312 54.6145C68.624 54.6145 68.2976 54.7558 68.0486 55.0385C67.7996 55.3211 67.6785 55.6778 67.6785 56.1052" fill="#999999"/>
<path d="M75.312 58.4976H74.5952V52.3699H75.312V58.4976Z" fill="#999999"/>
<path d="M80.4607 58.4959H79.761V56.0031C79.761 55.0746 79.4212 54.6104 78.745 54.6104C78.3951 54.6104 78.1058 54.7416 77.8771 55.004C77.6483 55.2664 77.534 55.5994 77.534 55.9997V58.4925H76.8342V54.1192H77.534V54.8459H77.5508C77.8805 54.2942 78.3581 54.0183 78.9872 54.0183C79.4649 54.0183 79.8316 54.1731 80.0839 54.4825C80.3362 54.792 80.464 55.2361 80.464 55.8214V58.4959" fill="#999999"/>
<path d="M85.4045 58.4959H84.7048V56.0031C84.7048 55.0746 84.365 54.6104 83.6888 54.6104C83.339 54.6104 83.0497 54.7416 82.8209 55.004C82.5921 55.2664 82.4778 55.5994 82.4778 55.9997V58.4925H81.778V54.1192H82.4778V54.8459H82.4946C82.8243 54.2942 83.302 54.0183 83.931 54.0183C84.4087 54.0183 84.7754 54.1731 85.0277 54.4825C85.28 54.792 85.4079 55.2361 85.4079 55.8214V58.4959" fill="#999999"/>
<path d="M88.546 58.5967C87.9001 58.5967 87.3821 58.3915 86.9986 57.9844C86.6117 57.5774 86.42 57.0358 86.42 56.3596C86.42 55.6263 86.6218 55.051 87.0221 54.6373C87.4225 54.2235 87.9674 54.0183 88.6503 54.0183C89.3332 54.0183 89.8109 54.2201 90.1775 54.6205C90.5442 55.0208 90.7259 55.5792 90.7259 56.289C90.7259 56.9988 90.5274 57.5438 90.1338 57.9643C89.7402 58.3847 89.2121 58.5933 88.546 58.5933M88.5965 54.6104C88.1457 54.6104 87.7891 54.7617 87.5301 55.0679C87.2677 55.374 87.1365 55.7945 87.1365 56.3327C87.1365 56.871 87.2677 57.2578 87.5335 57.5572C87.7992 57.8566 88.1524 58.0046 88.5965 58.0046C89.0405 58.0046 89.3971 57.8566 89.6393 57.5639C89.8815 57.2713 90.006 56.8541 90.006 56.3125C90.006 55.7709 89.8849 55.3437 89.6393 55.0477C89.3971 54.7517 89.0472 54.6036 88.5965 54.6036" fill="#999999"/>
<path d="M95.2744 54.1235L93.5318 58.4968H92.8455L91.1871 54.1235H91.9574L93.0676 57.3026C93.1517 57.5347 93.2021 57.7399 93.2223 57.9148H93.2391C93.266 57.6962 93.3131 57.4977 93.3771 57.3227L94.5377 54.1269H95.2778" fill="#999999"/>
<path d="M99.1589 58.4963H98.4592V57.8134H98.4424C98.1362 58.3382 97.6888 58.6006 97.0968 58.6006C96.6628 58.6006 96.3197 58.4862 96.0741 58.2541C95.8286 58.022 95.7041 57.7159 95.7041 57.3357C95.7041 56.5183 96.1851 56.044 97.1472 55.9094L98.4592 55.7244C98.4592 54.9809 98.1598 54.6109 97.5576 54.6109C97.0295 54.6109 96.5552 54.7892 96.1313 55.1492V54.4326C96.5619 54.1601 97.0564 54.0222 97.6182 54.0222C98.6476 54.0222 99.1589 54.5672 99.1589 55.6537V58.4997M98.4592 56.2828L97.4029 56.4275C97.08 56.4746 96.8344 56.5519 96.6695 56.6697C96.5047 56.7874 96.4206 56.9892 96.4206 57.2819C96.4206 57.4938 96.498 57.6688 96.6494 57.8067C96.8007 57.9412 97.0059 58.0085 97.2582 58.0085C97.6047 58.0085 97.894 57.8874 98.1194 57.6419C98.3448 57.3963 98.4592 57.0902 98.4592 56.7168V56.2828Z" fill="#999999"/>
<path d="M102.5 58.4532C102.336 58.5441 102.117 58.5912 101.848 58.5912C101.081 58.5912 100.697 58.1639 100.697 57.3093V54.7219H99.9468V54.123H100.697V53.0565L101.397 52.8311V54.1264H102.5V54.7253H101.397V57.1915C101.397 57.4842 101.447 57.6928 101.545 57.8207C101.646 57.9452 101.811 58.0091 102.04 58.0091C102.215 58.0091 102.369 57.962 102.497 57.8644V58.4633" fill="#999999"/>
<path d="M103.787 53.0126C103.663 53.0126 103.555 52.9688 103.468 52.8847C103.38 52.8006 103.337 52.6895 103.337 52.5616C103.337 52.4338 103.38 52.3227 103.468 52.2352C103.555 52.1477 103.663 52.104 103.787 52.104C103.912 52.104 104.023 52.1477 104.114 52.2352C104.205 52.3227 104.248 52.4304 104.248 52.5616C104.248 52.6929 104.205 52.7938 104.114 52.8813C104.023 52.9688 103.915 53.0126 103.787 53.0126ZM104.131 58.4976H103.431V54.123H104.131V58.4976Z" fill="#999999"/>
<path d="M107.374 58.5972C106.728 58.5972 106.21 58.392 105.826 57.9849C105.439 57.5779 105.248 57.0363 105.248 56.3601C105.248 55.6268 105.449 55.0515 105.85 54.6378C106.25 54.224 106.795 54.0188 107.478 54.0188C108.161 54.0188 108.639 54.2206 109.005 54.6209C109.372 55.0213 109.554 55.5797 109.554 56.2895C109.554 56.9993 109.355 57.5442 108.961 57.9647C108.568 58.3852 108.04 58.5938 107.374 58.5938M107.428 54.6109C106.977 54.6109 106.62 54.7622 106.361 55.0684C106.099 55.3745 105.968 55.795 105.968 56.3332C105.968 56.8714 106.099 57.2583 106.364 57.5577C106.63 57.8571 106.983 58.0051 107.428 58.0051C107.872 58.0051 108.228 57.8571 108.47 57.5644C108.713 57.2718 108.837 56.8546 108.837 56.313C108.837 55.7714 108.716 55.3442 108.47 55.0482C108.228 54.7521 107.878 54.6041 107.428 54.6041" fill="#999999"/>
<path d="M114.293 58.4964H113.594V56.0036C113.594 55.0751 113.254 54.6109 112.578 54.6109C112.228 54.6109 111.938 54.7421 111.71 55.0045C111.481 55.2669 111.367 55.5999 111.367 56.0002V58.493H110.667V54.1197H111.367V54.8464H111.383C111.713 54.2946 112.191 54.0188 112.82 54.0188C113.298 54.0188 113.664 54.1735 113.917 54.483C114.169 54.7925 114.297 55.2366 114.297 55.8219V58.4964" fill="#999999"/>
<path d="M24.0538 70.6111H23.2596L22.6102 68.8949H20.0124L19.3999 70.6111H18.6024L20.9512 64.4834H21.6949L24.0538 70.6111ZM22.3746 68.2489L21.4122 65.6376C21.3819 65.5535 21.3483 65.4155 21.318 65.2271H21.3012C21.2742 65.4021 21.2406 65.5367 21.2036 65.6376L20.2513 68.2489H22.3746Z" fill="#999999"/>
<path d="M27.9105 66.4389L25.3235 70.0115H27.8869V70.6103H24.2941V70.3917L26.8811 66.8359H24.5363V66.2371H27.9105V66.4389Z" fill="#999999"/>
<path d="M32.352 70.6103H31.6523V69.9173H31.6354C31.3461 70.4454 30.8953 70.7112 30.2865 70.7112C29.2436 70.7112 28.7222 70.0888 28.7222 68.8475V66.2336H29.4185V68.7365C29.4185 69.6582 29.7718 70.1191 30.4782 70.1191C30.8213 70.1191 31.1006 69.9947 31.3226 69.7424C31.5446 69.49 31.6523 69.1604 31.6523 68.7533V66.2336H32.352V70.6069" fill="#999999"/>
<path d="M36.0389 66.9467C35.9178 66.8525 35.7395 66.8054 35.5108 66.8054C35.2114 66.8054 34.9624 66.9467 34.7606 67.2292C34.5587 67.5118 34.4578 67.8953 34.4578 68.3831V70.6135H33.7581V66.2402H34.4578V67.1418H34.4746C34.5756 66.8357 34.7269 66.5934 34.9321 66.4219C35.1373 66.2503 35.3661 66.1628 35.6184 66.1628C35.8001 66.1628 35.9414 66.183 36.0355 66.2234V66.95" fill="#999999"/>
<path d="M40.3087 68.5982H37.2206C37.2307 69.086 37.3619 69.4593 37.6142 69.7251C37.8665 69.9909 38.2096 70.1221 38.6469 70.1221C39.1381 70.1221 39.5922 69.9606 40.006 69.6343V70.2936C39.6225 70.5728 39.1145 70.7108 38.4821 70.7108C37.8496 70.7108 37.3787 70.5123 37.0255 70.1153C36.6723 69.7184 36.4973 69.16 36.4973 68.4401C36.4973 67.7605 36.6891 67.2055 37.0759 66.7783C37.4628 66.351 37.9405 66.1357 38.5124 66.1357C39.0842 66.1357 39.5283 66.3208 39.8411 66.6908C40.154 67.0608 40.3121 67.5755 40.3121 68.2315V68.5982M39.5922 68.0061C39.5922 67.6024 39.4913 67.2862 39.2995 67.0608C39.1078 66.8354 38.842 66.7244 38.4989 66.7244C38.1558 66.7244 37.8867 66.8422 37.6579 67.0777C37.4258 67.3131 37.2845 67.6226 37.2307 68.0027H39.5922" fill="#999999"/>
<path d="M24.1422 70.6111H23.3481L22.6986 68.8949H20.1008L19.4884 70.6111H18.6909L21.0397 64.4834H21.7833L24.1422 70.6111ZM22.4631 68.2489L21.5007 65.6376C21.4704 65.5535 21.4367 65.4155 21.4065 65.2271H21.3896C21.3627 65.4021 21.3291 65.5367 21.2921 65.6376L20.3397 68.2489H22.4631Z" fill="#999999"/>
<path d="M27.9957 66.4389L25.4088 70.0115H27.9722V70.6103H24.3794V70.3917L26.9663 66.8359H24.6216V66.2371H27.9957V66.4389Z" fill="#999999"/>
<path d="M32.4391 70.6103H31.7393V69.9173H31.7225C31.4332 70.4454 30.9824 70.7112 30.3735 70.7112C29.3307 70.7112 28.8092 70.0888 28.8092 68.8475V66.2336H29.5056V68.7365C29.5056 69.6582 29.8588 70.1191 30.5653 70.1191C30.9084 70.1191 31.1876 69.9947 31.4097 69.7424C31.6317 69.49 31.7393 69.1604 31.7393 68.7533V66.2336H32.4391V70.6069" fill="#999999"/>
<path d="M36.1278 66.9467C36.0067 66.8525 35.8284 66.8054 35.5997 66.8054C35.3003 66.8054 35.0513 66.9467 34.8495 67.2292C34.6477 67.5118 34.5467 67.8953 34.5467 68.3831V70.6135H33.847V66.2402H34.5467V67.1418H34.5636C34.6645 66.8357 34.8159 66.5934 35.0211 66.4219C35.2263 66.2503 35.455 66.1628 35.7073 66.1628C35.889 66.1628 36.0303 66.183 36.1245 66.2234V66.95" fill="#999999"/>
<path d="M40.3956 68.5982H37.3075C37.3175 69.086 37.4487 69.4593 37.701 69.7251C37.9533 69.9909 38.2965 70.1221 38.7338 70.1221C39.2249 70.1221 39.6791 69.9606 40.0928 69.6343V70.2936C39.7093 70.5728 39.2014 70.7108 38.5689 70.7108C37.9365 70.7108 37.4656 70.5123 37.1123 70.1153C36.7591 69.7184 36.5842 69.16 36.5842 68.4401C36.5842 67.7605 36.7759 67.2055 37.1628 66.7783C37.5497 66.351 38.0273 66.1357 38.5992 66.1357C39.1711 66.1357 39.6151 66.3208 39.928 66.6908C40.2408 67.0608 40.3989 67.5755 40.3989 68.2315V68.5982M39.6791 68.0061C39.6791 67.6024 39.5781 67.2862 39.3864 67.0608C39.1946 66.8354 38.9289 66.7244 38.5858 66.7244C38.2426 66.7244 37.9735 66.8422 37.7448 67.0777C37.516 67.3131 37.3714 67.6226 37.3175 68.0027H39.6791" fill="#999999"/>
<path d="M24.2277 70.6111H23.4336L22.7841 68.8949H20.1863L19.5739 70.6111H18.7764L21.1252 64.4834H21.8689L24.2277 70.6111ZM22.5486 68.2489L21.5862 65.6376C21.5559 65.5535 21.5223 65.4155 21.492 65.2271H21.4751C21.4482 65.4021 21.4146 65.5367 21.3776 65.6376L20.4253 68.2489H22.5486Z" fill="#999999"/>
<path d="M28.0862 66.4389L25.4993 70.0115H28.0627V70.6103H24.4699V70.3917L27.0568 66.8359H24.7121V66.2371H28.0862V66.4389Z" fill="#999999"/>
<path d="M32.528 70.6103H31.8283V69.9173H31.8114C31.5221 70.4454 31.0714 70.7112 30.4625 70.7112C29.4196 70.7112 28.8982 70.0888 28.8982 68.8475V66.2336H29.5945V68.7365C29.5945 69.6582 29.9478 70.1191 30.6542 70.1191C30.9973 70.1191 31.2766 69.9947 31.4986 69.7424C31.7206 69.49 31.8283 69.1604 31.8283 68.7533V66.2336H32.528V70.6069" fill="#999999"/>
<path d="M36.2133 66.9467C36.0922 66.8525 35.9139 66.8054 35.6852 66.8054C35.3858 66.8054 35.1368 66.9467 34.935 67.2292C34.7332 67.5118 34.6322 67.8953 34.6322 68.3831V70.6135H33.9325V66.2402H34.6322V67.1418H34.6491C34.75 66.8357 34.9014 66.5934 35.1066 66.4219C35.3118 66.2503 35.5405 66.1628 35.7928 66.1628C35.9745 66.1628 36.1158 66.183 36.21 66.2234V66.95" fill="#999999"/>
<path d="M40.4861 68.5982H37.398C37.4081 69.086 37.5393 69.4593 37.7916 69.7251C38.0405 69.9909 38.387 70.1221 38.8243 70.1221C39.3154 70.1221 39.7696 69.9606 40.1834 69.6343V70.2936C39.7999 70.5728 39.2919 70.7108 38.6595 70.7108C38.027 70.7108 37.5561 70.5123 37.2029 70.1153C36.8497 69.7184 36.6747 69.16 36.6747 68.4401C36.6747 67.7605 36.8665 67.2055 37.2533 66.7783C37.6402 66.351 38.1179 66.1357 38.6897 66.1357C39.2616 66.1357 39.7057 66.3208 40.0185 66.6908C40.3314 67.0608 40.4895 67.5755 40.4895 68.2315V68.5982M39.7696 68.0061C39.7696 67.6024 39.6687 67.2862 39.4769 67.0608C39.2852 66.8354 39.0194 66.7244 38.6763 66.7244C38.3332 66.7244 38.064 66.8422 37.8353 67.0777C37.6065 67.3131 37.4619 67.6226 37.4081 68.0027H39.7696" fill="#999999"/>
</svg>
