<svg xmlns="http://www.w3.org/2000/svg" width="72" height="85" viewBox="0 0 72 85" fill="none"><path d="M5.35317 5.31439H66.2519C68.4783 5.31439 70.2906 7.14591 70.2906 9.41449V75.5855C70.2906 77.8541 68.4783 79.6856 66.2519 79.6856H5.35317C3.12675 79.6856 1.31439 77.8541 1.31439 75.5855V9.41449C1.31439 7.14591 3.12674 5.31439 5.35317 5.31439Z" stroke="#999999" stroke-width="0.628788"></path><path fill-rule="evenodd" clip-rule="evenodd" d="M32.5283 19.7364C34.0923 18.0843 36.2689 17.06 38.6736 17.06C41.8733 17.06 44.6624 18.8707 46.1482 21.5538C47.4385 20.9656 48.8722 20.6418 50.3711 20.6418C56.1384 20.6418 60.8174 25.4264 60.8174 31.3278C60.8174 37.2292 56.1384 42.0137 50.3711 42.0137C49.6673 42.0137 48.9765 41.9411 48.3118 41.8089C47.0019 44.1747 44.506 45.774 41.6452 45.774C40.4461 45.774 39.3122 45.4964 38.3021 44.9942C36.9727 48.1597 33.8838 50.3801 30.28 50.3801C26.6763 50.3801 23.3332 47.9746 22.1015 44.5977C21.5672 44.71 21.0067 44.7761 20.4398 44.7761C15.9758 44.7761 12.3525 41.0687 12.3525 36.489C12.3525 33.4227 13.9817 30.7462 16.3994 29.3122C15.9041 28.1491 15.6239 26.867 15.6239 25.5189C15.6239 20.2519 19.8402 15.9894 25.0341 15.9894C28.0839 15.9894 30.7948 17.4631 32.5153 19.7431L32.5283 19.7364ZM19.3749 33.8265C19.3486 33.8904 19.3732 33.9157 19.3871 33.93L19.3871 33.93C19.3905 33.9335 19.3932 33.9363 19.3945 33.9388C19.4492 33.9785 19.5039 34.011 19.5587 34.0435C19.5952 34.0652 19.6317 34.0869 19.6682 34.1107C20.1634 34.375 20.6261 34.4543 21.1149 34.4543C22.1119 34.4543 22.7245 33.919 22.7245 33.0533V33.0335C22.7245 32.2338 22.0272 31.9431 21.3755 31.7382L21.2908 31.7118L21.2797 31.708C20.7892 31.5444 20.372 31.4053 20.372 31.0773V31.0575C20.372 30.7734 20.6196 30.5685 21.0041 30.5685C21.4342 30.5685 21.9425 30.7139 22.2683 30.8989C22.2683 30.8989 22.3661 30.965 22.3987 30.8659C22.4084 30.8394 22.454 30.7139 22.4996 30.5884C22.5453 30.4628 22.5909 30.3372 22.6007 30.3108C22.6202 30.2579 22.5877 30.2182 22.5551 30.1984C22.1836 29.9671 21.6623 29.8085 21.1279 29.8085H21.0302C20.1178 29.8085 19.4857 30.3636 19.4857 31.1633V31.1831C19.4857 32.0224 20.1895 32.2999 20.8412 32.485L20.9454 32.518L20.976 32.5278C21.4389 32.6755 21.8382 32.8029 21.8382 33.1392V33.159C21.8382 33.4696 21.571 33.7009 21.1409 33.7009C20.9715 33.7009 20.4371 33.7009 19.8637 33.3242C19.8178 33.2989 19.7853 33.2762 19.7542 33.2546C19.7367 33.2423 19.7196 33.2304 19.7007 33.2185C19.6747 33.1987 19.603 33.1722 19.5704 33.2648L19.3749 33.8199V33.8265ZM33.942 33.9311C33.9281 33.9167 33.9035 33.8915 33.9298 33.8275V33.8209L34.1253 33.2658C34.1513 33.1733 34.236 33.2063 34.2556 33.2195C34.2744 33.2314 34.2915 33.2434 34.309 33.2556L34.3091 33.2556C34.3402 33.2773 34.3727 33.2999 34.4185 33.3253C34.992 33.702 35.5264 33.702 35.6958 33.702C36.1259 33.702 36.3931 33.4707 36.3931 33.1601V33.1402C36.3931 32.804 35.9937 32.6765 35.5309 32.5288L35.5003 32.519L35.396 32.486C34.7444 32.301 34.0405 32.0234 34.0405 31.1841V31.1643C34.0405 30.3647 34.6727 29.8095 35.585 29.8095H35.6828C36.2171 29.8095 36.7385 29.9681 37.1099 30.1994C37.1425 30.2193 37.1751 30.2589 37.1555 30.3118C37.1458 30.3382 37.1001 30.4638 37.0545 30.5893C37.0089 30.7149 36.9633 30.8405 36.9535 30.8669C36.9209 30.966 36.8232 30.8999 36.8232 30.8999C36.4973 30.7149 35.989 30.5695 35.5589 30.5695C35.1745 30.5695 34.9268 30.7744 34.9268 31.0586V31.0784C34.9268 31.4063 35.3441 31.5455 35.8345 31.7091L35.8457 31.7128L35.9304 31.7392C36.5821 31.9441 37.2794 32.2349 37.2794 33.0345V33.0543C37.2794 33.92 36.6668 34.4553 35.6697 34.4553C35.181 34.4553 34.7183 34.376 34.223 34.1117C34.1865 34.0879 34.15 34.0662 34.1135 34.0445C34.0588 34.012 34.0041 33.9795 33.9493 33.9399C33.9481 33.9373 33.9453 33.9345 33.942 33.9311ZM44.6983 31.2291C44.6136 30.9516 44.4898 30.7004 44.3203 30.4956C44.1509 30.2907 43.9359 30.1255 43.6817 30.0065C43.4276 29.8876 43.1278 29.8281 42.7954 29.8281C42.4631 29.8281 42.1568 29.8876 41.9026 30.0065C41.6485 30.1255 41.4334 30.2907 41.264 30.4956C41.0946 30.7004 40.9708 30.945 40.886 31.2291C40.8078 31.5067 40.7622 31.8107 40.7622 32.1345C40.7622 32.4583 40.8013 32.7623 40.886 33.0398C40.9642 33.3174 41.0946 33.5619 41.264 33.7734C41.4334 33.9783 41.6485 34.1435 41.9026 34.2624C42.1568 34.3814 42.4566 34.4409 42.7889 34.4409C43.1213 34.4409 43.421 34.3814 43.6752 34.2624C43.9293 34.1435 44.1444 33.9783 44.3138 33.7734C44.4833 33.5685 44.6071 33.324 44.6918 33.0398C44.77 32.7623 44.8156 32.4583 44.8156 32.1345C44.8156 31.8107 44.7765 31.5067 44.6918 31.2291H44.6983ZM43.8642 32.1378C43.8638 32.6253 43.7725 33.0074 43.597 33.2778C43.421 33.5487 43.1604 33.6809 42.7889 33.6809C42.4175 33.6809 42.1568 33.5487 41.9874 33.2844C41.8114 33.0134 41.7267 32.6301 41.7267 32.1411C41.7267 31.6521 41.8179 31.2688 41.9874 31.0044C42.1568 30.7401 42.424 30.6079 42.7889 30.6079C43.1539 30.6079 43.421 30.7401 43.597 31.0044C43.7725 31.2748 43.8638 31.6569 43.8642 32.1378ZM51.4 33.4963C51.4 33.4963 51.4782 33.4698 51.5042 33.5491H51.4912L51.6932 34.1175C51.7193 34.1901 51.6606 34.2166 51.6606 34.2166C51.3478 34.3421 50.9112 34.4281 50.4876 34.4281C49.7708 34.4281 49.2169 34.2166 48.8519 33.8002C48.4805 33.3905 48.298 32.8288 48.298 32.1283C48.298 31.8045 48.3436 31.5005 48.4349 31.2229C48.5261 30.9388 48.663 30.6942 48.8389 30.4894C49.0214 30.2845 49.243 30.1193 49.5101 30.0004C49.7773 29.8814 50.0901 29.8219 50.4355 29.8219C50.6701 29.8219 50.8786 29.8351 51.0611 29.8616C51.2566 29.888 51.5108 29.9607 51.615 30.0004C51.6346 30.007 51.6867 30.0334 51.6672 30.0995C51.6225 30.2279 51.5863 30.3305 51.5501 30.4331C51.523 30.5099 51.4958 30.5867 51.4651 30.6744C51.4326 30.7603 51.3674 30.7339 51.3674 30.7339C51.0937 30.648 50.833 30.6083 50.4876 30.6083C50.0771 30.6083 49.7708 30.7471 49.5688 31.0181C49.3668 31.2956 49.2495 31.6525 49.2495 32.1283C49.2495 32.6504 49.3798 33.0403 49.6079 33.2782C49.836 33.5227 50.1553 33.6416 50.5593 33.6416C50.7222 33.6416 50.8786 33.6284 51.0155 33.6086C51.1523 33.5888 51.2761 33.5425 51.3999 33.4963L51.4 33.4963ZM55.7553 31.0715C55.6836 30.8006 55.5076 30.5296 55.3969 30.4041C55.2144 30.2058 55.0384 30.067 54.8625 29.9944C54.6344 29.8952 54.3607 29.8291 54.0609 29.8291C53.709 29.8291 53.3897 29.8886 53.1356 30.0142C52.8749 30.1397 52.6598 30.305 52.4904 30.5164C52.321 30.7279 52.1906 30.9724 52.1124 31.2566C52.0277 31.5341 51.9886 31.8447 51.9886 32.1686C51.9886 32.4924 52.0342 32.803 52.119 33.0805C52.2037 33.3581 52.3405 33.6026 52.523 33.8075C52.7055 34.0123 52.9466 34.1709 53.2268 34.2833C53.507 34.3956 53.8524 34.4551 54.2434 34.4485C55.058 34.4485 55.4816 34.2635 55.6575 34.1643C55.6901 34.1445 55.7162 34.1181 55.6836 34.0255L55.5011 33.5035C55.4751 33.4242 55.3969 33.4506 55.3969 33.4506L55.3574 33.4663C55.157 33.5461 54.866 33.6621 54.2434 33.6621C53.8068 33.6621 53.4875 33.5299 53.2854 33.325C53.0769 33.1136 52.9792 32.8096 52.9596 32.38H55.7683C55.7683 32.38 55.84 32.38 55.853 32.3073C55.853 32.3037 55.8542 32.2938 55.8561 32.2782C55.8711 32.1515 55.9308 31.6489 55.7683 31.0782L55.7553 31.0715ZM52.9596 31.6663C52.9987 31.3954 53.0704 31.1707 53.1877 30.9922C53.3571 30.7279 53.6243 30.5759 53.9893 30.5759C54.3542 30.5759 54.6018 30.7213 54.7778 30.9922C54.8951 31.1707 54.9472 31.402 54.9668 31.6663H52.9661H52.9596ZM32.8993 30.4041C33.0101 30.5296 33.186 30.8006 33.2577 31.0715L33.2708 31.0782C33.4332 31.6489 33.3735 32.1515 33.3585 32.2782C33.3566 32.2938 33.3555 32.3037 33.3555 32.3073C33.3424 32.38 33.2708 32.38 33.2708 32.38H30.462C30.4816 32.8096 30.5793 33.1136 30.7879 33.325C30.9899 33.5299 31.3092 33.6621 31.7458 33.6621C32.3685 33.6621 32.6595 33.5461 32.8599 33.4663L32.8993 33.4506C32.8993 33.4506 32.9775 33.4242 33.0036 33.5035L33.186 34.0255C33.2186 34.1181 33.1926 34.1445 33.16 34.1643C32.984 34.2635 32.5539 34.4485 31.7458 34.4485C31.3548 34.4551 31.0095 34.3956 30.7292 34.2833C30.449 34.1709 30.2079 34.0123 30.0254 33.8075C29.843 33.6026 29.7061 33.3581 29.6214 33.0805C29.5367 32.803 29.4911 32.4924 29.4911 32.1686C29.4911 31.8447 29.5302 31.5341 29.6149 31.2566C29.6931 30.9724 29.8234 30.7279 29.9928 30.5164C30.1623 30.305 30.3773 30.1397 30.638 30.0142C30.8922 29.8886 31.2115 29.8291 31.5634 29.8291C31.8631 29.8291 32.1368 29.8952 32.3649 29.9944C32.5409 30.067 32.7168 30.2058 32.8993 30.4041ZM30.6901 30.9922C30.5728 31.1707 30.5012 31.3954 30.462 31.6663H30.4686H32.4692C32.4431 31.402 32.3975 31.1707 32.2802 30.9922C32.1043 30.7213 31.8566 30.5759 31.4917 30.5759C31.1268 30.5759 30.8596 30.7279 30.6901 30.9922ZM25.5073 31.5335C25.39 31.5269 25.2466 31.5203 25.0706 31.5203C24.8295 31.5203 24.5949 31.5534 24.3799 31.6128C24.1583 31.6723 23.9628 31.7648 23.7934 31.8904C23.6239 32.0159 23.4871 32.1746 23.3828 32.3596C23.2851 32.5446 23.2329 32.7693 23.2329 33.0138C23.2329 33.2583 23.2785 33.483 23.3633 33.6615C23.448 33.8399 23.5718 33.9919 23.7282 34.1042C23.8846 34.2166 24.0801 34.3025 24.3017 34.3554C24.5232 34.4082 24.7709 34.4347 25.0446 34.4347C25.3313 34.4347 25.618 34.4082 25.8983 34.362C26.1237 34.3239 26.3934 34.2678 26.5361 34.2382L26.6086 34.2232C26.6998 34.2034 26.8041 34.1703 26.8041 34.1703C26.8758 34.1505 26.8693 34.0778 26.8693 34.0778V31.4741C26.8693 30.9057 26.7194 30.4828 26.4196 30.2184C26.1263 29.9541 25.6897 29.8219 25.1293 29.8219C24.9208 29.8219 24.5819 29.8484 24.3733 29.8946C24.3733 29.8946 23.7608 30.0136 23.5066 30.2184C23.5066 30.2184 23.448 30.2515 23.4806 30.3308L23.6826 30.8727C23.7086 30.9454 23.7738 30.9189 23.7738 30.9189C23.7738 30.9189 23.7934 30.9123 23.8194 30.8925C24.3603 30.5951 25.0446 30.6017 25.0446 30.6017C25.3509 30.6017 25.5789 30.6612 25.7419 30.7868C25.8983 30.9057 25.9699 31.0841 25.9699 31.4674V31.5864C25.7288 31.5534 25.5073 31.5335 25.5073 31.5335ZM24.3864 33.5359C24.2835 33.4561 24.2649 33.4276 24.2315 33.3763L24.2235 33.3641C24.1648 33.2782 24.1387 33.1526 24.1387 32.994C24.1387 32.7429 24.2235 32.5645 24.3864 32.4455C24.3864 32.4455 24.6275 32.234 25.201 32.2406C25.605 32.2406 25.9634 32.3067 25.9634 32.3067V33.602C25.9634 33.602 25.605 33.6813 25.2075 33.7011C24.634 33.7342 24.3799 33.5359 24.3864 33.5359ZM48.1364 29.9669C48.1537 29.9818 48.1856 30.0093 48.1687 30.0665L48.1752 30.0731C48.1491 30.1458 48.0123 30.5357 47.9667 30.6679C47.9471 30.7207 47.9145 30.7472 47.8624 30.7472C47.8624 30.7472 47.706 30.7075 47.5561 30.7075C47.4518 30.7075 47.3085 30.7207 47.1781 30.7604C47.0543 30.8001 46.937 30.8727 46.8328 30.9719C46.7285 31.071 46.6438 31.2098 46.5851 31.3882C46.5265 31.5666 46.4939 31.8508 46.4939 32.135V34.2563C46.4939 34.3026 46.4548 34.3422 46.4092 34.3422H45.6728C45.6272 34.3422 45.5881 34.3026 45.5881 34.2563V30.007C45.5881 29.9608 45.6207 29.9211 45.6663 29.9211H46.3831C46.4287 29.9211 46.4613 29.9608 46.4613 30.007V30.3573C46.5721 30.2119 46.7611 30.0797 46.937 30.0004C47.113 29.9211 47.3085 29.8616 47.6604 29.8815C47.8428 29.8881 48.084 29.9409 48.1296 29.9608C48.1313 29.9625 48.1337 29.9646 48.1364 29.9669ZM41.2374 28.0972L41.2267 28.0941C41.2234 28.0926 41.2204 28.0914 41.2179 28.0906L41.2374 28.0972ZM41.2267 28.0941C41.14 28.0692 41.0636 28.0502 40.9572 28.0311C40.8464 28.0113 40.7226 27.9981 40.5727 27.9981C40.0644 27.9981 39.6669 28.1435 39.3802 28.4343C39.0999 28.7184 38.911 29.1546 38.8132 29.7229L38.7806 29.9146H38.142C38.142 29.9146 38.0638 29.9146 38.0508 30.0005L37.9465 30.5952C37.94 30.6547 37.966 30.6878 38.0377 30.6878H38.6568L38.0247 34.2497C37.9726 34.5339 37.9204 34.7718 37.8553 34.9502C37.7966 35.1287 37.7314 35.2608 37.6597 35.3534C37.5881 35.4459 37.5229 35.512 37.4056 35.5516C37.3078 35.5847 37.1971 35.5979 37.0732 35.5979C37.0081 35.5979 36.9168 35.5847 36.8452 35.5714C36.78 35.5582 36.7409 35.545 36.6953 35.5186C36.6953 35.5186 36.6236 35.4921 36.591 35.5648C36.5649 35.6243 36.402 36.0869 36.3825 36.1464C36.3629 36.2059 36.389 36.2455 36.4281 36.2587C36.4886 36.2824 36.5359 36.2958 36.5984 36.3137L36.5985 36.3137C36.6234 36.3208 36.6507 36.3286 36.6822 36.338C36.8386 36.3777 36.969 36.3777 37.0928 36.3777C37.3535 36.3777 37.5881 36.338 37.7836 36.2719C37.9791 36.1993 38.1485 36.0737 38.3049 35.9019C38.4678 35.7168 38.5721 35.5252 38.6698 35.2675C38.7676 35.0097 38.8523 34.6859 38.9175 34.3092L39.5496 30.6811H40.475C40.475 30.6811 40.5532 30.6811 40.5662 30.5952L40.6705 30.0005C40.677 29.941 40.6509 29.9079 40.5792 29.9079H39.6799C39.6799 29.9079 39.7255 29.5643 39.8298 29.2669C39.8754 29.1414 39.9536 29.0356 40.0253 28.9629C40.097 28.8902 40.1752 28.844 40.2599 28.8175C40.3512 28.7911 40.4489 28.7713 40.5597 28.7713C40.6444 28.7713 40.7291 28.7845 40.7878 28.7977C40.8251 28.8064 40.8535 28.8126 40.8753 28.8173C40.9031 28.8234 40.9202 28.8271 40.9311 28.8308C41.0224 28.8572 41.0354 28.8308 41.055 28.7845L41.27 28.1897C41.2871 28.132 41.2495 28.1045 41.2267 28.0941ZM28.6073 28.0909H27.8709C27.8252 28.0909 27.7861 28.1306 27.7861 28.1768V34.2567C27.7861 34.3029 27.8252 34.3426 27.8709 34.3426H28.6073C28.6529 34.3426 28.692 34.3029 28.692 34.2567V28.1768C28.692 28.1306 28.6529 28.0909 28.6073 28.0909Z" fill="#999999"></path><path d="M13.3535 64.4564V56.4799H16.0123C16.853 56.4667 17.4786 56.5857 17.8957 56.7839C18.7428 57.1804 19.2772 58.099 19.2772 59.1762C19.2772 60.6565 18.4691 61.9584 16.2144 61.9584H15.2759V64.4564H13.3535ZM16.1362 60.1675C16.9442 60.1675 17.3483 59.8899 17.3483 59.2093C17.3483 58.5286 16.9573 58.2708 16.0645 58.2708H15.2759V60.1675H16.1362Z" fill="#999999"></path><path d="M24.2877 64.4564L23.9032 63.3H21.1727L20.7557 64.4564H18.5986L21.7527 56.48H23.3363L26.4643 64.4564H24.2877ZM22.5673 58.9714L22.5347 58.9582L21.7267 61.6875H23.3754L22.5673 58.9714Z" fill="#999999"></path><path d="M31.038 64.4564L29.2198 61.8791H29.2003V64.4564H27.2778V56.48H29.8519C30.673 56.48 31.2986 56.5857 31.7092 56.7707C32.5564 57.1606 33.1559 58.0991 33.1559 59.2291C33.1559 60.4913 32.413 61.5223 31.2009 61.7403L33.3384 64.4564H31.0445H31.038ZM29.9432 60.4913C30.7382 60.4913 31.227 60.1147 31.227 59.3481C31.227 58.6608 30.7187 58.2709 29.9627 58.2709H29.2003V60.4913H29.9432Z" fill="#999999"></path><path d="M34.8957 64.4564V58.2709H33.3447V56.48H38.4473V58.2709H36.9029V64.4564H34.8957Z" fill="#999999"></path><path d="M44.1527 64.4564L41.1354 59.586L41.1876 64.4564H39.2651V56.48H40.9986L44.0614 61.5223L43.9767 56.48H45.8992V64.4564H44.1592H44.1527Z" fill="#999999"></path><path d="M47.334 64.4564V56.48H51.7002V58.2709H49.2564V59.5133H51.6285V61.3042H49.2564V62.6721H51.7002V64.4631H47.334V64.4564Z" fill="#999999"></path><path d="M56.7133 64.4564L54.8951 61.8791H54.8756V64.4564H52.9531V56.48H55.5272C56.3483 56.48 56.9739 56.5857 57.3845 56.7707C58.2317 57.1606 58.8312 58.0991 58.8312 59.2291C58.8312 60.4913 58.0883 61.5223 56.8762 61.7403L59.0137 64.4564H56.7198H56.7133ZM55.6185 60.4913C56.4135 60.4913 56.9023 60.1147 56.9023 59.3481C56.9023 58.6608 56.3939 58.2709 55.638 58.2709H54.8756V60.4913H55.6185Z" fill="#999999"></path></svg>